<svg xmlns="http://www.w3.org/2000/svg" width="80" height="25" viewBox="0 0 80 25">
    <path fill="#253858" fill-rule="nonzero" d="M42.161 6.236c0 .894-.72 1.615-1.614 1.615-.895 0-1.615-.72-1.615-1.615 0-.894.695-1.615 1.615-1.615.919.025 1.614.745 1.614 1.615zm-6.658 3.255v.397s-.77-.994-2.41-.994c-2.708 0-4.82 2.063-4.82 4.92 0 2.832 2.087 4.919 4.82 4.919 1.665 0 2.41-1.019 2.41-1.019v.423c0 .198.15.347.348.347h2.012V9.143h-2.012a.355.355 0 0 0-.348.348zm0 5.987c-.373.547-1.118 1.019-2.012 1.019-1.59 0-2.808-.994-2.808-2.683 0-1.69 1.218-2.684 2.808-2.684.87 0 1.664.497 2.012 1.02v3.328zm3.851-6.335h2.385v9.341h-2.385V9.143zm35.627-.249c-1.64 0-2.41.994-2.41.994V4.646h-2.385v13.838H72.2a.355.355 0 0 0 .348-.347v-.423s.77 1.019 2.41 1.019c2.708 0 4.82-2.087 4.82-4.92 0-2.832-2.112-4.919-4.796-4.919h-.001zm-.397 7.578c-.92 0-1.64-.472-2.013-1.019v-3.329c.373-.497 1.168-1.018 2.013-1.018 1.59 0 2.807.993 2.807 2.683s-1.217 2.683-2.807 2.683zm-5.64-3.528v5.565H66.56v-5.292c0-1.54-.497-2.161-1.839-2.161-.72 0-1.465.373-1.937.92v6.508h-2.385V9.143h1.888c.198 0 .348.174.348.348v.397c.695-.72 1.614-.994 2.534-.994 1.043 0 1.913.299 2.608.895.845.695 1.168 1.59 1.168 3.155h-.001zm-14.335-4.05c-1.64 0-2.41.994-2.41.994V4.646h-2.385v13.838h2.012a.355.355 0 0 0 .348-.347v-.423s.77 1.019 2.41 1.019c2.708 0 4.82-2.087 4.82-4.92.025-2.832-2.087-4.919-4.795-4.919zm-.398 7.578c-.92 0-1.64-.472-2.012-1.019v-3.329c.372-.497 1.167-1.018 2.012-1.018 1.59 0 2.808.993 2.808 2.683s-1.218 2.683-2.808 2.683zm-6.46-7.578c.721 0 1.094.125 1.094.125v2.21s-1.988-.67-3.23.746v6.534H43.23V9.143h2.012c.199 0 .348.174.348.348v.397c.447-.522 1.416-.994 2.162-.994h-.001zm-24.77 8.746c-.124-.298-.248-.621-.372-.895-.2-.447-.398-.87-.572-1.267l-.025-.025a259.319 259.319 0 0 0-5.49-11.23l-.075-.148c-.199-.373-.397-.77-.596-1.168-.249-.447-.497-.92-.894-1.367C14.16.547 13.019 0 11.8 0c-1.242 0-2.36.547-3.18 1.49-.373.448-.646.92-.894 1.367a50.71 50.71 0 0 1-.597 1.168l-.074.149a291.727 291.727 0 0 0-5.49 11.23l-.026.05c-.174.397-.372.82-.571 1.266-.124.274-.249.572-.373.895-.323.92-.422 1.789-.298 2.683a5.28 5.28 0 0 0 3.23 4.124 5.102 5.102 0 0 0 2.012.398 6.564 6.564 0 0 0 3.13-.894c1.02-.572 1.988-1.392 3.082-2.584 1.093 1.192 2.087 2.012 3.08 2.583a6.564 6.564 0 0 0 3.13.895c.696 0 1.392-.124 2.013-.398 1.74-.695 2.957-2.285 3.23-4.124.199-.87.1-1.739-.224-2.658h.001zm-11.205 1.292c-1.341-1.69-2.21-3.28-2.509-4.621-.124-.572-.149-1.069-.074-1.516a2.41 2.41 0 0 1 .397-1.043c.472-.671 1.267-1.094 2.186-1.094.92 0 1.74.398 2.187 1.094.198.298.348.646.397 1.043.075.447.05.969-.074 1.516-.298 1.316-1.168 2.906-2.51 4.62v.001zm9.913 1.167a3.692 3.692 0 0 1-2.26 2.907 3.762 3.762 0 0 1-1.889.249 4.886 4.886 0 0 1-1.888-.646c-.894-.497-1.789-1.267-2.832-2.41 1.64-2.013 2.633-3.851 3.006-5.49a6.22 6.22 0 0 0 .124-2.113 4.031 4.031 0 0 0-.67-1.69c-.77-1.117-2.063-1.763-3.504-1.763-1.44 0-2.733.67-3.503 1.764a4.031 4.031 0 0 0-.67 1.69 5.14 5.14 0 0 0 .124 2.111c.372 1.64 1.391 3.503 3.006 5.516-1.019 1.142-1.938 1.913-2.832 2.41a4.886 4.886 0 0 1-1.889.646 3.974 3.974 0 0 1-1.888-.249 3.692 3.692 0 0 1-2.26-2.907 4.113 4.113 0 0 1 .223-1.938c.074-.248.199-.497.323-.795.174-.397.373-.82.571-1.242l.025-.05c1.737-3.76 3.56-7.479 5.466-11.155l.075-.149c.198-.373.397-.77.596-1.143.199-.397.422-.77.696-1.093.521-.596 1.217-.92 1.987-.92s1.466.324 1.988.92c.273.323.497.696.695 1.093.2.373.398.77.597 1.143l.074.15a329.566 329.566 0 0 1 5.441 11.18v.024c.199.398.373.845.572 1.242.124.298.248.547.323.795.198.646.273 1.267.173 1.913z"/>
</svg>
