<svg xmlns="http://www.w3.org/2000/svg" xmlns:xlink="http://www.w3.org/1999/xlink" width="555" height="399" viewBox="0 0 555 399">
    <defs>
        <path id="a" d="M.567.31h160.715v92.784H.567z"/>
        <path id="c" d="M.567 1.16h160.715v56.037H.567z"/>
        <path id="e" d="M.567.12h160.715v92.782H.567z"/>
        <path id="g" d="M.567 1.24h160.715v92.784H.567z"/>
        <path id="i" d="M.567.424h160.715V59.41H.567z"/>
        <path id="k" d="M.567.666h160.715V93.45H.567z"/>
        <path id="m" d="M.567.657h160.715v92.784H.567z"/>
        <path id="o" d="M.567.224h160.715v56.037H.567z"/>
        <path id="q" d="M.567.466h160.715v92.783H.567z"/>
    </defs>
    <g fill="none" fill-rule="evenodd">
        <path fill="#647DDD" d="M488.01 278.4c.071-.25.062-.49 0-.715-.256-.944-1.416-1.619-1.416-1.619s-69.432-40.1-72.739-42.008c-3.306-1.909-6.618.003-6.618.003s-29.76 17.182-33.064 19.094c-1.248.72-1.55 1.44-1.448 2.057v3.38c-.17 1.219 1.448 2.156 1.448 2.156s69.438 40.101 72.745 42.004a6.28 6.28 0 0 0 3.031.842c2.035.047 3.582-.842 3.582-.842l29.762-17.182 3.307-1.909c.877-.506 1.28-1.013 1.41-1.482.071-.25.062-.49 0-.713V278.4z"/>
        <path fill="#57438E" d="M495.13 282.18c.071-.25.062-.49 0-.715v-3.78l-7.857-1.558-66.297-38.289c-3.307-1.909-6.618.003-6.618.003s-22.8 13.164-30.702 17.728l-3.811-.756v3.78c-.17 1.218 1.448 2.155 1.448 2.155s69.438 40.102 72.744 42.004c1.046.602 2.09.82 3.03.843h.002c2.035.046 3.582-.843 3.582-.843l29.762-17.182 3.306-1.91c.877-.505 1.28-1.012 1.412-1.48"/>
        <path fill="#381E60" d="M490.413 281.789l-29.761 17.183s-3.307 1.904-6.615 0a412516.63 412516.63 0 0 1-72.743-42.003s-3.304-1.905 0-3.815 33.064-19.094 33.064-19.094 3.311-1.911 6.618 0c3.306 1.907 72.736 42.006 72.736 42.006s3.314 1.905.007 3.815l-3.306 1.908z"/>
        <path fill="#1F9AFF" d="M480.458 272.265l-59.483-34.379-33.074 19.086 59.557 34.345z"/>
        <path fill="#FFF2FF" d="M480.038 278.53l-.56-.323a2.687 2.687 0 0 0-2.688 0l-16.96 9.783a1.035 1.035 0 0 0 0 1.792l.203.118a3.1 3.1 0 0 0 3.1 0l16.905-9.75a.935.935 0 0 0 0-1.62M399.479 245.253c0 .383.74.693 1.654.693.913 0 1.652-.31 1.652-.693 0-.382-.74-.693-1.652-.693-.913 0-1.654.31-1.654.693"/>
        <path fill="#FFF" fill-opacity=".1" d="M535.321 181.115l-94.567-54.561-83.29 40.19 111.652 63.978 66.205-38.224v-1.474l-1.25-.72 1.25-.722v-4.42l-2.23-1.287 2.23-1.287z"/>
        <path fill="#647DDD" d="M344.913 318.99c-.77.717-35.078 22.34-35.078 22.34s-44.22-25.778-42.697-25.318c1.524.458 77.775 2.977 77.775 2.977"/>
        <path fill="#FCCF4F" d="M344.913 318.99l-41.498-23.938-36.277 20.96 36.463 21.05 10.194-.105z"/>
        <path fill="#B99255" d="M308.615 331.071l5.18 5.886-10.193.105z"/>
        <path fill="#FF85AB" d="M548.137 183.955l-94.567-54.562-66.149 38.22 94.51 54.565z"/>
        <path fill="#FF85AB" d="M387.42 166.14v1.473l94.511 54.565 66.205-38.223v-1.474z"/>
        <path fill="#EF6C98" d="M548.137 182.481l-94.567-54.562-66.149 38.221 94.51 54.564z"/>
        <path fill="#FF85AB" d="M548.137 181.039l-94.567-54.562-66.149 38.22 94.51 54.565z"/>
        <path fill="#FFE5EA" d="M387.42 160.277v4.42l94.511 54.566 66.205-38.225v-4.42z"/>
        <path fill="#FFF9FF" d="M548.137 176.618l-94.567-54.562-66.149 38.22 94.51 54.565z"/>
        <path fill="#FF85AB" d="M548.137 174.045l-94.567-54.562-66.149 38.221 94.51 54.564z"/>
        <path fill="#EF6C98" d="M387.42 156.23v1.473l94.511 54.566 66.205-38.223v-1.475z"/>
        <path fill="#FF85AB" d="M548.137 172.571L453.57 118.01l-66.149 38.22 94.51 54.564z"/>
        <path fill="#EF6C98" d="M481.93 210.795v11.383l-94.51-54.565V156.23z"/>
        <g transform="translate(393.59 110.56)">
            <mask id="b" fill="#fff">
                <use xlink:href="#a"/>
            </mask>
            <path fill="#87CEFF" d="M161.283 54.872L66.716.311.567 38.53l94.51 54.564z" mask="url(#b)"/>
        </g>
        <g transform="translate(393.59 146.458)">
            <mask id="d" fill="#fff">
                <use xlink:href="#c"/>
            </mask>
            <path fill="#87CEFF" d="M.567 1.16v1.472l94.51 54.565 66.205-38.222v-1.473z" mask="url(#d)"/>
        </g>
        <g transform="translate(393.59 109.278)">
            <mask id="f" fill="#fff">
                <use xlink:href="#e"/>
            </mask>
            <path fill="#4CA6F1" d="M161.283 54.68L66.716.12.567 38.337l94.51 54.564z" mask="url(#f)"/>
        </g>
        <g transform="translate(393.59 106.714)">
            <mask id="h" fill="#fff">
                <use xlink:href="#g"/>
            </mask>
            <path fill="#87CEFF" d="M161.283 55.802L66.716 1.241.567 39.46l94.51 54.563z" mask="url(#h)"/>
        </g>
        <g transform="translate(393.59 141.33)">
            <mask id="j" fill="#fff">
                <use xlink:href="#i"/>
            </mask>
            <path fill="#FFE4E3" d="M.567.424v4.421l94.51 54.564 66.205-38.222v-4.42z" mask="url(#j)"/>
        </g>
        <g transform="translate(393.59 102.868)">
            <mask id="l" fill="#fff">
                <use xlink:href="#k"/>
            </mask>
            <path fill="#FFF9FF" d="M161.283 55.228L66.716.666.567 38.886l94.51 54.564z" mask="url(#l)"/>
        </g>
        <g transform="translate(393.59 100.304)">
            <mask id="n" fill="#fff">
                <use xlink:href="#m"/>
            </mask>
            <path fill="#87CEFF" d="M161.283 55.219L66.716.657.567 38.877l94.51 54.564z" mask="url(#n)"/>
        </g>
        <g transform="translate(393.59 137.483)">
            <mask id="p" fill="#fff">
                <use xlink:href="#o"/>
            </mask>
            <path fill="#4CA6F1" d="M.567.224v1.473l94.51 54.564 66.205-38.221v-1.473z" mask="url(#p)"/>
        </g>
        <g transform="translate(393.59 99.022)">
            <mask id="r" fill="#fff">
                <use xlink:href="#q"/>
            </mask>
            <path fill="#87CEFF" d="M161.283 55.027L66.716.466.567 38.686l94.51 54.563z" mask="url(#r)"/>
        </g>
        <path fill="#FFF2FF" d="M422.626 137.702l37.687-21.773 66.076 38.123-37.722 21.78z"/>
        <path fill="#4CA6F1" d="M488.667 192.272v11.383l-94.51-54.564v-11.383z"/>
        <path fill="#647DDD" d="M140.787 275.487c.041-.087.085-.173.125-.26l.51.18c.185.064.43.152.614.215.368.13.86.305 1.228.433a466.975 466.975 0 0 0 1.841.652c.198.069.43.15.66.232.19.068 5.587 1.83 6.319 2.121l.006-.003.04.023a.385.385 0 0 0 .025.011l.004.005 69.332 40.243.981 1.377-.97 2.5-1.95 1.126-69.4-40.282-.04-.053c-1.884-1.644-3.91-3.833-5.791-5.46l-3.534-3.06"/>
        <path fill="#342646" d="M142.118 274.021l.51.18c.185.064.43.15.614.216l1.227.432 1.228.434c.185.065.43.154.614.216l.66.234-1.444 1.609-3.534-3.06c.041-.088.085-.174.125-.26"/>
        <path fill="#FFE2D7" d="M146.971 275.733c.199.071 6.145 2.011 6.396 2.156-.132.232-.227.26-.628.483-.955.532-1.86 1.758-1.873 2.866-.007.483.287 1.422.53 1.63-1.907-1.65-3.963-3.878-5.869-5.526-.2-.503.994-1.673 1.444-1.61"/>
        <path fill="#433F6D" d="M150.865 281.238c-.012 1.106.75 1.573 1.706 1.04.955-.533 1.74-1.862 1.753-2.969.014-1.106-.748-1.573-1.703-1.04-.956.533-1.742 1.861-1.756 2.969"/>
        <path fill="#DBAC37" d="M219.78 321.761l-69.401-40.282.978 1.376 69.401 40.282zM220.747 319.26l-69.401-40.282-.967 2.501 69.402 40.282z"/>
        <path fill="#FCCF4F" d="M222.697 318.133l-69.401-40.282-1.95 1.127 69.401 40.282z"/>
        <path fill="#433F6D" d="M220.747 319.26l-.966 2.501.976 1.376 1.952-1.126.969-2.501-.98-1.377z"/>
        <path fill="#647DDD" d="M122.188 380.485L0 313.092l79.557-15.98 128.685 33.689z"/>
        <path fill="#806CBE" d="M120.087 297.508c-.549-.32-1.213-.35-1.643-.103-.438.253-.393.651.147.965.556.323 1.23.341 1.659.094.414-.238.378-.642-.163-.956m-2.535-.612c1.051-.606 2.549-.553 3.554.03.991.576 1.07 1.44.027 2.043-1.042.601-2.541.557-3.539-.023-.99-.576-1.107-1.435-.042-2.05"/>
        <path fill="#FFF9FF" d="M118.591 298.37c.557.323 1.228.342 1.658.094.414-.239.378-.643-.162-.957-.55-.319-1.214-.35-1.643-.102-.437.252-.394.651.147.965"/>
        <path fill="#806CBE" d="M113.572 299.274l-1.08.623 11.862 1.236 1.08-.624z"/>
        <path fill="#FFF9FF" d="M119.396 302.054c-.556-.323-1.222-.354-1.673-.093-.414.239-.378.643.17.96.548.32 1.206.345 1.643.094.445-.256.401-.646-.14-.961"/>
        <path fill="#806CBE" d="M110.239 304.914l-2.017 1.164c2.811 1.635 6.559 2.543 10.556 2.538 3.998.005 7.75-.9 10.585-2.538 2.837-1.638 4.409-3.807 4.414-6.123.02-2.315-1.526-4.484-4.345-6.123-2.811-1.633-6.559-2.54-10.556-2.537-3.99 0-7.748.899-10.586 2.537l2.004 1.166c2.293-1.326 5.34-2.052 8.573-2.055 3.232.003 6.27.73 8.549 2.055 2.278 1.323 3.521 3.084 3.519 4.957-.02 1.873-1.282 3.635-3.576 4.96-2.292 1.322-5.338 2.05-8.572 2.054-3.233-.005-6.27-.732-8.548-2.055M12.436 309.696l5.227 3.036 73.662-42.529-5.226-3.037z"/>
        <path fill="#FFF9FF" d="M93.792 312.688c.556.324 1.221.346 1.65.098.423-.243.385-.647-.154-.96-.549-.32-1.214-.35-1.644-.103-.445.257-.393.651.148.965"/>
        <path fill="#FFF9FF" d="M85.347 319.285c-2.362-1.372-3.605-3.196-3.518-5.136.095-1.801 1.358-3.501 3.573-4.78 2.294-1.325 5.34-2.05 8.573-2.056 3.233.005 6.272.73 8.549 2.055 2.278 1.325 3.522 3.086 3.519 4.96-.02 1.872-1.282 3.634-3.576 4.957-2.292 1.324-5.338 2.051-8.571 2.055-3.24 0-6.271-.73-8.55-2.055"/>
        <path fill="#FFF9FF" d="M94.597 316.373c-.557-.325-1.22-.354-1.673-.094-.422.244-.379.642.17.962.548.318 1.205.343 1.642.092.438-.253.402-.646-.14-.96"/>
        <path fill="#806CBE" d="M27.293 318.328l2.423 1.41 73.661-42.53-2.421-1.408zM32.52 321.366l2.43 1.413 73.661-42.53-2.43-1.413zM83.399 308.203l2.004 1.165c-2.217 1.28-3.48 2.98-3.574 4.782-.087 1.938 1.156 3.762 3.518 5.136-2.362-1.374-3.605-3.198-3.518-5.136.094-1.803 1.357-3.503 3.574-4.782 2.293-1.324 5.34-2.05 8.573-2.054 3.232.005 6.27.73 8.548 2.054 2.279 1.324 3.522 3.085 3.518 4.959-.018 1.873-1.28 3.634-3.574 4.959l2.004 1.164c-2.837 1.638-6.587 2.54-10.585 2.537-3.999.004-7.754-.899-10.565-2.532 2.811 1.633 6.566 2.536 10.565 2.532 3.998.004 7.748-.899 10.585-2.537 2.83-1.634 4.409-3.808 4.414-6.123.013-2.31-1.527-4.485-4.345-6.124-2.812-1.633-6.567-2.537-10.556-2.537-3.99 0-7.756.904-10.586 2.537"/>
        <path fill="#87CEFF" d="M83.399 308.203c-2.73 1.576-4.302 3.675-4.413 5.903-.12 2.4 1.42 4.653 4.336 6.349 2.811 1.633 6.566 2.536 10.565 2.532 3.998.004 7.748-.899 10.585-2.537l-2.004-1.164c-2.292 1.324-5.34 2.05-8.572 2.053-3.24 0-6.272-.73-8.549-2.053-2.362-1.374-3.605-3.198-3.518-5.136.094-1.803 1.357-3.503 3.574-4.782l-2.004-1.165z"/>
        <path fill="#806CBE" d="M37.753 324.408l2.423 1.408 73.662-42.53-2.423-1.407z"/>
        <path fill="#FFF9FF" d="M68.993 327.006c.556.324 1.22.346 1.65.097.421-.242.378-.64-.163-.956-.549-.318-1.213-.349-1.643-.101-.437.252-.385.646.156.96"/>
        <path fill="#FFF9FF" d="M60.455 333.657c-2.361-1.372-3.605-3.196-3.518-5.136.095-1.802 1.358-3.502 3.575-4.781 2.292-1.326 5.338-2.051 8.571-2.055 3.234.004 6.272.73 8.55 2.055 2.277 1.323 3.52 3.086 3.518 4.958-.018 1.873-1.282 3.636-3.574 4.959-2.294 1.323-5.346 2.055-8.573 2.055-3.24 0-6.27-.732-8.549-2.055"/>
        <path fill="#FFF9FF" d="M69.79 330.694c-.557-.323-1.221-.353-1.666-.097-.422.244-.386.647.163.965.547.32 1.205.345 1.65.089.437-.253.393-.643-.148-.957"/>
        <path fill="#87CEFF" d="M161.006 318.506l24.265 14.101 6.832-3.943-24.264-14.103z"/>
        <path fill="#806CBE" d="M58.508 322.575l2.003 1.164c-2.216 1.28-3.48 2.98-3.574 4.782-.086 1.939 1.156 3.763 3.518 5.136-2.362-1.373-3.604-3.197-3.518-5.136.095-1.802 1.358-3.502 3.574-4.782 2.293-1.324 5.339-2.05 8.572-2.054 3.234.004 6.272.73 8.549 2.054l2.017-1.164c-2.81-1.633-6.566-2.537-10.557-2.537-3.99 0-7.755.904-10.584 2.537"/>
        <path fill="#FF6690" d="M165.283 329.912l12.289 7.14 6.833-3.944-12.288-7.14z"/>
        <path fill="#87CEFF" d="M152.88 340.541l9.294 5.402 6.833-3.944-9.294-5.402z"/>
        <path fill="#806CBE" d="M82.047 350.148l2.423 1.409 73.662-42.53-2.422-1.407zM88.926 354.147l2.423 1.408 73.663-42.53-2.423-1.408zM102.703 357.666l2.423 1.41 34.623-19.99-2.424-1.41zM108.486 361.027l2.423 1.409 34.623-19.99-2.423-1.41zM114.26 364.383l2.424 1.408 34.623-19.99-2.423-1.407zM119.212 367.26l2.423 1.41 34.623-19.99-2.423-1.41z"/>
        <path fill="#FFF9FF" d="M162.174 345.943l6.832-3.945-9.293-5.402-6.834 3.945 9.295 5.402zm-40.54 22.726l34.623-19.99-2.421-1.408-34.623 19.99 2.421 1.408zm-4.95-2.879l34.622-19.988-2.423-1.408-34.623 19.99 2.423 1.406zm-11.559-6.715l34.623-19.99-2.423-1.408-34.621 19.99 2.421 1.408zm5.784 3.36l34.623-19.99-2.423-1.408-34.623 19.99 2.423 1.408zm66.663-25.382l6.833-3.945-12.289-7.141-6.833 3.945 12.289 7.14zm-7.7 4.445l6.833-3.945-18.276-10.62-6.833 3.943 18.277 10.622zm15.4-8.89l6.832-3.946-24.266-14.101-6.832 3.946 24.266 14.1zM77.042 347.24l73.662-42.53-2.422-1.407-73.663 42.53 2.423 1.407zm7.428 4.317l73.662-42.53-2.422-1.408-73.663 42.529 2.423 1.409zm6.878 3.997l73.663-42.53-2.422-1.406-73.662 42.528 2.421 1.408zm-51.173-29.738l73.663-42.53-2.423-1.408-73.663 42.53 2.423 1.408zm-10.46-6.079l73.663-42.53-2.423-1.407-73.663 42.528 2.423 1.41zm-5.227-3.038l73.663-42.528-2.423-1.408-73.662 42.528 2.422 1.408zm10.462 6.08l73.661-42.53-2.43-1.413-73.662 42.53 2.43 1.412zm-17.287-10.047l73.662-42.528-5.227-3.037-73.661 42.53 5.226 3.035zm111.769-18.9c-2.81-1.633-6.56-2.54-10.555-2.537-3.991 0-7.75.899-10.586 2.537-2.731 1.577-4.302 3.676-4.413 5.902-.12 2.4 1.426 4.648 4.344 6.344 2.811 1.635 6.559 2.543 10.556 2.538 3.999.005 7.749-.9 10.586-2.538 2.837-1.638 4.409-3.806 4.414-6.123.02-2.315-1.527-4.484-4.346-6.123zm-49.784 28.743c-2.81-1.634-6.565-2.538-10.556-2.538-3.99 0-7.755.904-10.585 2.538-2.737 1.58-4.3 3.675-4.412 5.9-.12 2.4 1.418 4.655 4.336 6.35 2.819 1.638 6.566 2.538 10.564 2.533 3.997.005 7.748-.899 10.586-2.537 2.829-1.634 4.408-3.808 4.414-6.123.012-2.312-1.527-4.485-4.347-6.123zm24.893-14.372c-2.81-1.634-6.567-2.536-10.557-2.536s-7.755.902-10.586 2.536c-2.729 1.577-4.3 3.675-4.412 5.902-.12 2.4 1.419 4.653 4.337 6.35 2.81 1.634 6.566 2.536 10.564 2.532 3.997.004 7.747-.898 10.585-2.538 2.829-1.632 4.409-3.806 4.415-6.122.011-2.311-1.527-4.484-4.346-6.124zM208.242 330.8l-86.054 49.685L1.137 310.137l86.055-49.683 121.05 70.346z"/>
        <path fill="#FF6690" d="M108.29 293.833c-2.73 1.576-4.3 3.674-4.412 5.901-.12 2.4 1.425 4.649 4.343 6.345l2.018-1.164c-2.363-1.373-3.605-3.197-3.51-5.141.093-1.801 1.356-3.503 3.565-4.777l-2.004-1.164z"/>
        <path fill="#FFF9FF" d="M130.934 299.955c.003-1.872-1.24-3.634-3.52-4.957-2.276-1.325-5.315-2.052-8.548-2.056-3.233.004-6.28.731-8.572 2.056-2.209 1.274-3.471 2.974-3.565 4.775-.096 1.945 1.147 3.77 3.509 5.141 2.278 1.323 5.317 2.05 8.55 2.055 3.232-.005 6.28-.732 8.572-2.055 2.292-1.323 3.556-3.086 3.574-4.959"/>
        <path fill="#806CBE" d="M22.066 315.291l2.423 1.409 73.663-42.53-2.423-1.407z"/>
        <path fill="#87CEFF" d="M58.508 322.575c-2.738 1.58-4.302 3.674-4.413 5.901-.12 2.4 1.418 4.653 4.336 6.35 2.819 1.638 6.566 2.536 10.564 2.531 3.997.005 7.748-.899 10.586-2.536 2.83-1.634 4.409-3.807 4.414-6.124.013-2.31-1.527-4.485-4.346-6.122l-2.017 1.164c2.278 1.323 3.522 3.086 3.52 4.958-.019 1.873-1.283 3.636-3.575 4.96-2.294 1.323-5.346 2.054-8.572 2.054-3.241 0-6.272-.73-8.55-2.054-2.362-1.373-3.604-3.197-3.518-5.136.095-1.802 1.358-3.502 3.574-4.782l-2.003-1.164zM151.597 330.876l18.276 10.622 6.833-3.945-18.277-10.62z"/>
        <path fill="#806CBE" d="M74.619 345.832l2.423 1.408 73.662-42.53-2.422-1.407z"/>
        <path fill="#FFF" fill-opacity=".1" d="M238.283 291.778L77.756 221.657l161.501-88.922s167.037 71.67 154.712 74.99c-12.326 3.321-155.686 84.053-155.686 84.053"/>
        <path fill="#647DDD" d="M365.418 141.54c0 7.8-15.413 14.125-34.428 14.125-19.013 0-34.426-6.324-34.426-14.124 0-7.8 15.413-14.125 34.426-14.125 19.015 0 34.428 6.325 34.428 14.125"/>
        <path fill="#FFF" fill-opacity=".1" d="M104.032 223.64c0 8.817-17.424 15.966-38.918 15.966-21.495 0-38.918-7.149-38.918-15.967 0-8.818 17.423-15.966 38.918-15.966 21.494 0 38.918 7.148 38.918 15.966"/>
        <path fill="#FFF9FF" d="M85.955 171.518l-31.738 10.66v39.94c0 8.084 10.759 14.638 24.03 14.638s24.03-6.554 24.03-14.639v-39.94l-16.322-10.659z"/>
        <path fill="#D3BAE7" d="M102.278 182.178c0 8.086-10.76 14.639-24.031 14.639-13.272 0-24.03-6.553-24.03-14.639 0-8.085 10.758-14.638 24.03-14.638 13.272 0 24.03 6.553 24.03 14.638"/>
        <path fill="#752939" d="M57.79 189.858c4.232 4.175 11.81 6.959 20.457 6.959 8.648 0 16.225-2.784 20.458-6.96a8.035 8.035 0 0 0 .449-2.627c0-7.034-9.36-12.736-20.907-12.736-11.546 0-20.906 5.702-20.906 12.736 0 .9.156 1.78.449 2.628"/>
        <path fill="#BCBACE" d="M78.247 167.54c-13.271 0-24.03 6.553-24.03 14.638 0 8.086 10.759 14.639 24.03 14.639 13.272 0 24.031-6.553 24.031-14.639 0-8.085-10.759-14.638-24.03-14.638m0 1.683c12.112 0 22.347 5.932 22.347 12.955s-10.235 12.955-22.348 12.955S55.9 189.201 55.9 182.178s10.234-12.955 22.347-12.955"/>
        <path fill="#1A685A" d="M98.672 114.734c-2.01 4.274-2.039 9.18-2.027 13.902l.036 15.923c.014 6.044.015 12.18-1.63 17.995-1.646 5.816-5.185 11.372-10.6 14.06-2.682 1.331-6.052 1.848-8.588.257-1.123-.706-1.983-1.763-2.697-2.88-6.102-9.564-.458-22.414 3.928-31.594 5.08-10.634 12.463-20.181 21.578-27.663"/>
        <path fill="#409682" d="M53.05 158.381c-1.506-19.827-.49-40.027-5.352-59.308 13.248 16.116 19.705 37.641 17.515 58.388 4.391-13.704 8.827-27.69 8.747-42.081-.04-6.878 4.193-23.113 4.193-23.113s2.49 15.532 4.782 23.082c1.561 5.153 1.88 10.587 2.186 15.963l1.343 23.528c6.523-19.72 23.993-46.896 23.993-46.896s-6.431 51.815-9.84 63.67c-3.87 13.448-16.455 22.592-30.873 19.412-13.116-2.894-15.866-21.75-16.694-32.645"/>
        <path fill="#4EAF9D" d="M63.287 177.922c-2.743-7.537-.193-15.82 1.518-23.656 2.041-9.34 2.85-19.113.77-28.445a426.644 426.644 0 0 1 18.179 44.782c1.346 3.944 2.64 8.234 1.36 12.2-1.206 3.739-7.965 10.345-12.449 9.24-3.525-.87-8.175-10.814-9.378-14.12"/>
        <path fill="#FFF9FF" d="M349.668 85.767L317.886 96.44v39.994c0 8.095 10.773 14.658 24.063 14.658s24.062-6.563 24.062-14.658V96.44l-16.343-10.674z"/>
        <path fill="#FFF9FF" d="M366.012 96.44c0 8.097-10.774 14.66-24.063 14.66-13.29 0-24.063-6.563-24.063-14.66 0-8.094 10.773-14.658 24.063-14.658s24.063 6.564 24.063 14.659"/>
        <path fill="#253858" d="M321.464 104.131c4.238 4.181 11.827 6.97 20.486 6.97 8.658 0 16.246-2.789 20.484-6.97.294-.85.45-1.73.45-2.632 0-7.043-9.374-12.752-20.934-12.752-11.563 0-20.936 5.709-20.936 12.752 0 .903.156 1.782.45 2.632"/>
        <path fill="#5E6C84" d="M341.95 81.782c-13.29 0-24.065 6.563-24.065 14.66 0 8.096 10.774 14.658 24.064 14.658 13.289 0 24.063-6.562 24.063-14.659 0-8.096-10.774-14.659-24.063-14.659m0 1.686c12.13 0 22.377 5.941 22.377 12.973 0 7.032-10.247 12.973-22.377 12.973-12.13 0-22.377-5.94-22.377-12.973 0-7.032 10.248-12.973 22.377-12.973"/>
        <path fill="#FFF9FF" d="M362.476 112.603l-.88-.508v.016l-.012-.008v.015l-.015-.007v.015l-.014-.008v.016l-.014-.008v.017l-.013-.01v.016l-.014-.008v.017l-.014-.009v.017l-.013-.01v.017l-.014-.009v.017l-.014-.008v.016l-.014-.01v.018l-.013-.01v.017l-.014-.007v.015l-.014-.01v.018l-.014-.008v.015l-.013-.007v.015l-.015-.008v.016l-.014-.008v.015l-.014-.007v.015l-.013-.008v.016l-.014-.008v.015l-.014-.007v.016l-.015-.009v.016l-.012-.008v.016l-.014-.008v.017l-.015-.01v.016l-.014-.008v.016l-.012-.008v.017l-.015-.01v.017l-.014-.009v.016l-.014-.007v.016l-.013-.01v.017l-.014-.007v.015l-.014-.008v.016l-.013-.01v.017l-.014-.007v.015l-.014-.008v.016l-.014-.01v.018l-.013-.008v.015l-.014-.007v.015l-.014-.008v.016l-.014-.008v.015l-.014-.007v.015l-.014-.008v.016l-.014-.008v.015l-.014-.007v.016l-.013-.009v.016l-.014-.008v.015l-.015-.007v.016l-.014-.009v.016l-.012-.008v.017l-.015-.01v.017l-.014-.008v.016l-.014-.009v.017l-.013-.008v.016l-.014-.01v.017l-.014-.007v.015l-.014-.008v.016l-.013-.01v.017l-.014-.007v.015l-.014-.008v.016l-.014-.008v.015l-.013-.007v.015l-.014-.008v.016l-.014-.008v.015l-.013-.007v.015l-.014-.008v.016l-.015-.008v.016l-.014-.008v.015l-.013-.007v.016l-.014-.009v.016l-.014-.008v.015l-.015-.007v.016l-.012-.009v.016l-.014-.008v.017l-.015-.01v.017l-.014-.009v.017l-.013-.008v.016l-.014-.008v.015l-.014-.009v.017l-.014-.008v.016l-.013-.008v.016l-.014-.01v.017l-.014-.007v.015l-.014-.008v.016l-.013-.008v.015l-.014-.007v.015l-.014-.008v.016l-.014-.008v.015l-.013-.007v.015l-.014-.008v.017l-.015-.009v.015l-.012-.007v.015l-.015-.008v.017l-.014-.009v.016l-.015-.008v.017l-.012-.01v.017l-.014-.009v.016l-.015-.007v.016l-.014-.01v.017l-.012-.009v.017l-.015-.008v.016l-.014-.008v.015l-.014-.007v.015l-.013-.008v.016l-.014-.008v.015l-.014-.007v.015l-.014-.008v.016l-.013-.008v.016l-.014-.008v.015l-.014-.007v.015l-.014-.008v.016l-.013-.008v.015l-.014-.007v.015l-.014-.008v.017l-.014-.009v.015l-.013-.007v.016l-.014-.009v.017l-.015-.009v.015l-.013-.007v.016l-.014-.009v.017l-.014-.009v.017l-.015-.008v.015l-.012-.007v.015l-.015-.009v.017l-.014-.008v.016l-.014-.008v.015l-.013-.007v.015l-.014-.008v.016l-.014-.008v.015l-.014-.007v.015l-.013-.008v.016l-.014-.008v.015l-.014-.007v.015l-.014-.008v.016l-.013-.008v.015l-.014-.007v.015l-.014-.008v.016l-.014-.008v.017l-.013-.01v.016l-.014-.007v.016l-.014-.009v.017l-.014-.01v.016l-.014-.006v.015l-.014-.009v.017l-.015-.009v.017l-.014-.008v.015l-.012-.007v.015l-.015-.008v.016l-.014-.008v.015l-.012-.007v.015l-.015-.008v.016l-.014-.008v.016l-.014-.008v.015l-.013-.007v.015l-.014-.008v.016l-.014-.008v.015l-.014-.007v.015l-.013-.008v.017l-.014-.009v.015l-.014-.007v.015l-.014-.008v.017l-.013-.009v.017l-.014-.01v.016l-.014-.008v.017l-.014-.009v.017l-.013-.01v.016l-.014-.006v.015l-.015-.009v.017l-.013-.008v.016l-.014-.008v.015l-.015-.007v.015l-.014-.008v.016l-.014-.008v.015l-.013-.007v.015l-.014-.008v.016l-.014-.008v.015l-.013-.007v.015l-.014-.008v.016l-.014-.008v.016l-.014-.008v.015l-.013-.007v.015l-.014-.008v.016l-.014-.008v.017l-.014-.01v.016l-.013-.006v.015l-.014-.009v.017l-.014-.01v.017l-.014-.007v.015l-.013-.009v.017l-.014-.01v.017l-.014-.007v.015l-.014-.008v.016l-.014-.008v.015l-.013-.007v.015l-.016-.008v.016l-.014-.008v.016l-.012-.008v.015l-.015-.007v.015l-.014-.008v.016l-.014-.008v.015l-.013-.007v.015l-.014-.008v.016l-.014-.008v.017l-.014-.01v.016l-.013-.008v.016l-.014-.008v.017l-.014-.01v.017l-.013-.009v.016l-.014-.007v.016l-.014-.01v.018l-.014-.01v.016l-.013-.006v.015l-.014-.01v.018l-.014-.008v.015l-.014-.007v.015l-.013-.008v.016l-.014-.008v.015l-.014-.007v.015l-.016-.008v.016l-.011-.008v.015l-.016-.007v.015l-.014-.008v.016l-.014-.008v.016l-.013-.008v.015l-.014-.007v.015l-.014-.008v.016l-.014-.008v.017l-.013-.01v.016l-.014-.008v.016l-.014-.008v.017l-.014-.01v.017l-.013-.009v.017l-.014-.008v.016l-.014-.01v.017l-.013-.009v.017l-.014-.008v.016l-.014-.01v.018l-.014-.008v.015l-.013-.007v.015l-.014-.008v.016l-.014-.008v.015l-.014-.007v.015l-.013-.008v.016l-.015-.008v.015l-.013-.007v.015l-.016-.008v.016l-.013-.008v.015l-.014-.007v.016l-.014-.009v.016l-.014-.008v.016l-.013-.008v.016l-.014-.008v.016l-.014-.009v.016l-.014-.007v.016l-.013-.01v.017l-.014-.009v.017l-.014-.008v.016l-.014-.01v.017l-.013-.007v.015l-.014-.008v.016l-.014-.01v.017l-.014-.007v.015l-.013-.008v.016l-.014-.008v.015l-.014-.007v.015l-.013-.008v.016l-.014-.008v.016l-.014-.008v.015l-.014-.007v.016l-.013-.009v.016l-.014-.008v.015l-.016-.007v.016l-.014-.009v.016l-.013-.008v.015l-.014-.007v.016l-.014-.009v.017l-.014-.009v.017l-.013-.008v.015l-.014-.009v.017l-.014-.008v.016l-.014-.008v.016l-.013-.01v.017l-.014-.007v.015l-.014-.008v.016l-.014-.008v.015l-.013-.007v.015l-.014-.008v.016l-.014-.008v.015l-.014-.007v.015l-.013-.008v.016l-.014-.008v.015l-.014-.007v.015l-.013-.008v.017l-.014-.009v.016l-.014-.008v.015l-.016-.007v.016l-.013-.009v.016l-.014-.008v.017l-.014-.01v.017l-.014-.009v4.07a14.922 14.922 0 0 1 6.577 12.346c0 1.573-.54 3.036-1.5 4.192a6.444 6.444 0 0 1-.917.067v.007l-.012.002v.007h-.015v.007l-.014.001v.006l-.014.002v.007h-.013v.007l-.014.001v.008h-.014v.007h-.013v.008h-.014v.008h-.014v.008h-.014v.007h-.013v.008h-.014v.008h-.014v.007h-.014v.008h-.013v.008h-.015v.007h-.014v.008l-.014.001v.007h-.013v.007h-.014v.008l-.014.001v.007h-.015v.008h-.012v.007l-.014.002v.007h-.015v.007h-.014v.007l-.012.002v.007h-.015v.007l-.014.001v.008h-.014v.007h-.013v.008h-.014v.008h-.014v.007h-.013v.008h-.014v.008h-.014v.008h-.014v.007h-.013v.008l-.014.001v.007h-.014v.007l-.014.002v.006l-.014.001v.007h-.014v.007h-.014v.008l-.014.001v.007h-.013v.007l-.014.002v.006l-.015.001v.008h-.014v.007h-.012v.009h-.015v.007h-.014v.007h-.014v.009h-.013v.007h-.014v.008h-.014v.008h-.014v.007h-.013v.008h-.014v.008h-.014v.007h-.014v.008h-.013v.008l-.014.001v.007h-.014v.007l-.013.001v.007l-.014.001v.007h-.015v.007l-.014.002v.006l-.013.001v.008h-.014v.006l-.014.002v.007h-.015v.008h-.012v.006l-.014.002v.007h-.015v.008h-.014v.008h-.013v.007h-.014v.008h-.014v.008h-.014v.008h-.013v.007h-.014v.008l-.014.001v.007h-.014v.007h-.013v.008h-.014v.008l-.014.001v.006h-.014v.008h-.013v.008l-.014.001v.006h-.015v.008l-.012.001v.007l-.015.001v.008h-.014v.006l-.015.002v.007h-.012v.008h-.014v.006l-.015.002v.007h-.014v.008h-.012v.008h-.015v.007h-.014v.008h-.014v.008h-.013v.007h-.014v.008h-.014v.008l-.014.001v.007h-.013v.007h-.014v.008l-.014.001v.007h-.014v.007h-.013v.008l-.014.001v.007l-.014.001V136h-.014v.008l-.013.001v.008h-.014v.008h-.015v.006l-.013.001v.008h-.014v.008h-.014v.006l-.015.002v.007h-.012v.008h-.015v.008h-.014v.007h-.014v.008h-.013v.008h-.014v.007h-.014v.008h-.014v.008h-.013v.007l-.014.002v.006h-.014v.008l-.014.001v.007h-.013v.007l-.014.001v.007l-.014.001v.007h-.014v.009h-.013v.006l-.014.001v.008h-.014v.008h-.014v.007h-.014v.008h-.014v.008h-.015v.007h-.014v.008h-.012v.008h-.015v.007h-.014v.008h-.012v.008h-.015v.008h-.014v.007h-.014v.008h-.013v.008h-.014v.007l-.014.002v.006h-.014v.008l-.013.001v.006c-.005.002-.009.002-.014.002v.006h-.014v.008l-.014.001v.008h-.013v.007h-.014v.007l-.014.001v.008h-.014v.008h-.013v.007h-.014v.008h-.015v.008h-.013v.007h-.014v.008h-.015v.008h-.014v.007h-.014v.008h-.013v.008h-.014v.007l-.014.002v.006h-.013v.008h-.014v.008h-.014v.007l-.014.002v.006l-.013.001v.007h-.014v.009h-.014v.006l-.014.001v.007l-.013.001v.008h-.014v.007H359v.008h-.014v.008h-.013v.007h-.014v.007l-.014.001v.008h-.014v.008h-.014v.007l-.013.001v.007h-.016v.008h-.014v.007l-.012.002v.006h-.015v.008h-.014v.007l-.014.002v.006l-.013.001v.007h-.014v.007l-.014.002v.007h-.014v.007l-.013.001v.007h-.014v.008h-.014v.007l-.013.001v.007h-.014v.009h-.014v.007h-.014v.008h-.013v.008h-.014v.007h-.014v.008h-.014v.008h-.013v.007h-.014v.008l-.014.001v.007h-.016v.007h-.011v.008l-.016.001v.007h-.014v.008h-.014v.007l-.013.002v.007h-.014v.007h-.014v.007l-.014.002v.007h-.013v.007l-.014.001v.006l-.014.002v.007h-.014v.008h-.013v.008h-.014v.007h-.014v.008h-.013v.008h-.014v.008h-.014v.007h-.014v.008h-.013v.008h-.014v.007h-.014v.008l-.014.001v.007h-.013V137h-.015v.008l-.013.001v.007h-.016v.007l-.013.002v.006l-.014.001v.008h-.014v.007h-.014v.007l-.013.002v.007h-.014v.007h-.014v.009h-.014v.007h-.013v.008h-.014v.008h-.014v.007h-.014v.008h-.013v.008h-.014v.007h-.014v.008h-.014v.008l-.013.001v.007h-.014v.007h-.014v.008l-.013.001v.007h-.014v.007h-.014v.008l-.014.001v.007h-.013v.007l-.014.002v.006l-.016.001v.008h-.014v.006l-.013.002v.006l-.014.001v.008h-.014v.007h-.014v.008h-.013v.008h-.014v.008h-.014v.008h-.014v.007h-.013v.008h-.014v.008h-.014v.007h-.014v.008h-.013v.008l-.014.001v.006h-.014v.008h-.014v.008l-.013.001v.006h-.014v.008l-.014.001v.007l-.013.001v.008h-.014v.006l-.014.002v.006l-.016.001v.008h-.013v.006l-.014.002v.007h-.014v.008h-.014v3.492a10.042 10.042 0 0 0 5.049-1.374l.004-.003.01-.005.004-.002c.002-.003.006-.004.009-.007l.004-.001c.003-.003.007-.004.01-.006l.004-.003.01-.004.004-.002c.004-.003.008-.004.01-.007l.004-.002.009-.005.004-.003.01-.004c.003-.001.004-.002.005-.004.003-.001.007-.002.01-.005l.004-.002c.003-.002.007-.003.01-.006 0 0 .002 0 .003-.002l.01-.005.004-.003c.003-.001.007-.002.01-.005.002 0 .003-.001.004-.003.003 0 .007-.002.01-.005.002 0 .003 0 .004-.002l.01-.005c0-.002.002-.002.003-.003l.01-.005c.002 0 .003-.001.004-.003.003 0 .007-.002.01-.005l.004-.002.01-.005c.002-.002.003-.003.005-.003a.02.02 0 0 1 .008-.005l.004-.003c.004 0 .007-.004.01-.005l.004-.002.01-.005c.002-.002.003-.003.005-.003l.01-.005c.001-.001.002-.003.004-.003.003-.002.005-.004.009-.005l.003-.002.01-.006.005-.002.01-.005.004-.004.01-.005.004-.002.009-.005.004-.002.01-.007.004-.002.01-.005.004-.003.01-.004.004-.002c.002-.003.006-.004.009-.007l.005-.002.009-.005.004-.003.01-.005.005-.003c.003 0 .007-.002.01-.005.002 0 .002-.001.003-.002l.009-.005.004-.003.01-.005.005-.003c.003-.001.007-.002.01-.005l.004-.002c.003-.002.007-.003.01-.006 0 0 .002 0 .003-.002l.01-.005.004-.003.01-.005.004-.002.01-.006.004-.002.01-.005c0-.002.002-.003.003-.003a.026.026 0 0 1 .01-.005l.004-.003c.003 0 .007-.003.01-.005l.004-.002.01-.005c.002-.002.003-.003.005-.003.002-.003.006-.004.009-.006l.003-.003.01-.004.005-.002c.002-.003.006-.004.01-.005.001-.002.002-.003.004-.003a.038.038 0 0 1 .01-.005l.004-.004.009-.005.004-.001.01-.006.004-.002.01-.007.004-.002.01-.005.004-.003c.002-.001.006-.002.009-.005l.004-.002c.004-.002.007-.003.01-.006l.004-.002.01-.005.004-.003.01-.005.004-.001.009-.007c.001 0 .003 0 .005-.002l.01-.005c0-.002.002-.002.003-.003l.01-.005.005-.003c.003 0 .007-.002.01-.005l.003-.002.01-.005.004-.003.01-.005.004-.003.01-.005.004-.002.01-.006.003-.002.01-.005.004-.003.01-.005.004-.004.01-.004c.002 0 .003 0 .005-.002.002-.003.006-.004.009-.005 0-.002.002-.003.003-.003l.01-.006.004-.002a.026.026 0 0 1 .01-.005l.005-.002.01-.005c.001-.002.002-.003.004-.003l.009-.006.003-.003.01-.005c.002 0 .003-.001.005-.003l.01-.003c.001-.002.002-.003.004-.003l.01-.006.004-.003.009-.005.004-.003.01-.004.004-.002.01-.006.004-.003.01-.005.004-.003c.004-.001.006-.004.009-.005l.005-.002.009-.006c.001 0 .003 0 .004-.002a.026.026 0 0 0 .01-.005c.001-.002.004-.002.005-.003l.01-.005.003-.003c.003-.002.006-.002.009-.005.001 0 .003 0 .005-.002l.01-.005c0-.002.002-.002.004-.003l.01-.005.004-.003.01-.005.003-.002.01-.005.004-.003a.026.026 0 0 1 .01-.005l.004-.003.01-.006c.002 0 .003-.001.004-.003a.088.088 0 0 1 .01-.003l.003-.003c.003-.003.007-.004.01-.005l.004-.003.01-.006.005-.001c.002-.003.006-.004.01-.007l.004-.001.01-.005c0-.002.001-.003.002-.003l.01-.006c.002 0 .003-.002.005-.003l.01-.005.004-.002a.038.038 0 0 0 .01-.006l.004-.002.009-.005.004-.003.01-.005.004-.003c.004 0 .007-.003.01-.005l.004-.002.01-.005.004-.003.009-.005.004-.003.01-.005.004-.002.01-.005.004-.003.01-.005.004-.003c.004-.001.006-.004.009-.005l.005-.002c.003-.003.007-.004.01-.006 0 0 .002 0 .003-.002l.01-.005c.001-.002.003-.003.005-.003l.01-.005.003-.002.01-.007.004-.001.01-.005.004-.003.01-.005.004-.003c.003-.002.007-.003.01-.006l.005-.001c0-.003.005-.004.007-.005l.005-.003c.003-.003.007-.004.01-.005l.004-.003c.003-.002.007-.003.01-.006.002 0 .003-.001.005-.003l.01-.005.002-.001a.026.026 0 0 1 .01-.005l.004-.004a.038.038 0 0 0 .01-.005c.002 0 .003-.001.005-.003l.01-.005.004-.002a.038.038 0 0 0 .01-.006h.003l.01-.007.004-.003.01-.005.004-.002.01-.006c.001 0 .003 0 .004-.002l.009-.005.004-.003a.038.038 0 0 0 .01-.005l.004-.003.01-.005.004-.002.01-.005.004-.003a.028.028 0 0 0 .009-.005l.004-.003.01-.005.005-.002c.003-.003.007-.004.01-.005 0-.002.002-.002.003-.003l.01-.005c.002-.001.003-.003.005-.003l.008-.005.005-.002c.003-.003.007-.004.01-.006l.003-.002.01-.005.005-.003.01-.005.004-.002.008-.007c.003 0 .004-.001.005-.002l.01-.004.004-.003.01-.005c.002-.001.003-.003.005-.003l.01-.006.004-.003.009-.005h.003l.01-.007c.002 0 .003-.002.005-.003l.01-.005.004-.003.01-.005.002-.002.01-.005c.002 0 .003-.002.005-.003l.01-.005.004-.003.01-.005.004-.002.01-.005.003-.003.01-.005.004-.003.01-.005.004-.002.01-.006.004-.002.01-.005.003-.003.01-.005.004-.003.01-.005.004-.002c.004-.003.008-.004.01-.007h.004l.009-.006.004-.003.01-.005.005-.002.01-.007.003-.002a.088.088 0 0 0 .01-.004c.002-.001.003-.003.005-.003l.008-.005.004-.002c.004-.003.008-.004.01-.007l.005-.002.01-.004c.002-.001.002-.003.004-.003l.01-.006c.002 0 .003-.001.005-.003l.009-.005.003-.002c.003-.002.007-.003.01-.006l.004-.002.01-.005c.002 0 .003-.002.005-.003l.01-.005.004-.002c.001-.002.005-.003.009-.006l.004-.002.01-.005.004-.003.01-.005.004-.003c.004 0 .006-.003.01-.005l.004-.002.009-.005c.001-.002.002-.003.004-.003l.01-.005.004-.003c.004 0 .006-.003.01-.005l.004-.002.01-.005.003-.003.01-.005.004-.003.01-.005.004-.002.01-.006.004-.002c.004-.003.008-.004.01-.007h.003a.038.038 0 0 1 .01-.006l.004-.002.01-.006.004-.002c.004-.003.008-.004.01-.007.002 0 .003 0 .004-.002l.01-.004.003-.003.01-.005.005-.002.01-.007s.002 0 .003-.002l.01-.005.006-.002c.002-.002.006-.003.007-.006.003 0 .004-.001.005-.003.003 0 .007-.002.01-.005l.004-.002.01-.005.005-.003.009-.005c.002 0 .003-.001.005-.003a.073.073 0 0 0 .009-.005l.003-.002c.003-.002.007-.003.01-.006.002 0 .003 0 .005-.002l.01-.005.004-.003.01-.005.004-.002.009-.006.004-.002c.002-.003.006-.004.01-.005.001-.002.002-.003.004-.003l.01-.005.004-.003c.004 0 .006-.003.01-.005l.004-.002.009-.005c.001-.002.002-.003.004-.003a.038.038 0 0 1 .01-.005l.004-.003c.004 0 .006-.003.01-.005l.004-.002.01-.005.004-.003.009-.006.004-.002.01-.005.004-.002.01-.006.004-.003.01-.005c.002 0 .002-.002.003-.003l.01-.004.005-.002.01-.007.003-.001c.004-.003.008-.004.01-.007.002 0 .003 0 .004-.002a.026.026 0 0 0 .01-.005c0-.002.002-.002.004-.002.003-.002.007-.003.01-.006a.01.01 0 0 0 .004-.003c.003 0 .007-.002.01-.005 0 0 .002 0 .003-.002a.026.026 0 0 0 .01-.005l.006-.003c.002-.002.006-.002.007-.005.003 0 .004-.001.005-.003.003 0 .007-.002.01-.005l.005-.002.01-.005.004-.003.01-.005.004-.003c.002 0 .005-.004.009-.005l.004-.002.01-.005c.001-.002.002-.003.004-.003.002-.003.006-.004.01-.005.001-.001.002-.003.004-.003l.01-.005.004-.002.009-.006.004-.002.01-.005c.001-.002.002-.003.004-.003a.038.038 0 0 1 .01-.005l.004-.003a.038.038 0 0 1 .01-.005l.004-.002a.02.02 0 0 1 .009-.005l.004-.003.01-.006.004-.003.01-.004.004-.002a.038.038 0 0 1 .01-.005l.004-.004.01-.005.003-.003.01-.004.004-.002c.004-.003.008-.004.01-.007l.004-.001.01-.006c.002 0 .003-.002.004-.003l.01-.005.004-.003c.003-.001.007-.002.01-.005l.003-.001c.004-.003.008-.004.01-.007.002 0 .004 0 .006-.002l.009-.005c0-.002 0-.002.003-.003l.01-.005.004-.002c.003-.002.007-.003.01-.006l.005-.002.009-.005c.002-.002.003-.003.005-.003l.009-.005.003-.003c.003 0 .007-.003.01-.005l.005-.002a.026.026 0 0 1 .01-.005c.001-.002.002-.003.004-.003.002-.003.006-.004.01-.005l.004-.003.009-.005.004-.002c.002-.003.006-.004.01-.005.001-.002.002-.003.004-.003l.01-.005.004-.003.01-.006.004-.001.009-.006.004-.002.01-.007h.004l.01-.007.004-.003.01-.004.004-.002.009-.007h.004l.01-.007.004-.003.01-.005.004-.001c.004-.003.008-.004.01-.007.002 0 .003 0 .004-.002l.01-.005.003-.003.01-.005.005-.003c.003 0 .007-.002.01-.005l.003-.002a.026.026 0 0 0 .01-.005l.004-.003.01-.005.003-.003.01-.005.006-.002.008-.006.006-.002.01-.005.002-.003.01-.005.003-.002.012-.006.004-.002c.002-.003.006-.004.009-.005.002-.002.003-.003.005-.003l.009-.005c.001-.001.002-.003.004-.003a.026.026 0 0 1 .01-.005l.004-.002.01-.005c.001-.002.002-.003.004-.003a.026.026 0 0 1 .01-.005l.004-.003.009-.006.004-.001.01-.005.004-.003.01-.006.004-.002.01-.006.004-.003.009-.004.004-.002.01-.006.004-.003.01-.005.004-.003a.038.038 0 0 0 .01-.005l.004-.002.01-.006s.002 0 .003-.002l.01-.005.004-.003.01-.005.004-.003c.004-.002.008-.002.01-.005.002 0 .003 0 .004-.002l.01-.005c0-.002.002-.002.003-.003l.01-.005c.002-.001.003-.003.005-.003l.01-.005.003-.002.01-.005.004-.003c.003-.003.007-.004.01-.005l.003-.003.01-.005.006-.002.009-.005.005-.003c.002-.003.006-.004.009-.005.002-.001.002-.003.004-.003l.01-.005c.001-.001.001-.002.004-.002.002-.003.006-.004.01-.006l.004-.002a.026.026 0 0 1 .01-.005l.004-.003.01-.005c0-.001.001-.003.003-.003l.01-.006.004-.002c.002-.002.006-.003.01-.004l.004-.003.01-.006.004-.002.009-.006.004-.003c.004 0 .006-.003.01-.003 3.149-1.822 5.03-5.08 5.03-8.718 0-6.543-3.52-12.638-9.185-15.908"/>
        <path fill="#BCBACE" d="M358.316 114.935l-.88-.507v4.068a14.926 14.926 0 0 1 6.577 12.347 6.516 6.516 0 0 1-3.287 5.699 6.587 6.587 0 0 1-3.29.893v3.493c1.73-.002 3.46-.457 5.035-1.368 3.15-1.82 5.03-5.078 5.03-8.717 0-6.542-3.52-12.637-9.185-15.908"/>
        <path fill="#57438E" d="M126.57 81.422L265.715 1.714c2.5-1.433 5.745-2.115 8.553-1.468 3.942.91 7.641 2.149 7.632 5.601l.21 129.332-12.24 7.233c4.004 1.95 126.145 61.398 126.347 61.544l.295 4.99a6.02 6.02 0 0 1-3.002 5.217c-20.79 12.042-142.582 82.449-142.582 82.449a12.945 12.945 0 0 1-12.952 0l-115.758-66.91a3.908 3.908 0 0 1-1.954-3.38l-.201-133.703a12.943 12.943 0 0 1 6.509-11.197"/>
        <path fill="#381E60" d="M124.162 225.884l158.07-90.19.326-129.048c.01-3.728-4.018-6.07-7.252-4.216L129.539 85.932a10.229 10.229 0 0 0-5.144 8.85l-.233 131.102z"/>
        <path fill="#13192B" d="M276.054 9.922L131.343 92.986l-.303 121.487 145.014-83.244z"/>
        <path fill="#FFF9FF" d="M124.252 225.873L282.24 134.76l111.73 64.576c3.227 1.865 3.227 6.524 0 8.389l-145.45 84.052a10.225 10.225 0 0 1-10.236 0l-114.03-65.905z"/>
        <path fill="#57438E" d="M167.979 228.676l-7.867 4.517c-3.18-1.799-4.77-2.698-7.952-4.495 3.146-1.808 4.719-2.712 7.866-4.518 3.181 1.799 4.772 2.699 7.953 4.496M179.589 222.01l-7.866 4.516-7.952-4.495 7.865-4.518 7.953 4.496M191.2 215.341l-7.867 4.517-7.952-4.494 7.866-4.518 7.953 4.495M202.812 208.674l-7.867 4.517-7.953-4.495c3.147-1.808 4.72-2.712 7.867-4.518 3.18 1.799 4.772 2.698 7.953 4.496M214.423 202.006l-7.867 4.517-7.953-4.494c3.148-1.809 4.721-2.711 7.867-4.52 3.18 1.8 4.772 2.7 7.953 4.497M226.034 195.338c-3.147 1.808-4.72 2.71-7.866 4.516l-7.953-4.493c3.146-1.808 4.72-2.712 7.867-4.518l7.952 4.495M237.646 188.67l-7.867 4.518c-3.18-1.8-4.771-2.698-7.952-4.495 3.146-1.808 4.72-2.712 7.867-4.518l7.952 4.496M249.258 182.003l-7.867 4.516c-3.18-1.797-4.772-2.696-7.952-4.495l7.866-4.517 7.953 4.496M260.869 175.335l-7.867 4.516-7.952-4.493 7.866-4.518 7.953 4.495M272.48 168.668l-7.867 4.516-7.952-4.495c3.147-1.807 4.72-2.711 7.866-4.516l7.953 4.495M284.09 162l-7.865 4.517-7.953-4.495 7.866-4.517L284.09 162M295.702 155.333l-7.867 4.517c-3.18-1.798-4.77-2.698-7.953-4.495 3.146-1.808 4.72-2.71 7.867-4.517l7.953 4.495M179.141 234.986l-7.865 4.517-7.954-4.495 7.865-4.518 7.954 4.496M190.752 228.32c-3.146 1.806-4.72 2.708-7.867 4.516-3.18-1.799-4.772-2.697-7.953-4.496l7.866-4.517c3.18 1.799 4.773 2.698 7.954 4.496M202.363 221.651l-7.867 4.517c-3.18-1.798-4.772-2.696-7.952-4.495 3.146-1.808 4.719-2.712 7.865-4.518l7.954 4.496M213.974 214.984l-7.867 4.517c-3.182-1.799-4.772-2.698-7.954-4.495 3.148-1.808 4.72-2.712 7.867-4.518l7.954 4.496M225.586 208.316l-7.867 4.517-7.954-4.495c3.147-1.808 4.72-2.712 7.867-4.518l7.954 4.496M237.197 201.648l-7.866 4.517-7.954-4.494 7.866-4.52 7.954 4.497M248.808 194.981l-7.866 4.517c-3.181-1.799-4.772-2.698-7.954-4.495 3.147-1.81 4.72-2.712 7.866-4.518 3.183 1.799 4.774 2.697 7.954 4.496M260.42 188.313l-7.867 4.516c-3.182-1.797-4.771-2.697-7.952-4.494 3.146-1.808 4.719-2.712 7.865-4.518l7.954 4.496M272.032 181.645l-7.867 4.516c-3.182-1.797-4.772-2.696-7.954-4.495l7.867-4.518c3.182 1.8 4.773 2.7 7.954 4.497M283.642 174.978l-7.865 4.516-7.954-4.494 7.865-4.518 7.954 4.496M295.253 168.31l-7.866 4.518c-3.181-1.8-4.77-2.698-7.953-4.497l7.865-4.516c3.181 1.798 4.774 2.697 7.954 4.496"/>
        <path fill="#57438E" d="M306.863 161.643c-5.274 3.03-7.913 4.544-13.187 7.575l-7.954-4.498 13.189-7.573 7.952 4.496M195.501 238.312c-5.225 3-7.838 4.5-13.063 7.502-3.182-1.8-4.773-2.699-7.954-4.496l13.063-7.503c3.181 1.8 4.772 2.7 7.954 4.497"/>
        <path fill="#57438E" d="M201.914 234.63l-7.865 4.516-7.954-4.495c3.146-1.809 4.719-2.711 7.865-4.518 3.182 1.8 4.773 2.698 7.954 4.496M213.526 227.961l-7.867 4.517c-3.182-1.797-4.772-2.696-7.954-4.495 3.146-1.808 4.72-2.711 7.867-4.518 3.18 1.799 4.772 2.699 7.954 4.496M225.137 221.294l-7.867 4.517-7.954-4.495 7.867-4.518 7.954 4.496M236.748 214.626l-7.866 4.517-7.954-4.495c3.146-1.808 4.72-2.712 7.867-4.518 3.18 1.799 4.771 2.699 7.953 4.496M248.36 207.958l-7.867 4.518-7.953-4.496 7.866-4.518c3.182 1.799 4.772 2.699 7.954 4.496M259.971 201.291l-7.867 4.517c-3.182-1.798-4.771-2.698-7.953-4.495l7.866-4.518 7.954 4.496M271.583 194.623l-7.867 4.517-7.954-4.495c3.148-1.808 4.72-2.712 7.867-4.518l7.954 4.496M283.194 187.955l-7.867 4.518-7.952-4.496 7.865-4.518 7.954 4.496M294.805 181.288l-7.867 4.516c-3.18-1.797-4.77-2.697-7.952-4.494 3.146-1.808 4.72-2.712 7.867-4.518l7.952 4.496M306.416 174.62l-7.867 4.518c-3.18-1.8-4.77-2.698-7.953-4.497l7.866-4.516 7.954 4.496M318.026 167.954l-7.865 4.515-7.954-4.495 7.866-4.516 7.953 4.496M201.466 247.606l-7.865 4.517-7.954-4.495 7.866-4.518 7.953 4.496M213.077 240.94l-7.866 4.516-7.953-4.495 7.865-4.518c3.182 1.8 4.773 2.698 7.954 4.496M224.688 234.273l-7.867 4.515c-3.18-1.797-4.772-2.696-7.952-4.495l7.865-4.518 7.954 4.498M236.3 227.604l-7.867 4.517c-3.182-1.797-4.772-2.697-7.954-4.495l7.867-4.518c3.182 1.8 4.773 2.7 7.954 4.496M247.91 220.936c-3.146 1.808-4.72 2.71-7.866 4.517l-7.953-4.495 7.866-4.518 7.954 4.496M259.522 214.268l-7.866 4.518-7.953-4.495c3.146-1.809 4.72-2.711 7.865-4.518l7.954 4.495M271.134 207.601l-7.867 4.517-7.953-4.495 7.866-4.518 7.954 4.496M282.746 200.933l-7.867 4.517-7.954-4.495c3.148-1.808 4.72-2.712 7.867-4.518l7.954 4.496M294.357 194.266l-7.867 4.517c-3.18-1.799-4.772-2.698-7.952-4.495 3.146-1.809 4.719-2.712 7.866-4.52l7.953 4.498M305.968 187.598l-7.867 4.517c-3.18-1.798-4.77-2.698-7.952-4.495 3.146-1.808 4.719-2.712 7.866-4.518 3.181 1.799 4.772 2.699 7.953 4.496M322.594 178.05l-12.882 7.399c-3.18-1.8-4.773-2.699-7.952-4.496 5.152-2.96 7.728-4.44 12.882-7.399l7.952 4.496"/>
        <path fill="#57438E" d="M329.189 174.264c-3.146 1.807-4.72 2.71-7.867 4.515l-7.952-4.494c3.146-1.808 4.72-2.71 7.866-4.517l7.953 4.496M214.172 254.79c-3.146 1.806-4.72 2.708-7.866 4.515l-7.952-4.494c3.146-1.808 4.719-2.712 7.865-4.518 3.18 1.799 4.772 2.698 7.953 4.496M225.782 248.122l-7.865 4.516-7.953-4.494c3.146-1.809 4.72-2.711 7.866-4.518l7.952 4.496M237.393 241.454l-7.866 4.517-7.953-4.495c3.147-1.808 4.72-2.712 7.867-4.518 3.18 1.799 4.771 2.699 7.952 4.496M307.062 201.448l-65.924 37.856c-3.18-1.799-4.772-2.697-7.953-4.496l65.925-37.857c3.18 1.8 4.771 2.7 7.952 4.497M318.673 194.78l-7.866 4.517-7.953-4.495 7.867-4.518c3.18 1.8 4.771 2.698 7.952 4.497M330.284 188.113l-7.866 4.516c-3.181-1.797-4.77-2.696-7.953-4.493 3.146-1.81 4.72-2.712 7.867-4.518l7.952 4.495M341.894 181.446l-7.866 4.516-7.952-4.495 7.866-4.516 7.952 4.495M253.195 242.54l54.21-31.297 30.976 19.085-54.19 31.31z"/>
        <path fill="#806CBE" d="M253.598 88.705l9.41-5.432v.395l-9.247 5.338zM246.384 93.266l-.183-.29 3.658-2.113-.175.498zM257.9 96.689l5.136-2.966.002.384-4.98 2.875z"/>
        <path fill="#8E90FF" d="M258.058 96.982l5.014 9.305-6.192 3.575-17.277 9.975 8.464-23.91 1.617-4.566.175-.497 1.944-5.491 1.795 3.332.163.301 4.14 7.682z"/>
        <path fill="#87CEFF" d="M246.384 93.266l1.683 2.661-8.464 23.91-6.315-2.393 3.013-7.9.187-.492 4.924-12.916.192-.507 2.36-6.188 2.237 3.535z"/>
        <path fill="#8E90FF" d="M226.844 115.003l6.443 2.441 6.316 2.394-9.267 5.35-16.19 9.347 10.557-16.488 1.834-2.867.152-.236z"/>
        <path fill="#806CBE" d="M223.723 116.805l-.207-.264 12.973-7.49-.189.493-9.456 5.459-.155-.06-.152.237z"/>
        <path fill="#87CEFF" d="M223.723 116.805l.98 1.241-10.558 16.49-2.463-4.797 3.287-7.881.212-.505 4.196-10.057 4.139 5.245z"/>
        <path fill="#806CBE" d="M209.313 125.125l-.153-.295 6.02-3.477-.21.505zM205.171 117.06l-.156-.305 36.59-21.126-.193.508z"/>
        <path fill="#8E90FF" d="M209.313 125.125l2.369 4.614 2.463 4.796-5.881 3.396-15.287 8.827 7.006-22.687 1.51-4.887.15-.482 1.641-5.317 1.73 3.37.158.304 3.988 7.771z"/>
        <path fill="#806CBE" d="M198.2 121.085l-.176-.295 3.618-2.088-.149.482zM193.077 112.51l69.898-40.356.002.396-69.725 40.254zM262.946 61.703l.001.395-117.561 67.875-.452.26v-.394l.45-.262zM144.962 140.29l.453-.262 44.969-25.963-.2.511-44.768 25.848-.453.26zM180.732 131.17l-.214-.272 4.232-2.445-.2.513zM145.024 161.859l.45-.262 8.428-4.865-.255.532-8.17 4.716-.452.262z"/>
        <path fill="#8E90FF" d="M180.732 131.17l1.972 2.51 10.273 13.077-19.89 11.484-16.03 9.253 6.904-16.966 5.148-12.648.21-.516 5.555-13.652 5.644 7.186z"/>
        <path fill="#87CEFF" d="M158.936 146.279l5.025 4.248-6.903 16.967-11.548 6.668 8.137-16.899.255-.53z"/>
        <path fill="#806CBE" d="M144.994 151.408l.451-.262 23.873-13.783-.21.518-23.661 13.661-.452.26z"/>
        <path fill="#87CEFF" d="M198.2 121.085l1.783 2.986-7.006 22.686-10.273-13.077 1.846-4.714.2-.512 5.434-13.878.2-.511 1.434-3.662 1.259 2.108.175.293 4.772 7.986z"/>
        <path fill="#806CBE" d="M262.913 49.93l.001.383-118.013 68.134-.001-.382zM145.353 118.385l.032 11.192-.453.262.002.394.45-.26.03 10.055-.45.26v.397l.452-.262.03 10.723-.452.262.001.395.451-.26.03 10.055-.453.261.002.382.45-.26.037 12.18 118.055-68.16.001.52-118.507 68.42-.16-56.296z"/>
        <path fill="#647DDD" d="M497.477 131.81c-.77.718-35.078 22.34-35.078 22.34s-44.22-25.777-42.696-25.318c1.523.46 77.774 2.979 77.774 2.979"/>
        <path fill="#FCCF4F" d="M497.477 131.81l-41.498-23.938-36.276 20.96 36.462 21.05 10.194-.105z"/>
        <path fill="#B99255" d="M461.179 143.891l5.18 5.886-10.193.105z"/>
        <path fill="#647DDD" d="M166.708 376.682c-.769.718-35.08 22.34-35.08 22.34s-44.219-25.777-42.695-25.317c1.524.458 77.775 2.977 77.775 2.977"/>
        <path fill="#FCCF4F" d="M166.708 376.682l-41.499-23.937-36.276 20.96 36.462 21.05 10.194-.105z"/>
        <path fill="#B99255" d="M130.409 388.764l5.18 5.885-10.193.106z"/>
    </g>
</svg>
