<?xml version="1.0"?>
<svg xmlns="http://www.w3.org/2000/svg" xmlns:xlink="http://www.w3.org/1999/xlink" version="1.1" id="Capa_1" x="0px" y="0px" viewBox="0 0 512.001 512.001" style="enable-background:new 0 0 512.001 512.001;" xml:space="preserve" width="512px" height="512px" class=""><g><g>
	<g>
		<path d="M301,62v60H91V62H0v450h392V62H301z M146.605,426.395l-21.211,21.211L106,428.211l-19.395,19.395l-21.211-21.211    L84.789,407l-19.395-19.395l21.211-21.211L106,385.789l19.395-19.395l21.211,21.211L127.211,407L146.605,426.395z M106,338.211    l-40.605-40.605l21.211-21.211L106,295.789l49.395-49.395l21.211,21.211L106,338.211z M106,248.211l-40.605-40.605l21.211-21.211    L106,205.789l49.395-49.395l21.211,21.211L106,248.211z M331,452H211v-30h120V452z M331,392h-60v-30h60V392z M331,332H211v-30h120    V332z M331,272h-60v-30h60V272z M331,212H211v-30h120V212z" data-original="#000000" class="active-path" data-old_color="#1f9aff" fill="#1f9aff"/>
	</g>
</g><g>
	<g>
		<g>
			<polygon points="422.001,370.789 422.001,370.789 422,370.789    " data-original="#000000" class="active-path" data-old_color="#1f9aff" fill="#1f9aff"/>
			<path d="M422.001,211v159.788l4.394-4.394c22.383-22.383,58.828-22.383,81.211,0l4.395,4.395V211H422.001z" data-original="#000000" class="active-path" data-old_color="#1f9aff" fill="#1f9aff"/>
		</g>
	</g>
</g><g>
	<g>
		<path d="M467,90c-24.814,0-45,20.186-45,45v46h90v-46C512,110.186,491.814,90,467,90z" data-original="#000000" class="active-path" data-old_color="#1f9aff" fill="#1f9aff"/>
	</g>
</g><g>
	<g>
		<path d="M486.394,387.605c-10.693-10.693-28.095-10.693-38.789,0l-16.553,16.553L467,512l36.921-106.868L486.394,387.605z" data-original="#000000" class="active-path" data-old_color="#1f9aff" fill="#1f9aff"/>
	</g>
</g><g>
	<g>
		<path d="M226,31c0-16.569-13.431-31-30-31c-16.569,0-30,14.431-30,31h-45v61h150V31H226z" data-original="#000000" class="active-path" data-old_color="#1f9aff" fill="#1f9aff"/>
	</g>
</g></g> </svg>
