<svg xmlns="http://www.w3.org/2000/svg" xmlns:xlink="http://www.w3.org/1999/xlink" width="314" height="250" viewBox="0 0 314 250">
    <defs>
        <path id="a" d="M106.62 79.83c-23.724 42.226-34.4 22.073-67.021 12.475C9.53 83.46 1.132 176.53 0 191.157h313.88c-2.628-16.126-6.833-34.716-13.313-47.027-13.642-25.912-25.503-11.516-56.938 5.759-31.436 17.275-20.76-114.207-56.939-142.04-6.605-5.08-12.679-7.315-18.335-7.316C143.026.53 126.013 45.31 106.62 79.83"/>
        <linearGradient id="b" x1="50.079%" x2="49.912%" y1="166.529%" y2="25.59%">
            <stop offset="0%" stop-color="#00ACC1"/>
            <stop offset="100%" stop-color="#90F2BF"/>
        </linearGradient>
        <path id="d" d="M.52 3.162a3.154 3.154 0 1 0 6.308 0 3.154 3.154 0 0 0-6.308 0"/>
        <linearGradient id="e" x1="-.001%" x2="99.999%" y1="50%" y2="50%">
            <stop offset="0%" stop-color="#1AE4FF"/>
            <stop offset="100%" stop-color="#E9EDED"/>
        </linearGradient>
        <path id="g" d="M.125 1.848a1.84 1.84 0 1 0 3.68.001 1.84 1.84 0 0 0-3.68-.001"/>
        <linearGradient id="h" x1="-.002%" x2="99.992%" y1="49.996%" y2="49.996%">
            <stop offset="0%" stop-color="#1AE4FF"/>
            <stop offset="100%" stop-color="#E9EDED"/>
        </linearGradient>
        <path id="j" d="M.125 1.979a1.84 1.84 0 1 0 3.68.001 1.84 1.84 0 0 0-3.68-.001"/>
        <linearGradient id="k" x1="-.002%" x2="99.991%" y1="49.999%" y2="49.999%">
            <stop offset="0%" stop-color="#1AE4FF"/>
            <stop offset="100%" stop-color="#E9EDED"/>
        </linearGradient>
        <path id="m" d="M.65 2.374a1.84 1.84 0 1 0 3.681 0 1.84 1.84 0 0 0-3.68 0"/>
        <linearGradient id="n" x1=".013%" x2="100.004%" y1="50.01%" y2="50.01%">
            <stop offset="0%" stop-color="#1AE4FF"/>
            <stop offset="100%" stop-color="#E9EDED"/>
        </linearGradient>
        <path id="p" d="M.389 2.374a1.84 1.84 0 1 0 3.68.001 1.84 1.84 0 0 0-3.68-.001"/>
        <linearGradient id="q" x1="-.017%" x2="99.998%" y1="49.989%" y2="49.989%">
            <stop offset="0%" stop-color="#1AE4FF"/>
            <stop offset="100%" stop-color="#E9EDED"/>
        </linearGradient>
        <path id="s" d="M5.026.552A4.816 4.816 0 0 0 .209 5.367v17.571a7.034 7.034 0 0 0 7.032 7.034H152.79a7.033 7.033 0 0 0 7.033-7.034V5.367a4.815 4.815 0 0 0-4.816-4.815H5.026z"/>
        <linearGradient id="t" x1="55.571%" x2="43.712%" y1="254.697%" y2="-188.508%">
            <stop offset="0%" stop-color="#3B0AFF"/>
            <stop offset="100%" stop-color="#B84FFF"/>
        </linearGradient>
        <path id="v" d="M0 249.211h313.88V.571H0z"/>
        <path id="x" d="M5.125.003A4.815 4.815 0 0 0 .308 4.82v12.843a7.032 7.032 0 0 0 7.033 7.031H152.89a7.032 7.032 0 0 0 7.033-7.031V4.819a4.816 4.816 0 0 0-4.816-4.816H5.125z"/>
        <linearGradient id="y" x1="50.121%" x2="49.462%" y1="-6.8%" y2="278.546%">
            <stop offset="0%" stop-color="#FD9300"/>
            <stop offset="100%" stop-color="#FDC800"/>
        </linearGradient>
        <path id="A" d="M0 249.211h313.88V.571H0z"/>
        <path id="C" d="M4.55.4A4.204 4.204 0 0 0 .346 4.602v26.908a4.204 4.204 0 0 0 4.204 4.204h153.078a2.33 2.33 0 1 0 0-4.662H19.878a2.331 2.331 0 0 1-2.331-2.332V7.394a2.33 2.33 0 0 1 2.33-2.332h137.75a2.331 2.331 0 0 0 0-4.663H4.55z"/>
        <linearGradient id="D" x1="51.424%" x2="47.965%" y1="133.412%" y2="-75.382%">
            <stop offset="0%" stop-color="#0067FF"/>
            <stop offset="100%" stop-color="#36FFFF"/>
        </linearGradient>
        <path id="F" d="M0 249.211h313.88V.571H0z"/>
        <path id="H" d="M.65.376v160.669h98.63a6.74 6.74 0 0 0 6.741-6.74V7.117a6.74 6.74 0 0 0-6.74-6.74H.65z"/>
        <linearGradient id="I" x1="80.498%" x2="40.082%" y1="193.936%" y2="5.776%">
            <stop offset="0%" stop-color="#00ACC1"/>
            <stop offset="100%" stop-color="#4DE4AC"/>
        </linearGradient>
        <path id="K" d="M7.097.376a6.74 6.74 0 0 0-6.74 6.74v147.19a6.74 6.74 0 0 0 6.74 6.739h14.169V.376H7.097z"/>
        <linearGradient id="L" x1="90.506%" x2="40.216%" y1="218.208%" y2="6.815%">
            <stop offset="0%" stop-color="#3B0AFF"/>
            <stop offset="100%" stop-color="#B84FFF"/>
        </linearGradient>
        <path id="N" d="M.638 12.912c-.5 2.106-.56 4.211-.259 6.23 2.388 4.016 6.327 7.104 11.232 8.269 9.447 2.244 18.908-3.469 21.392-12.793-.85-6.602-5.662-12.303-12.522-13.933a16.513 16.513 0 0 0-3.822-.45C9.198.236 2.438 5.337.638 12.913"/>
        <linearGradient id="O" x1="49.286%" x2="59.395%" y1="45.099%" y2="210.54%">
            <stop offset="0%" stop-color="#FFF"/>
            <stop offset="100%" stop-color="#A3A1A1"/>
        </linearGradient>
        <path id="Q" d="M.449 35.328l9.553 2.268 8.305-34.968L8.754.358z"/>
        <linearGradient id="R" x1="51.402%" x2="63.179%" y1="39.759%" y2="-46.368%">
            <stop offset="0%" stop-color="#FD9300"/>
            <stop offset="100%" stop-color="#FDC800"/>
        </linearGradient>
        <path id="T" d="M.519 2.304l13.837 71.535 9-1.74L9.521.563z"/>
        <linearGradient id="U" x1="54.801%" x2="58.255%" y1="16.591%" y2="-7.445%">
            <stop offset="0%" stop-color="#0067FF"/>
            <stop offset="100%" stop-color="#36FFFF"/>
        </linearGradient>
        <path id="W" d="M.624 1.215L14.46 72.751l3.375-.652L4 .563z"/>
        <linearGradient id="X" x1="56.197%" x2="60.779%" y1="17.014%" y2="-7.385%">
            <stop offset="0%" stop-color="#0067FF"/>
            <stop offset="100%" stop-color="#36FFFF"/>
        </linearGradient>
        <path id="Z" d="M.35 1.09l13.838 71.536 4.606-.892L4.957.2z"/>
        <linearGradient id="aa" x1="55.944%" x2="60.22%" y1="16.2%" y2="-8.118%">
            <stop offset="0%" stop-color="#0067FF"/>
            <stop offset="100%" stop-color="#36FFFF"/>
        </linearGradient>
        <path id="ac" d="M1.72 1.03L.771 6.756a.53.53 0 0 0 .435.61L9.21 8.688a.529.529 0 0 0 .608-.435l.946-5.727a.528.528 0 0 0-.435-.608L2.326.595a.529.529 0 0 0-.607.435"/>
        <linearGradient id="ad" x1="54.598%" x2="44.089%" y1="-155.625%" y2="314.533%">
            <stop offset="0%" stop-color="#3B0AFF"/>
            <stop offset="100%" stop-color="#B84FFF"/>
        </linearGradient>
        <path id="af" d="M1.747.861L.744 6.927c-.033.194.1.377.294.41l3.414.564c.195.033.378-.099.412-.293l1.001-6.066a.356.356 0 0 0-.293-.41L2.158.567a.357.357 0 0 0-.41.294"/>
        <linearGradient id="ag" x1="58.782%" x2="38.287%" y1="-172.377%" y2="346.656%">
            <stop offset="0%" stop-color="#3B0AFF"/>
            <stop offset="100%" stop-color="#B84FFF"/>
        </linearGradient>
        <path id="ai" d="M1.571.457L.575 6.48a.381.381 0 0 0 .313.437l3.909.645a.378.378 0 0 0 .436-.312l.996-6.022a.378.378 0 0 0-.313-.435L2.008.145a.38.38 0 0 0-.437.312"/>
        <linearGradient id="aj" x1="58.123%" x2="39.557%" y1="-174.473%" y2="338.799%">
            <stop offset="0%" stop-color="#3B0AFF"/>
            <stop offset="100%" stop-color="#B84FFF"/>
        </linearGradient>
        <path id="al" d="M.483 72.151l9.045 1.496L21.416 1.762 12.37.267z"/>
        <linearGradient id="am" x1="50.15%" x2="53.918%" y1="48.01%" y2="-2.144%">
            <stop offset="0%" stop-color="#FD3400"/>
            <stop offset="100%" stop-color="#FDC800"/>
        </linearGradient>
        <path id="ao" d="M.483 72.151l3.392.561L15.763.828 12.37.267z"/>
        <linearGradient id="ap" x1="50.149%" x2="55.31%" y1="48.546%" y2="-2.256%">
            <stop offset="0%" stop-color="#FD3400"/>
            <stop offset="100%" stop-color="#FDC800"/>
        </linearGradient>
        <path id="ar" d="M.324 72.517l4.63.765L16.841 1.397 12.212.63z"/>
        <linearGradient id="as" x1="50.193%" x2="54.968%" y1="47.99%" y2="-2.667%">
            <stop offset="0%" stop-color="#FD3400"/>
            <stop offset="100%" stop-color="#FDC800"/>
        </linearGradient>
        <path id="au" d="M.782.557l3.171 69.307a7.209 7.209 0 0 0 7.2 6.878h37.9a7.207 7.207 0 0 0 7.198-6.878L59.423.557H.783z"/>
        <linearGradient id="av" x1="76.855%" x2="26.646%" y1="190.339%" y2="-110.548%">
            <stop offset="0%" stop-color="#3B0AFF"/>
            <stop offset="100%" stop-color="#B84FFF"/>
        </linearGradient>
        <path id="ax" d="M.592.557l2.592 56.651a7.208 7.208 0 0 0 7.2 6.878h27.204L40.495.556H.592z"/>
        <linearGradient id="ay" x1="-20.674%" x2="83.417%" y1="322.334%" y2="-100.565%">
            <stop offset="0%" stop-color="#3B0AFF"/>
            <stop offset="100%" stop-color="#E260FF"/>
        </linearGradient>
        <path id="aA" d="M.356.78h4.29v5.53H.356z"/>
        <path id="aC" d="M0 249.211h313.88V.571H0z"/>
    </defs>
    <g fill="none" fill-rule="evenodd">
        <g transform="translate(0 53.057)">
            <mask id="c" fill="#fff">
                <use xlink:href="#a"/>
            </mask>
            <path fill="url(#b)" d="M106.62 79.83c-23.724 42.226-34.4 22.073-67.021 12.475C9.53 83.46 1.132 176.53 0 191.157h313.88c-2.628-16.126-6.833-34.716-13.313-47.027-13.642-25.912-25.503-11.516-56.938 5.759-31.436 17.275-20.76-114.207-56.939-142.04-6.605-5.08-12.679-7.315-18.335-7.316C143.026.53 126.013 45.31 106.62 79.83" mask="url(#c)"/>
        </g>
        <path fill="#FFB300" d="M155.094 78.827h6.44V64.632h-6.44z"/>
        <path fill="#FFA000" d="M150.493 80.93h16.299v-4.206h-16.3z"/>
        <path fill="#FFB300" d="M154.83 80.93h7.624v-4.206h-7.624z"/>
        <path fill="#FFA000" d="M141.95 83.953h33.385V80.93H141.95z"/>
        <path fill="#FFEF80" d="M150.835 83.953h15.616V80.93h-15.616z"/>
        <path fill="#FF7D21" d="M163.635 63.978a5.944 5.944 0 0 0 .374-.688c.018-.04.04-.08.058-.12a5.74 5.74 0 0 0 .242-.671c.017-.056.029-.113.044-.169.048-.183.087-.369.118-.558.011-.069.023-.137.032-.207.007-.057.017-.113.023-.17h.689v-1.493H152.07v1.492h.689a5.912 5.912 0 0 0 8.665 4.641l.001.001.007-.005c.213-.113.415-.242.61-.38.046-.032.09-.066.133-.1.154-.114.301-.236.443-.364.04-.037.082-.074.121-.112a5.82 5.82 0 0 0 .484-.52c.016-.019.03-.04.044-.06.131-.165.253-.338.367-.517"/>
        <path fill="#FFA000" d="M185.72 34.006c0 14.954-12.124 27.076-27.077 27.076-14.954 0-27.077-12.122-27.077-27.076h54.153z"/>
        <path fill="#FFB300" d="M171.392 57.895c8.526-4.56 14.327-13.545 14.327-23.89h-28.654c0 10.345 5.802 19.33 14.327 23.89"/>
        <path fill="#FFCB5D" d="M128.543 36.635h60.2V29.8h-60.2z"/>
        <path fill="#FFEF80" d="M146.55 36.635h24.185V29.8H146.55z"/>
        <path fill="#B84FFF" d="M67.554 124.831a3.155 3.155 0 1 1-6.31 0 3.155 3.155 0 0 1 6.31 0M283.774 175.699a2.628 2.628 0 1 1-5.257 0 2.628 2.628 0 0 1 5.257 0M189.006 67.26a1.578 1.578 0 1 1-.001 3.156 1.578 1.578 0 0 1 0-3.156M79.121 98.28a1.578 1.578 0 1 1 0 3.156 1.578 1.578 0 0 1 0-3.156"/>
        <g transform="translate(259.464 91.7)">
            <mask id="f" fill="#fff">
                <use xlink:href="#d"/>
            </mask>
            <path fill="url(#e)" d="M.52 3.162a3.154 3.154 0 1 0 6.308 0 3.154 3.154 0 0 0-6.308 0" mask="url(#f)"/>
        </g>
        <g transform="translate(213.722 70.407)">
            <mask id="i" fill="#fff">
                <use xlink:href="#g"/>
            </mask>
            <path fill="url(#h)" d="M.125 1.848a1.84 1.84 0 1 0 3.68.001 1.84 1.84 0 0 0-3.68-.001" mask="url(#i)"/>
        </g>
        <g transform="translate(19.716 176.874)">
            <mask id="l" fill="#fff">
                <use xlink:href="#j"/>
            </mask>
            <path fill="url(#k)" d="M.125 1.979a1.84 1.84 0 1 0 3.68.001 1.84 1.84 0 0 0-3.68-.001" mask="url(#l)"/>
        </g>
        <g transform="translate(271.293 202.11)">
            <mask id="o" fill="#fff">
                <use xlink:href="#m"/>
            </mask>
            <path fill="url(#n)" d="M.65 2.374a1.84 1.84 0 1 0 3.681 0 1.84 1.84 0 0 0-3.68 0" mask="url(#o)"/>
        </g>
        <g transform="translate(82.019 134.287)">
            <mask id="r" fill="#fff">
                <use xlink:href="#p"/>
            </mask>
            <path fill="url(#q)" d="M.389 2.374a1.84 1.84 0 1 0 3.68.001 1.84 1.84 0 0 0-3.68-.001" mask="url(#r)"/>
        </g>
        <g transform="translate(52.05 154.003)">
            <mask id="u" fill="#fff">
                <use xlink:href="#s"/>
            </mask>
            <path fill="url(#t)" d="M5.026.552A4.816 4.816 0 0 0 .209 5.367v17.571a7.034 7.034 0 0 0 7.032 7.034H152.79a7.033 7.033 0 0 0 7.033-7.034V5.367a4.815 4.815 0 0 0-4.816-4.815H5.026z" mask="url(#u)"/>
        </g>
        <g transform="translate(0 .218)">
            <path fill="#8B39FF" d="M208.204 183.757H55.929a3.67 3.67 0 0 1-3.67-3.67v-4.891h159.613v4.892a3.67 3.67 0 0 1-3.668 3.67"/>
            <mask id="w" fill="#fff">
                <use xlink:href="#v"/>
            </mask>
            <path fill="#FFF5D4" d="M68.542 183.757h6.42v-29.42h-6.42z" mask="url(#w)"/>
            <path fill="#E5D5B9" d="M68.542 183.757h6.42v-8.561h-6.42z" mask="url(#w)"/>
            <path fill="#FFF5D4" d="M183.895 183.757h14.218v-29.42h-14.218z" mask="url(#w)"/>
            <path fill="#E5D5B9" d="M183.895 183.757h14.218v-8.561h-14.218z" mask="url(#w)"/>
            <path fill="#FFF5D4" d="M77.256 183.757h2.37v-29.42h-2.37z" mask="url(#w)"/>
            <path fill="#E5D5B9" d="M77.256 183.757h2.37v-8.561h-2.37z" mask="url(#w)"/>
            <path fill="#FFF5D4" d="M89.41 171.373h86.229v-7.754H89.41z" mask="url(#w)"/>
        </g>
        <g transform="translate(35.489 183.972)">
            <mask id="z" fill="#fff">
                <use xlink:href="#x"/>
            </mask>
            <path fill="url(#y)" d="M5.125.003A4.815 4.815 0 0 0 .308 4.82v12.843a7.032 7.032 0 0 0 7.033 7.031H152.89a7.032 7.032 0 0 0 7.033-7.031V4.819a4.816 4.816 0 0 0-4.816-4.816H5.125z" mask="url(#z)"/>
        </g>
        <g transform="translate(0 .218)">
            <path fill="#FFCB5D" d="M191.741 208.448H39.467a3.67 3.67 0 0 1-3.67-3.67v-3.057H195.41v3.058a3.669 3.669 0 0 1-3.669 3.669"/>
            <mask id="B" fill="#fff">
                <use xlink:href="#A"/>
            </mask>
            <path fill="#FFCB5D" d="M67.598 198.129h99.834v-6.843H67.598z" mask="url(#B)"/>
        </g>
        <g transform="translate(24.448 208.42)">
            <mask id="E" fill="#fff">
                <use xlink:href="#C"/>
            </mask>
            <path fill="url(#D)" d="M4.55.4A4.204 4.204 0 0 0 .346 4.602v26.908a4.204 4.204 0 0 0 4.204 4.204h153.078a2.33 2.33 0 1 0 0-4.662H19.878a2.331 2.331 0 0 1-2.331-2.332V7.394a2.33 2.33 0 0 1 2.33-2.332h137.75a2.331 2.331 0 0 0 0-4.663H4.55z" mask="url(#E)"/>
        </g>
        <g transform="translate(0 .218)">
            <path fill="#FFF" d="M180.127 239.255H38.937a7.721 7.721 0 0 1-7.721-7.721v-10.55a7.72 7.72 0 0 1 7.72-7.72h141.19v25.99z"/>
            <path fill="#F1EEEB" d="M31.215 230.54v.994a7.721 7.721 0 0 0 7.721 7.721h141.19v-8.715H31.216z"/>
            <path fill="#1AB8FF" d="M89.49 243.578h41.269V154.99H89.49z"/>
            <path fill="#1AB8FF" d="M231.04 243.853H120.717a6.74 6.74 0 0 1-6.74-6.74V96.663a6.74 6.74 0 0 1 6.74-6.74H231.04a6.74 6.74 0 0 1 6.74 6.74v140.448a6.74 6.74 0 0 1-6.74 6.74"/>
            <path fill="#F2F8FD" d="M225.371 239.3h-99.535a6.08 6.08 0 0 1-6.082-6.082V100.421a6.081 6.081 0 0 1 6.082-6.081h99.535a6.081 6.081 0 0 1 6.081 6.08v132.798a6.08 6.08 0 0 1-6.08 6.081"/>
            <mask id="G" fill="#fff">
                <use xlink:href="#F"/>
            </mask>
            <path fill="#DEEEE9" d="M189.634 239.3H223.2V94.34h-33.566z" mask="url(#G)"/>
        </g>
        <g transform="translate(112.776 83.025)">
            <mask id="J" fill="#fff">
                <use xlink:href="#H"/>
            </mask>
            <path fill="url(#I)" d="M.65.376v160.669h98.63a6.74 6.74 0 0 0 6.741-6.74V7.117a6.74 6.74 0 0 0-6.74-6.74H.65z" mask="url(#J)"/>
        </g>
        <g transform="translate(94.637 83.025)">
            <mask id="M" fill="#fff">
                <use xlink:href="#K"/>
            </mask>
            <path fill="url(#L)" d="M7.097.376a6.74 6.74 0 0 0-6.74 6.74v147.19a6.74 6.74 0 0 0 6.74 6.739h14.169V.376H7.097z" mask="url(#M)"/>
        </g>
        <path fill="#F2F8FD" d="M197.613 142.414h-65.616a6.19 6.19 0 0 1-6.19-6.19v-5.777a6.19 6.19 0 0 1 6.19-6.19h65.616a6.19 6.19 0 0 1 6.19 6.19v5.777a6.19 6.19 0 0 1-6.19 6.19M183.366 158.921h-38.773a3.658 3.658 0 0 1-3.658-3.657v-3.414a3.657 3.657 0 0 1 3.658-3.658h38.773a3.658 3.658 0 0 1 3.658 3.658v3.414a3.658 3.658 0 0 1-3.658 3.657"/>
        <path fill="#1AB8FF" d="M202.07 174.57l3.171 69.307c.003.066.014.129.018.193h6.798a6.74 6.74 0 0 0 6.74-6.74v-62.76H202.07z"/>
        <path fill="#B0BEC5" d="M258.467 171.57l-6.823-1.62 2.633-11.088 6.824 1.62z"/>
        <path fill="#CFD8DC" d="M258.467 171.57l-3.923-.932 2.633-11.087 3.924.931z"/>
        <path fill="#B0BEC5" d="M253.469 162.266a22.01 22.01 0 0 0 3.67 1.24c1.045.248 2.089.39 3.128.485l.834-3.509-6.825-1.62-.807 3.404z"/>
        <path fill="#1AE5FF" d="M284.223 145.07c-2.82 11.871-14.728 19.208-26.599 16.39-11.87-2.82-19.207-14.729-16.388-26.598 2.82-11.871 14.728-19.209 26.599-16.39 11.87 2.82 19.207 14.729 16.388 26.599"/>
        <path fill="#FFF" d="M278.764 143.774c-2.103 8.856-10.987 14.33-19.842 12.226-8.857-2.103-14.33-10.987-12.227-19.843 2.103-8.855 10.988-14.33 19.843-12.225 8.856 2.102 14.33 10.986 12.226 19.842"/>
        <g transform="translate(246.057 123.246)">
            <mask id="P" fill="#fff">
                <use xlink:href="#N"/>
            </mask>
            <path fill="url(#O)" d="M.638 12.912c-.5 2.106-.56 4.211-.259 6.23 2.388 4.016 6.327 7.104 11.232 8.269 9.447 2.244 18.908-3.469 21.392-12.793-.85-6.602-5.662-12.303-12.522-13.933a16.513 16.513 0 0 0-3.822-.45C9.198.236 2.438 5.337.638 12.913" mask="url(#P)"/>
        </g>
        <g transform="translate(242.902 163.467)">
            <mask id="S" fill="#fff">
                <use xlink:href="#Q"/>
            </mask>
            <path fill="url(#R)" d="M.449 35.328l9.553 2.268 8.305-34.968L8.754.358z" mask="url(#S)"/>
        </g>
        <g>
            <path fill="#FF7D21" d="M252.904 201.063l-2.645-.628 8.306-34.969 2.644.629z"/>
            <path fill="#37474F" d="M219.406 155.554l-4.842.936c-.5.097-.953-.427-.864-.999l1.118-7.203c.05-.324.267-.57.55-.625.283-.055.575.093.743.374l3.724 6.268c.294.497.07 1.152-.43 1.249"/>
            <path fill="#7986CB" d="M235.94 232.592l-7.963 1.54a.53.53 0 0 0-.419.62l1.103 5.699a.528.528 0 0 0 .62.418l7.962-1.54a.528.528 0 0 0 .419-.619l-1.103-5.7a.53.53 0 0 0-.62-.418"/>
            <path fill="#3949AB" d="M236.109 232.56l-3.399.656a.357.357 0 0 0-.282.418l1.167 6.037c.038.194.226.32.42.283l3.397-.657a.358.358 0 0 0 .283-.418l-1.168-6.037a.357.357 0 0 0-.418-.283"/>
            <path fill="#5C6BC0" d="M233.903 232.986l-3.89.753a.38.38 0 0 0-.3.444l1.16 5.992c.039.206.238.34.444.3l3.889-.751a.38.38 0 0 0 .3-.445l-1.158-5.992a.379.379 0 0 0-.445-.3"/>
            <path fill="#ECEFF1" d="M236.747 233.983l-9 1.741-14.75-76.257 9-1.741z"/>
            <path fill="#B0BEC5" d="M236.747 233.983l-2.732.528-14.75-76.257 2.732-.528z"/>
            <path fill="#CFD8DC" d="M234.544 234.409l-4.594.888-14.75-76.257 4.594-.888z"/>
        </g>
        <g transform="translate(212.934 159.524)">
            <mask id="V" fill="#fff">
                <use xlink:href="#T"/>
            </mask>
            <path fill="url(#U)" d="M.519 2.304l13.837 71.535 9-1.74L9.521.563z" mask="url(#V)"/>
        </g>
        <g transform="translate(218.454 159.524)">
            <mask id="Y" fill="#fff">
                <use xlink:href="#W"/>
            </mask>
            <path fill="url(#X)" d="M.624 1.215L14.46 72.751l3.375-.652L4 .563z" mask="url(#Y)"/>
        </g>
        <g transform="translate(215.3 160.312)">
            <mask id="ab" fill="#fff">
                <use xlink:href="#Z"/>
            </mask>
            <path fill="url(#aa)" d="M.35 1.09l13.838 71.536 4.606-.892L4.957.2z" mask="url(#ab)"/>
        </g>
        <g>
            <path fill="#FFCC80" d="M218.612 151.935l-4.635.897-.98 6.634 9-1.74z"/>
            <path fill="#FFA000" d="M217.496 158.596l4.501-.87-3.385-5.791-2.317.449z"/>
            <path fill="#FFB300" d="M217.478 152.154l-2.366.459.087 6.427 4.595-.889z"/>
            <path fill="#37474F" d="M219.43 232.253l4.867.805c.502.083.744.73.463 1.237l-3.552 6.366c-.16.285-.448.441-.733.394-.285-.046-.508-.287-.567-.609l-1.313-7.17c-.103-.57.334-1.106.836-1.023"/>
        </g>
        <g transform="translate(229.495 146.905)">
            <mask id="ae" fill="#fff">
                <use xlink:href="#ac"/>
            </mask>
            <path fill="url(#ad)" d="M1.72 1.03L.771 6.756a.53.53 0 0 0 .435.61L9.21 8.688a.529.529 0 0 0 .608-.435l.946-5.727a.528.528 0 0 0-.435-.608L2.326.595a.529.529 0 0 0-.607.435" mask="url(#ae)"/>
        </g>
        <g transform="translate(229.495 146.905)">
            <mask id="ah" fill="#fff">
                <use xlink:href="#af"/>
            </mask>
            <path fill="url(#ag)" d="M1.747.861L.744 6.927c-.033.194.1.377.294.41l3.414.564c.195.033.378-.099.412-.293l1.001-6.066a.356.356 0 0 0-.293-.41L2.158.567a.357.357 0 0 0-.41.294" mask="url(#ah)"/>
        </g>
        <g transform="translate(231.861 147.694)">
            <mask id="ak" fill="#fff">
                <use xlink:href="#ai"/>
            </mask>
            <path fill="url(#aj)" d="M1.571.457L.575 6.48a.381.381 0 0 0 .313.437l3.909.645a.378.378 0 0 0 .436-.312l.996-6.022a.378.378 0 0 0-.313-.435L2.008.145a.38.38 0 0 0-.437.312" mask="url(#ak)"/>
        </g>
        <g>
            <path fill="#ECEFF1" d="M230.429 152.686l9.045 1.496-12.673 76.63-9.044-1.496z"/>
            <path fill="#B0BEC5" d="M230.429 152.686l2.745.454-12.672 76.63-2.745-.454z"/>
            <path fill="#CFD8DC" d="M232.643 153.052l4.617.763-12.673 76.63-4.616-.763z"/>
        </g>
        <g transform="translate(217.666 154.792)">
            <mask id="an" fill="#fff">
                <use xlink:href="#al"/>
            </mask>
            <path fill="url(#am)" d="M.483 72.151l9.045 1.496L21.416 1.762 12.37.267z" mask="url(#an)"/>
        </g>
        <g transform="translate(217.666 154.792)">
            <mask id="aq" fill="#fff">
                <use xlink:href="#ao"/>
            </mask>
            <path fill="url(#ap)" d="M.483 72.151l3.392.561L15.763.828 12.37.267z" mask="url(#aq)"/>
        </g>
        <g transform="translate(220.032 154.792)">
            <mask id="at" fill="#fff">
                <use xlink:href="#ar"/>
            </mask>
            <path fill="url(#as)" d="M.324 72.517l4.63.765L16.841 1.397 12.212.63z" mask="url(#at)"/>
        </g>
        <g>
            <path fill="#FFCC80" d="M218.918 235.922l4.657.77 3.226-5.88-9.045-1.496z"/>
            <path fill="#FFA000" d="M222.279 230.063l-4.522-.747 1.16 6.606 2.33.385z"/>
            <path fill="#FFB300" d="M220.058 236.11l2.378.393 2.151-6.058-4.616-.763z"/>
        </g>
        <g transform="translate(208.99 167.41)">
            <mask id="aw" fill="#fff">
                <use xlink:href="#au"/>
            </mask>
            <path fill="url(#av)" d="M.782.557l3.171 69.307a7.209 7.209 0 0 0 7.2 6.878h37.9a7.207 7.207 0 0 0 7.198-6.878L59.423.557H.783z" mask="url(#aw)"/>
        </g>
        <g transform="translate(227.918 167.41)">
            <mask id="az" fill="#fff">
                <use xlink:href="#ax"/>
            </mask>
            <path fill="url(#ay)" d="M.592.557l2.592 56.651a7.208 7.208 0 0 0 7.2 6.878h27.204L40.495.556H.592z" mask="url(#az)"/>
        </g>
        <g transform="translate(0 .218)">
            <path fill="#FFB300" d="M57.992 173.51s3.647-1.972 3.943-1.184c.296.789-3.943 2.86-4.436 2.86-.493 0-.197-1.085-.197-1.085l.69-.592zM47.229 181.574s3.89 1.242 3.761 1.739c-.13.496-4.993-.062-5.058-.683-.065-.621.52-1.49.908-1.429.389.063.389.373.389.373"/>
            <path fill="#424242" d="M38.637 158.46s3.418 9.069 5.258 11.698c1.84 2.628 1.84 11.567 1.84 11.567h2.234s.79-9.464-.262-13.013c-1.051-3.549-3.286-10.252-3.286-10.252h-5.784z"/>
            <path fill="#424242" d="M42.467 162.944s2.562.955 5.28 2.432c2.717 1.478 3.979 2.059 4.198 2.444.22.384 3.733 5.91 4.625 6.434.892.524 1.969-.339 1.871-1.234-.098-.894-3.03-6.946-4.166-7.922-1.137-.976-6.702-5.861-8.898-6.136-2.195-.275-3.863 2.978-2.91 3.982"/>
            <path fill="#FF5345" d="M42.157 144.963s2.095.616 3.08 2.773c.986 2.155 2.711 8.871 2.28 12.013-.43 1.91-6.9 1.417-8.748-.37-.247-1.417-1.294-6.715-.185-12.013.247-1.294 1.601-2.403 3.573-2.403"/>
            <path fill="#FFCC80" d="M40.802 138.556s1.879 1.91 1.694 3.88c-.277 1.634-.955 1.757.062 2.835 0 0-.77 1.11-2.218.37 0 0 .677-.801-.493-1.479-.883-.511-2.28-2.218-2.464-3.696-.185-1.479.554-2.095 1.54-2.341.99-.248 1.601.061 1.879.431"/>
            <path fill="#FF5345" d="M40.719 149.01s-3.682 4.393-7.163 5.4c-2.216-.38 4.48-7.248 6.095-7.207 1.617.04 1.068 1.806 1.068 1.806"/>
            <path fill="#FFCC80" d="M39.187 156.372s.384.358.791.223c.408-.135 1.266-.032 1.563.198.299.23-.626.217-.626.217s1.593.23 1.585.384c-.007.154-1.17.591-1.814.53-.645-.061-.986-.664-1.626-.817l.127-.735z"/>
            <path fill="#FF5345" d="M33.78 153.37s3.7 1.287 5.772 3.112l-.407.783s-2.628-.496-4.49-1.571c-1.86-1.075-1.798-2.368-.876-2.324"/>
            <path fill="#FFCC80" d="M54.94 152.454s.546.096.889-.119c.343-.215 1.327-.674 1.439-.488.113.187-.395.473-.395.473s.858-.109 1.022.182c.163.29-.505 1.402-1.042 1.337-.536-.065-1.174-.647-1.504-.712l-.495-.095.086-.578z"/>
            <path fill="#FF5345" d="M42.494 147.807s3.605 4.456 7.07 5.523c2.221-.342-4.354-7.324-5.97-7.311-1.618.013-1.1 1.788-1.1 1.788"/>
            <path fill="#FF5345" d="M48.893 151.784s3.909-.264 6.53.606l-.07.878s-2.612.573-4.744.312c-2.134-.262-2.583-1.475-1.716-1.796"/>
            <path fill="#FF8A65" d="M41.048 140.143s.786 1.247.601 1.478c-.185.23-1.063.37-1.11.185-.045-.185.694-.509.694-.509s-.694-1.432-.185-1.154"/>
            <path fill="#424242" d="M37.603 138.45s2.136-2.97 3.335-1.98c1.199.99 1.615 1.772-.73 2.658-2.345.886-2.136 1.459-1.615 2.45.52.99.938 1.25.52 1.354-.416.104-.611-1.51-1.132-1.407-.522.104.768 1.473.873 1.473.104 0-1.72-.118-2.138-1.682-.416-1.563.157-1.459.157-1.459s-.573-.833.73-1.407"/>
            <path fill="#F76A1E" d="M135.931 200.914s1.585-1.427 3.011.08c1.427 1.505-.713 3.249.951 3.882 1.664.634 2.853.714 2.378 2.694-.476 1.981-1.427 2.853-.951 4.359.475 1.505-1.506 3.09-3.408 2.376-1.901-.712-3.248.08-5.07 1.506-1.823 1.426-4.914-.554-3.963-3.01.95-2.457 2.931-2.14 2.377-4.597-.555-2.457-2.14-4.596-.317-6.419 1.822-1.822 4.992-.871 4.992-.871"/>
            <path fill="#FFA812" d="M143.703 225.486s.402 4.826-.804 6.635c-1.206 1.81-11.259 3.318-11.863 2.413-.603-.905 2.413-1.709 4.624-2.513 2.212-.804 4.324-2.614 3.82-6.032-.502-3.418 4.223-.503 4.223-.503"/>
            <path fill="#FFCC80" d="M135.123 222.212s2.057 3.575 2.166 7.908c.325 3.9-4.874 11.916-4.442 13.649.434 1.625 6.392-5.74 7.692-9.966 1.3-4.224.433-9.858-.434-11.482-.866-1.626-4.982-.11-4.982-.11"/>
            <g transform="translate(130.915 242.902)">
                <mask id="aB" fill="#fff">
                    <use xlink:href="#aA"/>
                </mask>
                <path fill="#F5F5F5" d="M.825.78s-.469.436-.469.704c0 .267.536.67.804 1.306.269.637 1.24 2.212 2.212 2.95.804.603.921.57.921.57l.353-.37S2.132 2.757 2.03 2.656C1.931 2.556.825.78.825.78" mask="url(#aB)"/>
            </g>
            <path fill="#FFCC80" d="M132.611 243.95c.234.704 1.193 1.642 1.803 1.19-.301-.654-.11-1.86-.11-1.86s-.693-.96-1.257-.83c0 0-.67.796-.436 1.5"/>
            <path fill="#F76A1E" d="M134.414 245.14c-.61.452-1.568-.486-1.803-1.19-.168-.507.13-1.058.312-1.328-.562.215-1.338 1.013-1.387 1.384-.052.399.434.75 1 1.83.471.977 2.52 3.26 2.888 3.122.325-.17.435-.695.435-.695.01-1.134-1.144-2.47-1.445-3.123"/>
            <path fill="#F5F5F5" d="M130.4 233.864s-.609.198-.722.44c-.113.243.204.834.179 1.524-.026.691.192 2.529.763 3.607.476.886.596.905.596.905l.474-.186s-.937-3.947-.986-4.08c-.05-.133-.304-2.21-.304-2.21"/>
            <path fill="#FFA812" d="M131.077 234.474c-.083.738.39 1.992 1.134 1.839.002-.72.683-1.734.683-1.734s-.223-1.162-.79-1.281c0 0-.943.439-1.027 1.176"/>
            <path fill="#F76A1E" d="M132.211 236.313c-.744.153-1.218-1.101-1.133-1.839.06-.531.563-.905.841-1.073-.6-.042-1.64.355-1.84.67-.216.341.078.864.135 2.08.016 1.086.913 4.02 1.305 4.05.365-.018.686-.447.686-.447.488-1.024.004-2.721.006-3.441M134.373 218.717s-1.056.845-.952 3.17c.107 2.324-2.218 5.493-4.014 6.444-1.796.951.74 2.43 2.324 2.22 1.586-.213 2.219.105 4.015 2.113 1.797 2.007 3.487-1.162 5.705 0 2.22 1.162 4.544.529 5.812-1.057 1.267-1.585 3.17-1.373 3.38-2.747.211-1.374-3.591-3.17-5.177-5.811-1.584-2.641-1.584-4.226-2.535-4.755-.951-.528-8.558.423-8.558.423"/>
            <path fill="#1E60CF" d="M138.389 209.098s3.358-2.2 6.219-2.571c2.165.058.98 2.089-.598 3.246-2.883 2.113-6.947 1.381-5.621-.675"/>
            <path fill="#1E60CF" d="M137.906 207.659s1.944.201 2.546 1.005c.604.804.604 1.609 1.274 2.614s-.335 1.877.134 3.351c.47 1.474.268 1.542 1.14 2.882.87 1.34 0 1.944-1.073 2.614-1.073.67-6.166.87-7.372-.604-1.206-1.474-.201-1.81.134-2.948.335-1.14.2-3.284 0-5.228-.201-1.944.402-2.882 1.81-3.418 1.407-.536 1.407-.268 1.407-.268"/>
            <path fill="#FFCC80" d="M125.61 213.877s-.566.115-.87-.246c-.305-.362-1.17-.76-1.581-.715-.412.045.463.565.463.565s-1.627-.702-1.709-.553c-.082.148.757 1.228 1.397 1.542.64.313 1.308-.054 1.998.17l.302-.763zM150.783 204.078s.555-.163.655-.626c.1-.461.678-1.218 1.062-1.371.385-.154-.145.716-.145.716s1.11-1.382 1.251-1.289c.142.093-.093 1.44-.512 2.018-.42.576-1.182.563-1.686 1.084l-.625-.532zM136.987 200.773s2.07 2.103 1.866 4.274c-.305 1.798-1.051 1.933.068 3.12 0 0-.849 1.222-2.442.408 0 0 .746-.882-.543-1.629-.972-.563-2.51-2.442-2.714-4.07-.203-1.627.61-2.307 1.696-2.578 1.09-.272 1.764.068 2.07.475"/>
            <path fill="#FF8A65" d="M137.259 202.52s.865 1.373.661 1.628c-.203.255-1.17.407-1.22.204-.052-.204.762-.56.762-.56s-.762-1.578-.203-1.272"/>
            <path fill="#1E60CF" d="M135.158 208.865s-3.35 2.212-4.826 4.692c-.804 2.01 1.53 1.728 3.217.737 3.084-1.81 4.022-5.831 1.61-5.429"/>
            <path fill="#1E60CF" d="M131.004 213.797c-.228 0-4.943-.304-6.008.152-.836.456.914 1.522 2.586 1.75 1.673.227 5.171-.305 6.084-1.597.912-1.293-2.662-.305-2.662-.305M144.965 206.382c.205-.1 4.936-2.412 6.093-2.47.952.041-.125 1.805-1.552 2.708-4.383 2.772-4.738 2.58-6.126 1.822-1.389-.76 1.585-2.06 1.585-2.06"/>
            <path fill="#F76A1E" d="M133.554 199.805s2.852-.951 3.565.634c.714 1.584-2.614 1.426-2.614 2.614 0 1.19 1.584.951.792 2.06-.792 1.11 1.278.972.48 1.992-.796 1.02-3.808-1.515-3.65-3.497.16-1.98-.079-3.09 1.427-3.803"/>
            <path fill="#1AB8FF" d="M182.111 177.784c-.177-2.142-1.268-4.584-1.268-4.584l-.124.015c-.148-.567.08-1.136-.213-1.658-.317-.564-1.338-1.27-1.469-1.187-.13.08.588 1.52.588 1.52s-.517-.766-.536-.391c-.019.375.386 1.14.729 1.397a.68.68 0 0 1 .244.403l-.094.012c-.205 1.76.155 3.94.439 5.28-2.081-1.111-4.792-1.636-6.236-1.85a5.456 5.456 0 0 0-1.225-.685c-.695-.865-.119-1.098.136-2.599.185-1.97-1.694-3.88-1.694-3.88-.021-.028-.047-.055-.072-.082.197-.24.263-.504.076-.783-1.38-.92-3.943.854-3.943.854-1.84 1.512.92 5.06 1.906 4.994a.263.263 0 0 0 .203-.118c.307.324.613.59.875.74.672.389.73.814.662 1.109-.37.146-.693.335-.966.561-1.7-.98-4.572-2.034-6.3-2.208-.467-1.175-1.51-3.553-2.845-5.067l-.06.032a.968.968 0 0 1-.048-.427c.064-.4.101-1.485-.114-1.515-.216-.03-.28.548-.28.548s-.237-.832-.568-.868c-.331-.037-1.093 1.012-.823 1.48.266.462 1.03.817 1.232 1.094l-.121.062s.495 2.629 1.57 4.49c.235.407.48.717.72.951 1.659 1.895 4.776 3.218 6.515 3.844-.83 4.993.115 9.793.348 11.13 0 0-2.834 11.487-3.563 15.238-.73 3.753-1.98 11.361-1.771 11.987.016.051.05.088.08.13-.71.308-3.584 1.607-3.533 2.297.057.787 1.9.7 3.136.18 1.24-.623 1.604-1.046 1.604-1.046s.36.343.642-.042c.28-.384.635-1.158.23-1.378a.79.79 0 0 0-.164-.054c.55-.489 2.908-10.735 3.632-12.49.128-.31.357-.917.646-1.7.352 2.436 2.837 8.805 3.482 9.553.225.261.547.402.887.45-.192.536-1.329 3.776-.765 4.23.615.496 1.81-.91 2.275-2.166.392-1.332.332-1.886.332-1.886s.497-.03.408-.499c-.064-.332-.247-.823-.504-1.027.029-1.78-1.728-8.562-1.875-9.04-.158-.505.365-2.085 1.293-5.672a56.059 56.059 0 0 1 2.062-6.298.96.96 0 0 0 .214-.396c.367-2.67-.824-7.911-1.794-10.752 2.487.48 5.221.592 5.425-.23.27-.37.458-1.029.377-2.003"/>
            <path fill="#FFF" d="M162.682 215.121s-3.75 1.579-3.692 2.366c.058.787 1.9.7 3.137.18 1.24-.623 1.604-1.046 1.604-1.046s.36.342.642-.042c.28-.384.635-1.158.23-1.378-.408-.22-1.921-.08-1.921-.08"/>
            <path fill="#424242" d="M167.778 187.836s-2.835 11.485-3.564 15.237c-.729 3.753-1.98 11.361-1.772 11.987.209.625 1.46.416 1.98.103.521-.312 2.919-10.735 3.648-12.506.73-1.772 4.69-12.925 4.69-13.862 0-.939-3.608-1.917-4.982-.96"/>
            <path fill="#FFF" d="M173.115 210.878s-1.408 3.817-.794 4.313c.614.495 1.81-.91 2.274-2.168.392-1.33.332-1.885.332-1.885s.497-.031.408-.499c-.088-.467-.41-1.255-.85-1.108-.437.148-1.37 1.347-1.37 1.347"/>
            <path fill="#616161" d="M176.437 188.292s-1.26 3.022-2.187 6.609c-.928 3.586-1.45 5.166-1.294 5.672.157.506 2.122 8.1 1.852 9.308-.27 1.208-1.906 1.446-2.61.63-.703-.817-3.602-8.331-3.528-10.124.074-1.792.347-10.658 1.902-12.803 1.552-2.147 5.764-.948 5.865.708"/>
            <path fill="#DB4FFF" d="M171.166 173.42s2.094.616 3.08 2.773c.986 2.156 2.712 8.871 2.28 12.012-.431 1.91-6.9 1.418-8.748-.37-.246-1.416-1.294-6.714-.185-12.012.246-1.294 1.602-2.403 3.573-2.403"/>
            <path fill="#FFCC80" d="M169.811 167.013s1.879 1.91 1.693 3.88c-.276 1.633-.954 1.756.063 2.835 0 0-.77 1.11-2.218.37 0 0 .677-.801-.493-1.48-.883-.51-2.28-2.217-2.464-3.695-.185-1.479.554-2.095 1.54-2.341.99-.248 1.6.061 1.88.431"/>
            <path fill="#DB4FFF" d="M171.586 174.048s5.708.522 8.52 2.809c.95 2.038-8.509.45-9.397-.902-.888-1.351.877-1.907.877-1.907"/>
            <path fill="#FFCC80" d="M178.509 171.11s.074-.519-.269-.777c-.342-.257-.747-1.022-.728-1.397.02-.375.536.392.536.392s-.72-1.44-.588-1.521c.13-.082 1.153.623 1.469 1.187.318.565.017 1.189.255 1.803l-.675.313z"/>
            <path fill="#DB4FFF" d="M179.124 177.265s-1.052-3.774-.734-6.517l.876-.111s1.09 2.441 1.268 4.583c.177 2.142-.92 2.829-1.41 2.045"/>
            <path fill="#FFCC80" d="M159.537 167.484s-.302-.466-.238-.866c.064-.399.1-1.484-.114-1.515-.216-.03-.281.55-.281.55s-.236-.833-.567-.87c-.331-.037-1.093 1.012-.824 1.481.27.469 1.056.828 1.244 1.106l.282.419.498-.305z"/>
            <path fill="#DB4FFF" d="M168.681 177.12s-5.512-1.575-7.848-4.346c-.555-2.178 8.444 1.142 9.064 2.636.621 1.494-1.216 1.71-1.216 1.71"/>
            <path fill="#DB4FFF" d="M162.518 172.787s-1.285-3.701-3.11-5.773l-.783.406s.494 2.629 1.57 4.49c1.075 1.861 2.368 1.8 2.323.877"/>
            <path fill="#FF8A65" d="M170.057 168.6s.785 1.246.6 1.477c-.185.232-1.062.37-1.108.185-.046-.185.692-.508.692-.508s-.692-1.432-.184-1.154"/>
            <path fill="#424242" d="M165.872 167.003s2.563-1.774 3.943-.854c.789 1.183-2.826 2.102-2.826 2.102s1.775 3.681.789 3.746c-.986.067-3.746-3.482-1.906-4.994"/>
            <mask id="aD" fill="#fff">
                <use xlink:href="#aC"/>
            </mask>
            <path fill="#FFB300" d="M152.071 248.693h2.366V98.063h-2.366zM166.266 248.693h2.366V98.063h-2.366z" mask="url(#aD)"/>
            <path fill="#FFB300" d="M153.385 106.737h13.407v-2.103h-13.407zM153.385 115.412h13.407v-2.103h-13.407zM153.385 124.088h13.407v-2.104h-13.407zM153.385 132.763h13.407v-2.104h-13.407zM153.385 141.438h13.407v-2.104h-13.407zM153.385 150.113h13.407v-2.104h-13.407zM153.385 158.788h13.407v-2.103h-13.407zM153.385 167.463h13.407v-2.103h-13.407zM153.385 176.138h13.407v-2.103h-13.407zM153.385 184.813h13.407v-2.102h-13.407zM153.385 193.488h13.407v-2.102h-13.407zM153.385 202.163h13.407v-2.102h-13.407zM153.385 210.838h13.407v-2.102h-13.407zM153.385 219.513h13.407v-2.102h-13.407zM153.385 228.188h13.407v-2.102h-13.407zM153.385 236.864h13.407v-2.103h-13.407z" mask="url(#aD)"/>
            <path fill="#FEC800" d="M201.743 44.474l.507-1.881c.145-.54.912-.54 1.057 0l.507 1.88c.05.19.198.337.386.387l1.882.506c.54.146.54.914 0 1.059l-1.882.506a.547.547 0 0 0-.386.387l-.507 1.881c-.145.54-.912.54-1.057 0l-.507-1.881a.548.548 0 0 0-.386-.387l-1.882-.506c-.54-.145-.54-.913 0-1.059l1.882-.506a.547.547 0 0 0 .386-.386M134.527 67.521l.344-1.275c.098-.367.618-.367.717 0l.344 1.275a.37.37 0 0 0 .261.262l1.276.344c.366.098.366.618 0 .717l-1.276.344a.37.37 0 0 0-.261.261l-.344 1.276c-.099.366-.619.366-.717 0l-.344-1.276a.37.37 0 0 0-.262-.261l-1.275-.344c-.367-.099-.367-.619 0-.717l1.275-.344a.37.37 0 0 0 .262-.262M115.046 22.484l.344-1.275c.099-.367.618-.367.717 0l.343 1.275a.374.374 0 0 0 .263.263l1.275.343c.366.098.366.618 0 .717l-1.275.343a.373.373 0 0 0-.263.262l-.343 1.276c-.099.366-.618.366-.717 0l-.344-1.276a.372.372 0 0 0-.262-.262l-1.276-.343c-.366-.099-.366-.619 0-.717l1.276-.343a.373.373 0 0 0 .262-.263M159.252 1.617l1.965 3.988c.273.553.8.936 1.411 1.025l4.4.641c1.535.225 2.148 2.114 1.035 3.197l-3.185 3.102a1.872 1.872 0 0 0-.54 1.658l.75 4.382c.262 1.531-1.346 2.697-2.72 1.974l-3.934-2.071a1.875 1.875 0 0 0-1.744-.001l-3.936 2.067c-1.374.722-2.98-.446-2.717-1.977l.753-4.381a1.876 1.876 0 0 0-.537-1.659l-3.183-3.105c-1.11-1.085-.496-2.973 1.04-3.195l4.4-.637a1.877 1.877 0 0 0 1.412-1.024l1.97-3.986c.687-1.393 2.673-1.392 3.36.002" mask="url(#aD)"/>
            <path fill="#FE9300" d="M167.027 7.272l-4.4-.642a1.875 1.875 0 0 1-1.41-1.026l-1.965-3.987A1.85 1.85 0 0 0 157.55.573v18.725c.303-.002.607.069.883.215l3.934 2.07c1.374.724 2.982-.442 2.72-1.972l-.75-4.384a1.874 1.874 0 0 1 .54-1.657l3.185-3.102c1.114-1.084.5-2.972-1.036-3.196" mask="url(#aD)"/>
        </g>
    </g>
</svg>
