<svg xmlns="http://www.w3.org/2000/svg" xmlns:xlink="http://www.w3.org/1999/xlink" width="328" height="200" viewBox="0 0 328 200">
    <defs>
        <path id="a" d="M0 199.225h327.947V.25H0z"/>
        <path id="c" d="M.705 100.62c0 12.033 2.118 23.57 5.997 34.264h188.969c3.879-10.693 5.996-22.231 5.996-34.264C201.667 45.126 156.68.14 101.186.14 45.692.14.706 45.126.706 100.62"/>
        <linearGradient id="d" x1="52.955%" x2="46.803%" y1="-25.623%" y2="182.967%">
            <stop offset="0%" stop-color="#3B0AFF"/>
            <stop offset="100%" stop-color="#B84FFF"/>
        </linearGradient>
        <path id="f" d="M21.882 16.498c-4.744 8.444-6.879 4.414-13.402 2.494C2.467 17.223.788 35.835.56 38.76h62.767c-.526-3.225-1.367-6.943-2.662-9.403-2.728-5.183-5.1-2.304-11.386 1.15-6.286 3.455-4.151-22.837-11.386-28.403C36.573 1.088 35.359.64 34.227.64c-5.064 0-8.467 8.954-12.345 15.857"/>
        <linearGradient id="g" x1="58.4%" x2="44.814%" y1="264.719%" y2="-1.687%">
            <stop offset="0%" stop-color="#00ACC1"/>
            <stop offset="100%" stop-color="#4DE4AC"/>
        </linearGradient>
        <path id="i" d="M0 199.225h327.947V.25H0z"/>
        <path id="k" d="M.124.498v118.099h72.498a4.954 4.954 0 0 0 4.956-4.954V5.453A4.955 4.955 0 0 0 72.622.498H.124z"/>
        <linearGradient id="l" x1="70.346%" x2="26.754%" y1="104.035%" y2="-7.813%">
            <stop offset="0%" stop-color="#00ACC1"/>
            <stop offset="100%" stop-color="#4DE4AC"/>
        </linearGradient>
        <path id="n" d="M5.483.498A4.954 4.954 0 0 0 .529 5.453v108.19a4.954 4.954 0 0 0 4.954 4.954h10.415V.497H5.483z"/>
        <linearGradient id="o" x1="192.329%" x2="2.838%" y1="128.174%" y2="21.627%">
            <stop offset="0%" stop-color="#3B0AFF"/>
            <stop offset="100%" stop-color="#B84FFF"/>
        </linearGradient>
        <path id="q" d="M3.257.841L.995 1.28.037 7.757l.446 2.305 13.51 69.84.261 1.358 1.077 5.562c.053.28.324.464.605.41l4.62-.894.639-.123.526-.103 1.988-.384h.001l.164-.032a.35.35 0 0 0 .276-.408l-.031-.165-.893-4.614L9.93 11.77l-.659-3.409-.445-2.305L5.52.404 3.257.84z"/>
        <linearGradient id="r" x1="42.223%" x2="17.163%" y1="39.582%" y2="-4.079%">
            <stop offset="0%" stop-color="#3849AA"/>
            <stop offset="100%" stop-color="#7985FF"/>
        </linearGradient>
        <path id="t" d="M3.31 1.04l-2.261.438-.96 6.478.447 2.304 13.509 69.843.262 1.355 1.077 5.564c.053.28.325.462.604.409l4.622-.894.637-.123.527-.102 1.988-.385.165-.032a.348.348 0 0 0 .276-.407l-.032-.166-.893-4.614L9.983 11.97l-.66-3.41-.445-2.305L5.572.602l-2.261.438z"/>
        <linearGradient id="u" x1="29.836%" x2="8.194%" y1="21.884%" y2="-11.653%">
            <stop offset="0%" stop-color="#0067FF"/>
            <stop offset="100%" stop-color="#36FFFF"/>
        </linearGradient>
        <path id="w" d="M19.391 5.56l-.555 2.28L2.007 76.957 1.68 78.3.34 83.806a.515.515 0 0 0 .378.623l4.573 1.114h.001l.63.154.522.127 1.968.478.162.04a.349.349 0 0 0 .421-.256l.04-.163 1.112-4.566 16.564-68.025.82-3.374.556-2.28-.647-6.517L25.2.616 22.963.07l-3.57 5.489z"/>
        <linearGradient id="x" x1="60.244%" x2="73.109%" y1="28.389%" y2="-2.498%">
            <stop offset="0%" stop-color="#00ACC1"/>
            <stop offset="100%" stop-color="#4DE4AC"/>
        </linearGradient>
        <path id="z" d="M3.925.633A3.827 3.827 0 0 0 .098 4.46v69.183h60.057V4.46A3.827 3.827 0 0 0 56.328.633H3.925z"/>
        <linearGradient id="A" x1="85.007%" x2="3.635%" y1="116.243%" y2="-32.951%">
            <stop offset="0%" stop-color="#0067FF"/>
            <stop offset="100%" stop-color="#36FFFF"/>
        </linearGradient>
        <path id="C" d="M19.98 14.664c-4.308 7.67-6.247 4.01-12.172 2.266C2.348 15.324.822 32.228.616 34.884h57.006c-.477-2.929-1.24-6.305-2.417-8.54-2.478-4.707-4.632-2.093-10.341 1.044-5.71 3.14-3.77-20.741-10.342-25.796C33.323.67 32.22.264 31.192.262c-4.6 0-7.69 8.133-11.211 14.402"/>
        <linearGradient id="D" x1="59.049%" x2="45.45%" y1="189.388%" y2="55.043%">
            <stop offset="0%" stop-color="#00ACC1"/>
            <stop offset="100%" stop-color="#4DE4AC"/>
        </linearGradient>
        <path id="F" d="M.746.717H6.24v5.495H.746z"/>
        <path id="H" d="M.737 3.997a3.297 3.297 0 1 0 6.595 0 3.297 3.297 0 0 0-6.595 0"/>
        <linearGradient id="I" x1="-.005%" x2="99.996%" y1="49.994%" y2="49.994%">
            <stop offset="0%" stop-color="#1AE4FF"/>
            <stop offset="100%" stop-color="#E9EDED"/>
        </linearGradient>
        <path id="K" d="M.273 2.314a1.924 1.924 0 1 0 3.847 0 1.924 1.924 0 0 0-3.847 0"/>
        <linearGradient id="L" x1=".008%" x2="99.986%" y1="49.992%" y2="49.992%">
            <stop offset="0%" stop-color="#1AE4FF"/>
            <stop offset="100%" stop-color="#E9EDED"/>
        </linearGradient>
        <path id="N" d="M.244 2.042a1.923 1.923 0 1 0 3.846 0 1.923 1.923 0 0 0-3.846 0"/>
        <linearGradient id="O" x1="0%" x2="99.998%" y1="49.997%" y2="49.997%">
            <stop offset="0%" stop-color="#1AE4FF"/>
            <stop offset="100%" stop-color="#E9EDED"/>
        </linearGradient>
        <path id="Q" d="M.226 2.268a1.924 1.924 0 1 0 3.846 0 1.924 1.924 0 0 0-3.846 0"/>
        <linearGradient id="R" x1=".012%" x2="100.01%" y1="49.997%" y2="49.997%">
            <stop offset="0%" stop-color="#1AE4FF"/>
            <stop offset="100%" stop-color="#E9EDED"/>
        </linearGradient>
        <path id="T" d="M.273 2.314a1.924 1.924 0 1 0 3.847 0 1.924 1.924 0 0 0-3.847 0"/>
        <linearGradient id="U" x1=".006%" x2="100.004%" y1="50.001%" y2="50.001%">
            <stop offset="0%" stop-color="#1AE4FF"/>
            <stop offset="100%" stop-color="#E9EDED"/>
        </linearGradient>
        <path id="W" d="M1.018 3.415c-1.561 7.457-.087 14.914.26 16.908 2.601 2.516 11.706 3.21 12.313.521.607-4.423-1.82-13.875-3.208-16.91C8.995.9 6.047.033 6.047.033c-2.775 0-4.683 1.56-5.03 3.382"/>
        <linearGradient id="X" x1="0%" x2="99.998%" y1="49.999%" y2="49.999%">
            <stop offset="0%" stop-color="#FD9300"/>
            <stop offset="100%" stop-color="#FDC800"/>
        </linearGradient>
        <path id="Z" d="M.753 2.826c1.25 1.902 14.563 4.136 13.225 1.268C10.021.876 1.986.142 1.986.142S-.497.923.753 2.826"/>
        <linearGradient id="aa" x1="34.442%" x2="75.137%" y1="-394.851%" y2="786.107%">
            <stop offset="0%" stop-color="#FD9300"/>
            <stop offset="100%" stop-color="#FDC800"/>
        </linearGradient>
        <path id="ac" d="M.712.923c-.45 3.86 1.032 9.173 1.032 9.173.69 1.103 2.234.137 1.985-2.877C3.479 4.203 1.943.767 1.943.767L.713.923z"/>
        <linearGradient id="ad" x1="-10.648%" x2="167.201%" y1="-171.386%" y2="471.832%">
            <stop offset="0%" stop-color="#FD9300"/>
            <stop offset="100%" stop-color="#FDC800"/>
        </linearGradient>
        <path id="af" d="M.806 1.45c3.288 3.9 11.046 6.116 11.046 6.116s2.584-.305 1.71-2.408C12.896 3.55 5.323.436 2.154.436 1.181.436.623.73.806 1.45"/>
        <linearGradient id="ag" x1="36.263%" x2="79.153%" y1="-238.5%" y2="643.018%">
            <stop offset="0%" stop-color="#FD9300"/>
            <stop offset="100%" stop-color="#FDC800"/>
        </linearGradient>
        <path id="ai" d="M.022.89s.697 3.7 2.21 6.32c1.515 2.62 3.333 2.533 3.271 1.233 0 0-1.81-5.209-4.379-8.126L.022.891z"/>
        <linearGradient id="aj" x1="27.864%" x2="129.349%" y1="-103.804%" y2="593.606%">
            <stop offset="0%" stop-color="#FD9300"/>
            <stop offset="100%" stop-color="#FDC800"/>
        </linearGradient>
        <path id="al" d="M4.136.395a3.921 3.921 0 0 0-3.921 3.92v25.097a3.92 3.92 0 0 0 3.92 3.921h58.532V.395H4.136z"/>
        <linearGradient id="am" x1="28.199%" x2="116.742%" y1="98.038%" y2="-82.393%">
            <stop offset="0%" stop-color="#3B0AFF"/>
            <stop offset="100%" stop-color="#B84FFF"/>
        </linearGradient>
        <path id="ao" d="M.63.395h106.975v32.938H.63z"/>
        <path id="aq" d="M0 199.225h327.947V.25H0z"/>
        <path id="as" d="M4.037.666a3.921 3.921 0 0 0-3.921 3.92v16.519a3.921 3.921 0 0 0 3.921 3.92h58.53V.667H4.037z"/>
        <linearGradient id="at" x1="49.521%" x2="50.749%" y1="131.704%" y2="-57.197%">
            <stop offset="0%" stop-color="#FD9300"/>
            <stop offset="100%" stop-color="#FDC800"/>
        </linearGradient>
        <path id="av" d="M4.452.666A3.921 3.921 0 0 0 .53 4.586v16.519a3.92 3.92 0 0 0 3.922 3.92H105.33a2.175 2.175 0 0 0 0-4.348H18.746c-1.201 0-2.175-.974-2.175-2.175V7.19c0-1.2.974-2.174 2.176-2.174h86.583a2.175 2.175 0 0 0 0-4.35H4.452z"/>
        <linearGradient id="aw" x1="0%" y1="50%" y2="50%">
            <stop offset="0%" stop-color="#FD9300"/>
            <stop offset="100%" stop-color="#FDC800"/>
        </linearGradient>
        <path id="ay" d="M.02.666v24.36h4.62V.666z"/>
        <linearGradient id="az" x1="70.118%" x2="-41.739%" y1="22.15%" y2="177.022%">
            <stop offset="0%" stop-color="#3B0AFF"/>
            <stop offset="100%" stop-color="#B84FFF"/>
        </linearGradient>
        <path id="aB" d="M.202.302L.164 16.28H132.33l.038-15.977H.202zm5.844 10.78a1.865 1.865 0 1 1 .004 0h-.004z"/>
        <linearGradient id="aC" x1="10.605%" x2="86.25%" y1="215.681%" y2="-102.454%">
            <stop offset="0%" stop-color="#00ACC1"/>
            <stop offset="100%" stop-color="#4DE4AC"/>
        </linearGradient>
        <path id="aE" d="M.497.568h1.465v5.634H.497z"/>
        <path id="aG" d="M.573.038h.906v3.063H.573z"/>
        <path id="aI" d="M.734.044h.905v3.057H.734z"/>
        <path id="aK" d="M.119.05h.904V3.1H.12z"/>
        <path id="aM" d="M.279.056h.905v3.045H.279z"/>
        <path id="aO" d="M.525.6H1.99v5.602H.525z"/>
        <path id="aQ" d="M.601.07h.906V3.1H.6z"/>
        <path id="aS" d="M.762.076h.904v3.025H.762z"/>
        <path id="aU" d="M.147.082h.904V3.1H.147z"/>
        <path id="aW" d="M.307.087h.905v3.014H.307z"/>
        <path id="aY" d="M.553.63h1.464v5.572H.553z"/>
        <path id="ba" d="M.63.102h.904V3.1H.629z"/>
        <path id="bc" d="M.014.108H.92V3.1H.014z"/>
        <path id="be" d="M.174.113h.905v2.988H.174z"/>
        <path id="bg" d="M.335.119h.905V3.1H.335z"/>
        <path id="bi" d="M.581.662h1.464v5.54H.58z"/>
        <path id="bk" d="M.657.133h.905V3.1H.657z"/>
        <path id="bm" d="M.042.139h.905V3.1H.042z"/>
        <path id="bo" d="M.202.145h.905v2.956H.202z"/>
        <path id="bq" d="M.363.15h.904V3.1H.363z"/>
        <path id="bs" d="M.61.695h1.462v5.507H.61z"/>
        <path id="bu" d="M.685.164h.905v2.937H.685z"/>
        <path id="bw" d="M.07.17h.905V3.1H.07z"/>
        <path id="by" d="M.23.177h.905V3.1H.231z"/>
        <path id="bA" d="M.39.182h.905v2.919H.391z"/>
        <path id="bC" d="M.637.727h1.464v5.475H.637z"/>
        <path id="bE" d="M.713.196h.905v2.905H.713z"/>
        <path id="bG" d="M.098.202h.905v2.899H.098z"/>
        <path id="bI" d="M.258.209h.905V3.1H.258z"/>
        <path id="bK" d="M.419.213h.904v2.888H.42z"/>
        <path id="bM" d="M.665.758h1.464v5.444H.665z"/>
        <path id="bO" d="M.74.228h.905v2.873H.741z"/>
        <path id="bQ" d="M.126.234h.905v2.867H.126z"/>
        <path id="bS" d="M.286.24h.905V3.1H.286z"/>
        <path id="bU" d="M.447.245h.904v2.856H.447z"/>
        <path id="bW" d="M.693.014h1.464v5.412H.693z"/>
        <path id="bY" d="M.769.26h.904V3.1H.77z"/>
        <path id="ca" d="M.154.265h.904v2.836H.154z"/>
        <path id="cc" d="M.315.271h.903v2.83H.315z"/>
        <path id="ce" d="M.474.277h.905V3.1H.474z"/>
        <path id="cg" d="M.721.046h1.464v5.38H.72z"/>
        <path id="ci" d="M.022.29h.904V3.1H.022z"/>
        <path id="ck" d="M.182.297h.904v2.804H.182z"/>
        <path id="cm" d="M.343.303h.903v2.798H.343z"/>
        <path id="co" d="M.502.309h.905V3.1H.502z"/>
        <path id="cq" d="M.759.74h26.903v117.865H.76z"/>
        <path id="cs" d="M.238.74h26.904v117.865H.238z"/>
        <path id="cu" d="M1.075.732C.251 2.105 1.007 9.729 2.93 11.378c1.924 1.65 3.985.413 2.887-1.785-1.1-2.198.068-4.877-1.306-7.213C3.644.91 2.507.637 1.783.637c-.425 0-.708.095-.708.095"/>
        <linearGradient id="cv" x1="134.088%" x2="194.125%" y1="-9.186%" y2="-50.395%">
            <stop offset="0%" stop-color="#00ACC1"/>
            <stop offset="100%" stop-color="#4DE4AC"/>
        </linearGradient>
        <path id="cx" d="M23.448.38c-3.812.823-4.43 3.811-8.036 3.708-3.606-.103-5.77.309-7.624 2.163-1.855 1.855-6.079 0-7.212 3.607-1.133 3.606.104 9.17 5.873 9.17s5.769-4.534 8.963-3.504c3.193 1.03 4.43 1.546 7.315-.103 2.885-1.649 6.49-3.709 6.697-6.49.206-2.782 0-4.843-.824-5.976 0 0-1.065-2.705-4-2.705-.356 0-.74.04-1.152.13"/>
        <linearGradient id="cy" x1="119.487%" x2="-21.151%" y1="10.075%" y2="102.258%">
            <stop offset="0%" stop-color="#3B0AFF"/>
            <stop offset="100%" stop-color="#B84FFF"/>
        </linearGradient>
        <path id="cA" d="M2.522.805C.69 1.502-.094 2.722.167 5.25.43 7.78 1.755 10.887 1.32 12.37c-.436 1.482-1.744 1.918-.175 3.836 1.57 1.918 7.045 1.339 8.44.467 1.395-.872 2.528-1.657 1.395-3.4-1.132-1.744-.872-1.831-1.481-3.749-.611-1.919.697-3.053-.175-4.36-.872-1.308-.872-2.354-1.657-3.4C6.882.718 4.353.456 4.353.456s0-.088-.229-.088-.687.088-1.602.437"/>
        <linearGradient id="cB" x1=".002%" x2="100.002%" y1="50.001%" y2="50.001%">
            <stop offset="0%" stop-color="#00ACC1"/>
            <stop offset="100%" stop-color="#4DE4AC"/>
        </linearGradient>
        <path id="cD" d="M3.755.062c-.402.167-1.279.837-1.844 3.516C1.155 7.15.33 8.797.88 9.965c.549 1.168 7.418 4.464 8.654 4.121 1.237-.343.893-1.03.068-1.717-.824-.687-5.15-2.473-5.22-3.64C4.314 7.56 7.336 3.92 6.374 2.204L3.971.006s-.082 0-.216.056"/>
        <linearGradient id="cE" x1="-.003%" x2="99.998%" y1="49.999%" y2="49.999%">
            <stop offset="0%" stop-color="#00ACC1"/>
            <stop offset="100%" stop-color="#4DE4AC"/>
        </linearGradient>
        <path id="cG" d="M4.638.703C2.233 1.116 2.302 1.94.722 4.62c-1.58 2.678.206 5.357 1.306 4.12 1.098-1.237 1.648-1.374 2.815-2.404 1.17-1.03.962-1.992 2.611-2.541 1.648-.55.962-1.786.962-1.786S7.32.638 5.374.638c-.233 0-.479.02-.736.065"/>
        <linearGradient id="cH" x1="185.592%" x2="-301.567%" y1="-14.159%" y2="191.633%">
            <stop offset="0%" stop-color="#3B0AFF"/>
            <stop offset="100%" stop-color="#B84FFF"/>
        </linearGradient>
        <path id="cJ" d="M0 199.225h327.947V.25H0z"/>
    </defs>
    <g fill="none" fill-rule="evenodd">
        <g transform="translate(0 .525)">
            <path fill="#424242" d="M174.032 77.859c9.88 0 18.853 1.255 25.504 3.3 6.651-2.045 15.623-3.3 25.504-3.3 9.86 0 18.815 1.25 25.462 3.287V37.955H148.57v43.19c6.647-2.036 15.602-3.286 25.462-3.286"/>
            <path fill="#312E34" d="M148.57 65.402c41.828-13.538 85.149-17.7 101.932-18.866v-8.581H148.57v27.447z"/>
            <path fill="#424242" d="M290.8 41.906H108.272a4.346 4.346 0 1 1 0-8.692h182.53a4.345 4.345 0 1 1 0 8.692"/>
            <mask id="b" fill="#fff">
                <use xlink:href="#a"/>
            </mask>
            <path fill="#616161" d="M136.849 41.905h125.374v-8.691H136.85z" mask="url(#b)"/>
        </g>
        <g transform="translate(99.225 64.866)">
            <mask id="e" fill="#fff">
                <use xlink:href="#c"/>
            </mask>
            <path fill="url(#d)" d="M.705 100.62c0 12.033 2.118 23.57 5.997 34.264h188.969c3.879-10.693 5.996-22.231 5.996-34.264C201.667 45.126 156.68.14 101.186.14 45.692.14.706 45.126.706 100.62" mask="url(#e)"/>
        </g>
        <path fill="#FFB300" d="M59.77 189.409h12.993v-28.636H59.77z"/>
        <path fill="#FFA000" d="M50.49 193.651H83.37v-8.484H50.491z"/>
        <path fill="#FFB300" d="M59.24 193.651h15.38v-8.484H59.24z"/>
        <path fill="#FFA000" d="M33.256 199.75h67.348v-6.099H33.256z"/>
        <path fill="#FFEF80" d="M51.18 199.75h31.5v-6.099h-31.5z"/>
        <path fill="#FF7D21" d="M77 159.453a11.953 11.953 0 0 0 .754-1.386c.038-.083.082-.161.118-.244.19-.438.352-.889.489-1.353.033-.111.057-.227.087-.34.098-.369.177-.744.24-1.126.022-.139.045-.276.063-.416.014-.116.035-.23.046-.346h1.39v-3.01H53.673v3.01h1.39c.581 6.043 5.67 10.768 11.867 10.768a11.859 11.859 0 0 0 5.615-1.404c.006-.002.01-.006.015-.008.428-.23.836-.49 1.23-.77.092-.064.18-.132.268-.2.31-.23.607-.476.892-.736.082-.074.166-.146.246-.224.345-.332.673-.68.976-1.051.031-.038.058-.08.088-.117.266-.334.51-.685.74-1.047"/>
        <path fill="#FFA000" d="M121.55 98.993c0 30.166-24.454 54.62-54.62 54.62-30.166 0-54.621-24.454-54.621-54.62H121.55z"/>
        <path fill="#FFB300" d="M92.65 147.183c17.197-9.198 28.9-27.325 28.9-48.191H63.749c0 20.866 11.703 38.993 28.901 48.19"/>
        <path fill="#FFCB5D" d="M6.21 104.296H127.65V90.508H6.21z"/>
        <path fill="#FFEF80" d="M42.535 104.296h48.788V90.508H42.535z"/>
        <g transform="translate(31.783 160.99)">
            <mask id="h" fill="#fff">
                <use xlink:href="#f"/>
            </mask>
            <path fill="url(#g)" d="M21.882 16.498c-4.744 8.444-6.879 4.414-13.402 2.494C2.467 17.223.788 35.835.56 38.76h62.767c-.526-3.225-1.367-6.943-2.662-9.403-2.728-5.183-5.1-2.304-11.386 1.15-6.286 3.455-4.151-22.837-11.386-28.403C36.573 1.088 35.359.64 34.227.64c-5.064 0-8.467 8.954-12.345 15.857" mask="url(#h)"/>
        </g>
        <g transform="translate(0 .525)">
            <path fill="#1AB8FF" d="M308.281 198.442H227.19a4.954 4.954 0 0 1-4.954-4.954V90.252a4.954 4.954 0 0 1 4.954-4.955h81.092a4.955 4.955 0 0 1 4.955 4.955v103.236a4.955 4.955 0 0 1-4.955 4.954"/>
            <path fill="#F2F8FD" d="M304.115 195.095H230.95a4.47 4.47 0 0 1-4.47-4.47V93.012a4.47 4.47 0 0 1 4.47-4.469h73.164c2.469 0 4.47 2.001 4.47 4.47v97.612a4.47 4.47 0 0 1-4.47 4.47"/>
            <mask id="j" fill="#fff">
                <use xlink:href="#i"/>
            </mask>
            <path fill="#DEEEE9" d="M277.847 195.095h24.67V88.543h-24.67z" mask="url(#j)"/>
        </g>
        <g transform="translate(221.705 80.37)">
            <mask id="m" fill="#fff">
                <use xlink:href="#k"/>
            </mask>
            <path fill="url(#l)" d="M.124.498v118.099h72.498a4.954 4.954 0 0 0 4.956-4.954V5.453A4.955 4.955 0 0 0 72.622.498H.124z" mask="url(#m)"/>
        </g>
        <g transform="translate(207.752 80.37)">
            <mask id="p" fill="#fff">
                <use xlink:href="#n"/>
            </mask>
            <path fill="url(#o)" d="M5.483.498A4.954 4.954 0 0 0 .529 5.453v108.19a4.954 4.954 0 0 0 4.954 4.954h10.415V.497H5.483z" mask="url(#p)"/>
        </g>
        <path fill="#FFF" d="M283.711 124.245h-48.23a4.55 4.55 0 0 1-4.551-4.55v-4.247a4.55 4.55 0 0 1 4.55-4.55h48.231a4.55 4.55 0 0 1 4.55 4.55v4.247a4.55 4.55 0 0 1-4.55 4.55"/>
        <path fill="#1AE5FF" d="M86.915 105.236l-4.727.915c-.488.094-.93-.417-.843-.975l1.09-7.034c.05-.316.262-.556.537-.61h.002c.275-.053.562.092.724.366l3.635 6.12c.29.485.07 1.124-.418 1.218"/>
        <g transform="translate(80.62 101.3)">
            <mask id="s" fill="#fff">
                <use xlink:href="#q"/>
            </mask>
            <path fill="url(#r)" d="M3.257.841L.995 1.28.037 7.757l.446 2.305 13.51 69.84.261 1.358 1.077 5.562c.053.28.324.464.605.41l4.62-.894.639-.123.526-.103 1.988-.384h.001l.164-.032a.35.35 0 0 0 .276-.408l-.031-.165-.893-4.614L9.93 11.77l-.659-3.409-.445-2.305L5.52.404 3.257.84z" mask="url(#s)"/>
        </g>
        <path fill="#FFF" d="M117.2 113.962l-4.727.915c-.487.094-.93-.417-.843-.975l1.091-7.033c.049-.316.26-.556.537-.61h.001c.275-.053.561.09.725.365l3.635 6.12c.288.485.069 1.124-.419 1.218"/>
        <g transform="translate(110.853 109.827)">
            <mask id="v" fill="#fff">
                <use xlink:href="#t"/>
            </mask>
            <path fill="url(#u)" d="M3.31 1.04l-2.261.438-.96 6.478.447 2.304 13.509 69.843.262 1.355 1.077 5.564c.053.28.325.462.604.409l4.622-.894.637-.123.527-.102 1.988-.385.165-.032a.348.348 0 0 0 .276-.407l-.032-.166-.893-4.614L9.983 11.97l-.66-3.41-.445-2.305L5.572.602l-2.261.438z" mask="url(#v)"/>
        </g>
        <path fill="#424242" d="M108.842 106.77l-4.678-1.14c-.483-.116-.67-.765-.36-1.236l3.923-5.939c.176-.266.47-.397.742-.33.274.067.474.317.508.635l.753 7.076c.06.562-.405 1.052-.888.934"/>
        <g transform="translate(82.17 102.075)">
            <mask id="y" fill="#fff">
                <use xlink:href="#w"/>
            </mask>
            <path fill="url(#x)" d="M19.391 5.56l-.555 2.28L2.007 76.957 1.68 78.3.34 83.806a.515.515 0 0 0 .378.623l4.573 1.114h.001l.63.154.522.127 1.968.478.162.04a.349.349 0 0 0 .421-.256l.04-.163 1.112-4.566 16.564-68.025.82-3.374.556-2.28-.647-6.517L25.2.616 22.963.07l-3.57 5.489z" mask="url(#y)"/>
        </g>
        <g transform="translate(75.194 126.106)">
            <mask id="B" fill="#fff">
                <use xlink:href="#z"/>
            </mask>
            <path fill="url(#A)" d="M3.925.633A3.827 3.827 0 0 0 .098 4.46v69.183h60.057V4.46A3.827 3.827 0 0 0 56.328.633H3.925z" mask="url(#B)"/>
        </g>
        <g transform="translate(262.016 164.866)">
            <mask id="E" fill="#fff">
                <use xlink:href="#C"/>
            </mask>
            <path fill="url(#D)" d="M19.98 14.664c-4.308 7.67-6.247 4.01-12.172 2.266C2.348 15.324.822 32.228.616 34.884h57.006c-.477-2.929-1.24-6.305-2.417-8.54-2.478-4.707-4.632-2.093-10.341 1.044-5.71 3.14-3.77-20.741-10.342-25.796C33.323.67 32.22.264 31.192.262c-4.6 0-7.69 8.133-11.211 14.402" mask="url(#E)"/>
        </g>
        <path fill="#DB4FFF" d="M6.594 118.916a3.297 3.297 0 1 1-6.594 0 3.297 3.297 0 0 1 6.594 0"/>
        <g transform="translate(321.705 147.812)">
            <mask id="G" fill="#fff">
                <use xlink:href="#F"/>
            </mask>
            <path fill="#DB4FFF" d="M6.241 3.465a2.748 2.748 0 1 1-5.495 0 2.748 2.748 0 0 1 5.495 0" mask="url(#G)"/>
        </g>
        <path fill="#DB4FFF" d="M216.15 55.842a1.648 1.648 0 1 1 0 3.297 1.648 1.648 0 0 1 0-3.297M96.77 81.423a1.648 1.648 0 1 1 0 3.297 1.648 1.648 0 0 1 0-3.297"/>
        <g transform="translate(297.674 67.191)">
            <mask id="J" fill="#fff">
                <use xlink:href="#H"/>
            </mask>
            <path fill="url(#I)" d="M.737 3.997a3.297 3.297 0 1 0 6.595 0 3.297 3.297 0 0 0-6.595 0" mask="url(#J)"/>
        </g>
        <g transform="translate(240.31 60.99)">
            <mask id="M" fill="#fff">
                <use xlink:href="#K"/>
            </mask>
            <path fill="url(#L)" d="M.273 2.314a1.924 1.924 0 1 0 3.847 0 1.924 1.924 0 0 0-3.847 0" mask="url(#M)"/>
        </g>
        <g transform="translate(48.837 147.036)">
            <mask id="P" fill="#fff">
                <use xlink:href="#N"/>
            </mask>
            <path fill="url(#O)" d="M.244 2.042a1.923 1.923 0 1 0 3.846 0 1.923 1.923 0 0 0-3.846 0" mask="url(#P)"/>
        </g>
        <g transform="translate(317.83 124.556)">
            <mask id="S" fill="#fff">
                <use xlink:href="#Q"/>
            </mask>
            <path fill="url(#R)" d="M.226 2.268a1.924 1.924 0 1 0 3.846 0 1.924 1.924 0 0 0-3.846 0" mask="url(#S)"/>
        </g>
        <g transform="translate(136.434 67.967)">
            <mask id="V" fill="#fff">
                <use xlink:href="#T"/>
            </mask>
            <path fill="url(#U)" d="M.273 2.314a1.924 1.924 0 1 0 3.847 0 1.924 1.924 0 0 0-3.847 0" mask="url(#V)"/>
        </g>
        <path fill="#FFF" d="M169.298 139.098s-5.277 2.221-5.195 3.33c.081 1.108 2.675.984 4.415.253 1.744-.876 2.257-1.47 2.257-1.47s.51.48.904-.061c.395-.54.895-1.63.322-1.94-.572-.308-2.703-.112-2.703-.112"/>
        <path fill="#424242" d="M176.472 100.693s-3.99 16.166-5.016 21.447c-1.027 5.28-2.787 15.991-2.494 16.87.294.88 2.054.588 2.787.147.734-.44 4.108-15.11 5.135-17.604 1.027-2.493 6.602-18.19 6.602-19.51 0-1.32-5.08-2.699-7.014-1.35"/>
        <path fill="#FFF" d="M183.985 133.126s-1.984 5.372-1.118 6.07c.865.697 2.547-1.28 3.201-3.051.55-1.872.467-2.654.467-2.654s.7-.043.574-.701c-.124-.658-.58-1.767-1.196-1.56-.617.206-1.928 1.896-1.928 1.896"/>
        <path fill="#616161" d="M188.66 101.334s-1.774 4.255-3.08 9.303c-1.304 5.048-2.04 7.272-1.818 7.984.22.712 2.985 11.4 2.605 13.102-.38 1.7-2.683 2.035-3.672.885-.99-1.15-5.071-11.725-4.968-14.248.104-2.523.489-15 2.676-18.022 2.187-3.022 8.114-1.334 8.256.996"/>
        <g transform="translate(175.194 80.37)">
            <mask id="Y" fill="#fff">
                <use xlink:href="#W"/>
            </mask>
            <path fill="url(#X)" d="M1.018 3.415c-1.561 7.457-.087 14.914.26 16.908 2.601 2.516 11.706 3.21 12.313.521.607-4.423-1.82-13.875-3.208-16.91C8.995.9 6.047.033 6.047.033c-2.775 0-4.683 1.56-5.03 3.382" mask="url(#Y)"/>
        </g>
        <path fill="#FFCC80" d="M179.333 71.384s2.645 2.688 2.385 5.463c-.39 2.298-1.344 2.471.087 3.988 0 0-1.085 1.561-3.122.521 0 0 .954-1.128-.694-2.08-1.243-.72-3.208-3.123-3.469-5.204-.26-2.081.78-2.948 2.168-3.295 1.394-.348 2.255.087 2.645.607"/>
        <g transform="translate(179.845 81.145)">
            <mask id="ab" fill="#fff">
                <use xlink:href="#Z"/>
            </mask>
            <path fill="url(#aa)" d="M.753 2.826c1.25 1.902 14.563 4.136 13.225 1.268C10.021.876 1.986.142 1.986.142S-.497.923.753 2.826" mask="url(#ab)"/>
        </g>
        <path fill="#FFCC80" d="M191.575 77.151s.106-.73-.376-1.093c-.483-.364-1.054-1.439-1.026-1.967.028-.53.753.552.753.552s-1.011-2.028-.827-2.142c.184-.115 1.622.877 2.069 1.672.446.795.023 1.673.36 2.537l-.953.441z"/>
        <g transform="translate(190.698 75.719)">
            <mask id="ae" fill="#fff">
                <use xlink:href="#ac"/>
            </mask>
            <path fill="url(#ad)" d="M.712.923c-.45 3.86 1.032 9.173 1.032 9.173.69 1.103 2.234.137 1.985-2.877C3.479 4.203 1.943.767 1.943.767L.713.923z" mask="url(#ae)"/>
        </g>
        <path fill="#FFCC80" d="M164.873 72.046s-.426-.655-.336-1.217c.09-.562.143-2.09-.161-2.132-.303-.044-.395.772-.395.772s-.332-1.171-.798-1.223c-.465-.053-1.538 1.425-1.158 2.084.38.66 1.485 1.164 1.75 1.558l.396.589.702-.43z"/>
        <g transform="translate(165.891 78.044)">
            <mask id="ah" fill="#fff">
                <use xlink:href="#af"/>
            </mask>
            <path fill="url(#ag)" d="M.806 1.45c3.288 3.9 11.046 6.116 11.046 6.116s2.584-.305 1.71-2.408C12.896 3.55 5.323.436 2.154.436 1.181.436.623.73.806 1.45" mask="url(#ah)"/>
        </g>
        <g transform="translate(163.566 71.067)">
            <mask id="ak" fill="#fff">
                <use xlink:href="#ai"/>
            </mask>
            <path fill="url(#aj)" d="M.022.89s.697 3.7 2.21 6.32c1.515 2.62 3.333 2.533 3.271 1.233 0 0-1.81-5.209-4.379-8.126L.022.891z" mask="url(#ak)"/>
        </g>
        <path fill="#FF8A65" d="M179.68 73.617s1.106 1.756.846 2.082c-.26.324-1.496.52-1.561.26-.065-.26.975-.716.975-.716s-.975-2.016-.26-1.626"/>
        <path fill="#FFA000" d="M173.789 71.37s3.608-2.498 5.55-1.203c1.11 1.666-3.978 2.96-3.978 2.96s2.499 5.18 1.11 5.273c-1.387.093-5.272-4.902-2.682-7.03"/>
        <path fill="#FEC800" d="M30.998 74.36l.863-3.208c.248-.92 1.556-.92 1.804 0l.864 3.208c.086.32.337.572.659.659l3.207.863c.92.248.92 1.556 0 1.804l-3.207.863a.933.933 0 0 0-.66.66l-.863 3.207c-.248.92-1.556.92-1.804 0l-.863-3.207a.936.936 0 0 0-.66-.66l-3.206-.863c-.922-.248-.922-1.556 0-1.804l3.207-.863a.936.936 0 0 0 .659-.66M129.16 83.258l.414-1.534c.118-.441.744-.441.862 0l.414 1.534a.445.445 0 0 0 .315.315l1.535.414c.441.119.441.744 0 .863l-1.535.413a.447.447 0 0 0-.315.315l-.414 1.536c-.118.44-.744.44-.862 0l-.414-1.536a.448.448 0 0 0-.315-.315l-1.535-.413c-.441-.12-.441-.744 0-.863l1.535-.414a.446.446 0 0 0 .315-.315M14.827 136.518l.413-1.534c.118-.441.744-.441.863 0l.413 1.534a.449.449 0 0 0 .315.315l1.535.413c.441.12.441.745 0 .864l-1.535.413a.448.448 0 0 0-.315.315l-.413 1.535c-.119.44-.745.44-.863 0l-.413-1.535a.446.446 0 0 0-.316-.315l-1.535-.413c-.44-.12-.44-.744 0-.864l1.535-.413a.447.447 0 0 0 .316-.315"/>
        <g transform="translate(102.326 166.416)">
            <mask id="an" fill="#fff">
                <use xlink:href="#al"/>
            </mask>
            <path fill="url(#am)" d="M4.136.395a3.921 3.921 0 0 0-3.921 3.92v25.097a3.92 3.92 0 0 0 3.92 3.921h58.532V.395H4.136z" mask="url(#an)"/>
        </g>
        <g transform="translate(0 .525)">
            <g transform="translate(155.039 165.891)">
                <mask id="ap" fill="#fff">
                    <use xlink:href="#ao"/>
                </mask>
                <path fill="#DB4FFF" d="M16.67 26.81V6.917c0-1.2.974-2.174 2.176-2.174h86.584a2.175 2.175 0 1 0 0-4.35H4.55A3.92 3.92 0 0 0 .63 4.317v25.096a3.921 3.921 0 0 0 3.92 3.921h100.88a2.175 2.175 0 1 0 0-4.348H18.846a2.175 2.175 0 0 1-2.175-2.176" mask="url(#ap)"/>
            </g>
            <path fill="#FFF" d="M258.65 194.876h-89.792a7.2 7.2 0 0 1-7.201-7.2v-9.84a7.202 7.202 0 0 1 7.2-7.201h89.794v24.24z"/>
            <path fill="#F1EEEB" d="M161.657 186.748v.927a7.2 7.2 0 0 0 7.2 7.2h89.794v-8.127h-96.994z"/>
            <mask id="ar" fill="#fff">
                <use xlink:href="#aq"/>
            </mask>
            <path fill="#424242" d="M111.095 188.725h33.493V177.56h-33.493z" mask="url(#ar)"/>
        </g>
        <g transform="translate(117.054 142.385)">
            <mask id="au" fill="#fff">
                <use xlink:href="#as"/>
            </mask>
            <path fill="url(#at)" d="M4.037.666a3.921 3.921 0 0 0-3.921 3.92v16.519a3.921 3.921 0 0 0 3.921 3.92h58.53V.667H4.037z" mask="url(#au)"/>
        </g>
        <g transform="translate(169.767 142.385)">
            <mask id="ax" fill="#fff">
                <use xlink:href="#av"/>
            </mask>
            <path fill="url(#aw)" d="M4.452.666A3.921 3.921 0 0 0 .53 4.586v16.519a3.92 3.92 0 0 0 3.922 3.92H105.33a2.175 2.175 0 0 0 0-4.348H18.746c-1.201 0-2.175-.974-2.175-2.175V7.19c0-1.2.974-2.174 2.176-2.174h86.583a2.175 2.175 0 0 0 0-4.35H4.452z" mask="url(#ax)"/>
        </g>
        <g>
            <path fill="#FFF" d="M273.28 163.062h-89.793a7.2 7.2 0 0 1-7.2-7.2v-1.26a7.2 7.2 0 0 1 7.2-7.201h89.793v15.661z"/>
            <path fill="#F1EEEB" d="M176.286 154.934v.927a7.2 7.2 0 0 0 7.201 7.2h89.793v-8.127h-96.994z"/>
        </g>
        <g transform="translate(124.806 142.385)">
            <mask id="aA" fill="#fff">
                <use xlink:href="#ay"/>
            </mask>
            <path fill="url(#az)" d="M.02.666v24.36h4.62V.666z" mask="url(#aA)"/>
        </g>
        <g transform="translate(49.612 183.47)">
            <mask id="aD" fill="#fff">
                <use xlink:href="#aB"/>
            </mask>
            <path fill="url(#aC)" d="M.202.302L.164 16.28H132.33l.038-15.977H.202zm5.844 10.78a1.865 1.865 0 1 1 .004 0h-.004z" mask="url(#aD)"/>
        </g>
        <g>
            <path fill="#00ACC1" d="M49.815 183.773l-.01 3.997 132.165.317.01-4.314z"/>
            <g transform="translate(60.465 193.548)">
                <mask id="aF" fill="#fff">
                    <use xlink:href="#aE"/>
                </mask>
                <path fill="#455A64" d="M1.948 6.202L1.962.57.512.568.496 6.202z" mask="url(#aF)"/>
            </g>
            <g transform="translate(63.566 196.649)">
                <mask id="aH" fill="#fff">
                    <use xlink:href="#aG"/>
                </mask>
                <path fill="#455A64" d="M1.47 3.1L1.48.04.58.038.573 3.101z" mask="url(#aH)"/>
            </g>
            <g transform="translate(65.891 196.649)">
                <mask id="aJ" fill="#fff">
                    <use xlink:href="#aI"/>
                </mask>
                <path fill="#455A64" d="M1.631 3.1L1.64.048.741.044.734 3.101z" mask="url(#aJ)"/>
            </g>
            <g transform="translate(68.992 196.649)">
                <mask id="aL" fill="#fff">
                    <use xlink:href="#aK"/>
                </mask>
                <path fill="#455A64" d="M1.017 3.1L1.023.053.126.05.119 3.1z" mask="url(#aL)"/>
            </g>
            <g transform="translate(71.318 196.649)">
                <mask id="aN" fill="#fff">
                    <use xlink:href="#aM"/>
                </mask>
                <path fill="#455A64" d="M1.177 3.1L1.184.059.287.056.279 3.101z" mask="url(#aN)"/>
            </g>
            <g transform="translate(73.643 193.548)">
                <mask id="aP" fill="#fff">
                    <use xlink:href="#aO"/>
                </mask>
                <path fill="#455A64" d="M1.976 6.202l.013-5.6L.539.6.525 6.202z" mask="url(#aP)"/>
            </g>
            <g transform="translate(76.744 196.649)">
                <mask id="aR" fill="#fff">
                    <use xlink:href="#aQ"/>
                </mask>
                <path fill="#455A64" d="M1.499 3.1L1.507.073.609.07.6 3.1z" mask="url(#aR)"/>
            </g>
            <g transform="translate(79.07 196.649)">
                <mask id="aT" fill="#fff">
                    <use xlink:href="#aS"/>
                </mask>
                <path fill="#455A64" d="M1.66 3.1L1.665.079.77.076.762 3.101z" mask="url(#aT)"/>
            </g>
            <g transform="translate(82.17 196.649)">
                <mask id="aV" fill="#fff">
                    <use xlink:href="#aU"/>
                </mask>
                <path fill="#455A64" d="M1.044 3.1L1.051.085.154.082.147 3.1z" mask="url(#aV)"/>
            </g>
            <g transform="translate(84.496 196.649)">
                <mask id="aX" fill="#fff">
                    <use xlink:href="#aW"/>
                </mask>
                <path fill="#455A64" d="M1.205 3.1L1.212.09.314.086.307 3.101z" mask="url(#aX)"/>
            </g>
            <g transform="translate(86.822 193.548)">
                <mask id="aZ" fill="#fff">
                    <use xlink:href="#aY"/>
                </mask>
                <path fill="#455A64" d="M2.004 6.202L2.017.634.567.63.553 6.202z" mask="url(#aZ)"/>
            </g>
            <g transform="translate(89.922 196.649)">
                <mask id="bb" fill="#fff">
                    <use xlink:href="#ba"/>
                </mask>
                <path fill="#455A64" d="M1.527 3.1L1.534.104.637.102.629 3.1z" mask="url(#bb)"/>
            </g>
            <g transform="translate(93.023 196.649)">
                <mask id="bd" fill="#fff">
                    <use xlink:href="#bc"/>
                </mask>
                <path fill="#455A64" d="M.912 3.1L.92.11.021.107.014 3.1z" mask="url(#bd)"/>
            </g>
            <g transform="translate(95.349 196.649)">
                <mask id="bf" fill="#fff">
                    <use xlink:href="#be"/>
                </mask>
                <path fill="#455A64" d="M1.072 3.1L1.08.116.182.113.174 3.101z" mask="url(#bf)"/>
            </g>
            <g transform="translate(97.674 196.649)">
                <mask id="bh" fill="#fff">
                    <use xlink:href="#bg"/>
                </mask>
                <path fill="#455A64" d="M1.233 3.1L1.24.122.342.12.335 3.1z" mask="url(#bh)"/>
            </g>
            <g transform="translate(100 193.548)">
                <mask id="bj" fill="#fff">
                    <use xlink:href="#bi"/>
                </mask>
                <path fill="#455A64" d="M2.032 6.202L2.045.666.595.662.58 6.202z" mask="url(#bj)"/>
            </g>
            <g transform="translate(103.1 196.649)">
                <mask id="bl" fill="#fff">
                    <use xlink:href="#bk"/>
                </mask>
                <path fill="#455A64" d="M1.555 3.1L1.562.136.664.133.657 3.1z" mask="url(#bl)"/>
            </g>
            <g transform="translate(106.202 196.649)">
                <mask id="bn" fill="#fff">
                    <use xlink:href="#bm"/>
                </mask>
                <path fill="#455A64" d="M.94 3.1L.947.142.05.14.042 3.1z" mask="url(#bn)"/>
            </g>
            <g transform="translate(108.527 196.649)">
                <mask id="bp" fill="#fff">
                    <use xlink:href="#bo"/>
                </mask>
                <path fill="#455A64" d="M1.1 3.1L1.107.148.21.145.202 3.101z" mask="url(#bp)"/>
            </g>
            <g transform="translate(110.853 196.649)">
                <mask id="br" fill="#fff">
                    <use xlink:href="#bq"/>
                </mask>
                <path fill="#455A64" d="M1.26 3.1L1.267.154.37.15.363 3.1z" mask="url(#br)"/>
            </g>
            <g transform="translate(113.178 193.548)">
                <mask id="bt" fill="#fff">
                    <use xlink:href="#bs"/>
                </mask>
                <path fill="#455A64" d="M2.06 6.202L2.071.697.622.695.61 6.202z" mask="url(#bt)"/>
            </g>
            <g transform="translate(116.28 196.649)">
                <mask id="bv" fill="#fff">
                    <use xlink:href="#bu"/>
                </mask>
                <path fill="#455A64" d="M1.583 3.1L1.59.168.692.164.685 3.101z" mask="url(#bv)"/>
            </g>
            <g transform="translate(119.38 196.649)">
                <mask id="bx" fill="#fff">
                    <use xlink:href="#bw"/>
                </mask>
                <path fill="#455A64" d="M.968 3.1L.975.174.077.171.07 3.1z" mask="url(#bx)"/>
            </g>
            <g transform="translate(121.705 196.649)">
                <mask id="bz" fill="#fff">
                    <use xlink:href="#by"/>
                </mask>
                <path fill="#455A64" d="M1.128 3.1L1.135.179.238.177.23 3.1z" mask="url(#bz)"/>
            </g>
            <g transform="translate(124.031 196.649)">
                <mask id="bB" fill="#fff">
                    <use xlink:href="#bA"/>
                </mask>
                <path fill="#455A64" d="M1.288 3.1L1.295.186.398.182.39 3.101z" mask="url(#bB)"/>
            </g>
            <g transform="translate(126.357 193.548)">
                <mask id="bD" fill="#fff">
                    <use xlink:href="#bC"/>
                </mask>
                <path fill="#455A64" d="M2.087 6.202L2.101.729.65.727.636 6.202z" mask="url(#bD)"/>
            </g>
            <g transform="translate(129.457 196.649)">
                <mask id="bF" fill="#fff">
                    <use xlink:href="#bE"/>
                </mask>
                <path fill="#455A64" d="M1.61 3.1L1.619.2.72.196.713 3.101z" mask="url(#bF)"/>
            </g>
            <g transform="translate(132.558 196.649)">
                <mask id="bH" fill="#fff">
                    <use xlink:href="#bG"/>
                </mask>
                <path fill="#455A64" d="M.996 3.1L1.003.206.105.202.098 3.101z" mask="url(#bH)"/>
            </g>
            <g transform="translate(134.884 196.649)">
                <mask id="bJ" fill="#fff">
                    <use xlink:href="#bI"/>
                </mask>
                <path fill="#455A64" d="M1.156 3.1L1.163.21.265.21.258 3.1z" mask="url(#bJ)"/>
            </g>
            <g transform="translate(137.21 196.649)">
                <mask id="bL" fill="#fff">
                    <use xlink:href="#bK"/>
                </mask>
                <path fill="#455A64" d="M1.316 3.1L1.323.217.426.213.419 3.101z" mask="url(#bL)"/>
            </g>
            <g transform="translate(139.535 193.548)">
                <mask id="bN" fill="#fff">
                    <use xlink:href="#bM"/>
                </mask>
                <path fill="#455A64" d="M2.115 6.202L2.13.76.679.758.664 6.202z" mask="url(#bN)"/>
            </g>
            <g transform="translate(142.636 196.649)">
                <mask id="bP" fill="#fff">
                    <use xlink:href="#bO"/>
                </mask>
                <path fill="#455A64" d="M1.638 3.1L1.645.23.748.228.74 3.101z" mask="url(#bP)"/>
            </g>
            <g transform="translate(145.736 196.649)">
                <mask id="bR" fill="#fff">
                    <use xlink:href="#bQ"/>
                </mask>
                <path fill="#455A64" d="M1.024 3.1L1.03.237.133.234.126 3.101z" mask="url(#bR)"/>
            </g>
            <g transform="translate(148.062 196.649)">
                <mask id="bT" fill="#fff">
                    <use xlink:href="#bS"/>
                </mask>
                <path fill="#455A64" d="M1.184 3.1L1.19.243.293.24.286 3.1z" mask="url(#bT)"/>
            </g>
            <g transform="translate(150.388 196.649)">
                <mask id="bV" fill="#fff">
                    <use xlink:href="#bU"/>
                </mask>
                <path fill="#455A64" d="M1.344 3.1L1.351.248.454.245.447 3.101z" mask="url(#bV)"/>
            </g>
            <g transform="translate(152.713 194.323)">
                <mask id="bX" fill="#fff">
                    <use xlink:href="#bW"/>
                </mask>
                <path fill="#455A64" d="M2.143 5.427l.014-5.41L.707.014.692 5.427z" mask="url(#bX)"/>
            </g>
            <g transform="translate(155.814 196.649)">
                <mask id="bZ" fill="#fff">
                    <use xlink:href="#bY"/>
                </mask>
                <path fill="#455A64" d="M1.666 3.1L1.673.262.776.26.769 3.101z" mask="url(#bZ)"/>
            </g>
            <g transform="translate(158.915 196.649)">
                <mask id="cb" fill="#fff">
                    <use xlink:href="#ca"/>
                </mask>
                <path fill="#455A64" d="M1.052 3.1L1.058.269.16.265.154 3.101z" mask="url(#cb)"/>
            </g>
            <g transform="translate(161.24 196.649)">
                <mask id="cd" fill="#fff">
                    <use xlink:href="#cc"/>
                </mask>
                <path fill="#455A64" d="M1.212 3.1L1.218.275.322.27l-.007 2.83z" mask="url(#cd)"/>
            </g>
            <g transform="translate(163.566 196.649)">
                <mask id="cf" fill="#fff">
                    <use xlink:href="#ce"/>
                </mask>
                <path fill="#455A64" d="M1.372 3.1L1.379.28.48.276.474 3.1z" mask="url(#cf)"/>
            </g>
            <g transform="translate(165.891 194.323)">
                <mask id="ch" fill="#fff">
                    <use xlink:href="#cg"/>
                </mask>
                <path fill="#455A64" d="M2.171 5.427L2.185.049.735.046.72 5.426z" mask="url(#ch)"/>
            </g>
            <g transform="translate(169.767 196.649)">
                <mask id="cj" fill="#fff">
                    <use xlink:href="#ci"/>
                </mask>
                <path fill="#455A64" d="M.92 3.1L.925.294.03.291.022 3.1z" mask="url(#cj)"/>
            </g>
            <g transform="translate(172.093 196.649)">
                <mask id="cl" fill="#fff">
                    <use xlink:href="#ck"/>
                </mask>
                <path fill="#455A64" d="M1.08 3.1L1.086.3.189.296.182 3.101z" mask="url(#cl)"/>
            </g>
            <g transform="translate(174.419 196.649)">
                <mask id="cn" fill="#fff">
                    <use xlink:href="#cm"/>
                </mask>
                <path fill="#455A64" d="M1.24 3.1L1.245.307.35.303.343 3.101z" mask="url(#cn)"/>
            </g>
            <g transform="translate(176.744 196.649)">
                <mask id="cp" fill="#fff">
                    <use xlink:href="#co"/>
                </mask>
                <path fill="#455A64" d="M1.4 3.1L1.407.312.509.309.502 3.1z" mask="url(#cp)"/>
            </g>
            <path fill="#3C0AFF" d="M38.381 166.06s3.916 2.471 3.4 3.142c-.514.67-4.533-1.134-4.79-1.803-.258-.67.67-1.494.67-1.494l.72.154z"/>
            <g transform="translate(22.48 81.145)">
                <mask id="cr" fill="#fff">
                    <use xlink:href="#cq"/>
                </mask>
                <path fill="#424242" d="M2.61 118.605H.759L25.81.74h1.851z" mask="url(#cr)"/>
            </g>
            <g transform="translate(34.109 81.145)">
                <mask id="ct" fill="#fff">
                    <use xlink:href="#cs"/>
                </mask>
                <path fill="#424242" d="M2.09 118.605H.238L25.291.74h1.851z" mask="url(#ct)"/>
            </g>
            <path fill="#424242" d="M58.368 88.673h-10.49l.35-1.646h10.49zM56.926 95.46H46.435l.35-1.644h10.49zM55.483 102.249H44.992l.35-1.646h10.49zM54.04 109.037H43.549l.35-1.646h10.49zM52.597 115.824h-10.49l.349-1.644h10.491zM51.154 122.613h-10.49l.35-1.646h10.49zM49.711 129.4h-10.49l.35-1.645h10.49zM48.269 136.19H37.778l.35-1.647h10.49zM46.826 142.977H36.335l.35-1.645h10.49zM45.383 149.765h-10.49l.349-1.646h10.49zM43.94 156.553H33.45l.349-1.646h10.49zM42.497 163.341h-10.49l.349-1.645h10.49zM41.054 170.129h-10.49l.349-1.646h10.491zM39.612 176.917H29.12l.35-1.646h10.49zM38.169 183.705H27.678l.35-1.645h10.49zM36.726 190.493h-10.49l.349-1.645h10.49z"/>
            <path fill="#FBE3A7" d="M34.415 121.448s1.648 6.868-.137 7.418c-1.786.55-5.358.962-5.77-1.923-.412-2.885 3.022-7.281 5.907-5.495"/>
            <path fill="#424242" d="M28.37 120.761s6.457-2.885 7.281-.55c.825 2.336-4.808 3.435-4.808 3.435s.687 5.906-1.373 6.18c-2.06.276-3.572-7.279-1.1-9.065M36.682 143.152c.206 0 5.941 6.423 6.284 8.896.343 2.472-3.263 14.114-4.018 14.32-.756.207-1.786 0-1.854-.412-.069-.411 1.751-12.26 1.133-12.878-.618-.619-6.148-2.92-6.972-6.629-.824-3.708 5.427-3.297 5.427-3.297"/>
            <path fill="#424242" d="M28.851 145.968s1.65 7.624 3.194 9.891c1.546 2.268-1.03 15.97-.412 16.485.618.514 1.442.514 1.958-.412.515-.927 2.782-11.849 2.884-15.146.103-3.297-.927-11.024-.927-11.024l-6.697.206z"/>
            <path fill="#DB4FFF" d="M34.552 130.515s-3.57-1.786-5.907.548c-2.335 2.336-2.885 10.853-.412 15.386 2.473 3.572 8.517-.412 9.341-2.197.825-1.786-2.472-7.968-3.022-13.737"/>
            <path fill="#FFCC80" d="M43.945 128.969c0-.155.206-2.164 1.546-2.164 1.339 0 1.802.927 1.39 1.03-.412.103-.721-.05-.721-.05s-.515 1.544-1.081 1.648c-.567.102-1.134-.464-1.134-.464"/>
            <path fill="#DB4FFF" d="M38.742 133.606c1.312 1.31 3.71-3.916 5.048-4.946 1.34-1.03 1.958.103 1.958.103s-2.163 7.212-4.224 9.478c-2.06 2.267-6.388-.618-9.17-4.224-2.312-2.997-.07-3.646.932-3.779.203-.027.355-.033.408-.033 0 0 2.37.721 5.048 3.4"/>
            <path fill="#3C0AFF" d="M32.251 172.241s-.617.412-.412 1.34c.206.927 2.782 4.12 3.606 3.709.824-.413-1.854-5.358-1.854-5.358l-1.34.309z"/>
            <path fill="#FFF" d="M237.244 47.198s4.396-.274 4.603.48c.205.757-4.534 1.512-4.809 1.031-.274-.48.206-1.51.206-1.51M243.53 45.138s4.395-.275 4.601.48c.206.756-4.533 1.511-4.808 1.03-.274-.48.206-1.51.206-1.51"/>
        </g>
        <g transform="translate(228.682 13.703)">
            <mask id="cw" fill="#fff">
                <use xlink:href="#cu"/>
            </mask>
            <path fill="url(#cv)" d="M1.075.732C.251 2.105 1.007 9.729 2.93 11.378c1.924 1.65 3.985.413 2.887-1.785-1.1-2.198.068-4.877-1.306-7.213C3.644.91 2.507.637 1.783.637c-.425 0-.708.095-.708.095" mask="url(#cw)"/>
        </g>
        <g transform="translate(202.326 .525)">
            <mask id="cz" fill="#fff">
                <use xlink:href="#cx"/>
            </mask>
            <path fill="url(#cy)" d="M23.448.38c-3.812.823-4.43 3.811-8.036 3.708-3.606-.103-5.77.309-7.624 2.163-1.855 1.855-6.079 0-7.212 3.607-1.133 3.606.104 9.17 5.873 9.17s5.769-4.534 8.963-3.504c3.193 1.03 4.43 1.546 7.315-.103 2.885-1.649 6.49-3.709 6.697-6.49.206-2.782 0-4.843-.824-5.976 0 0-1.065-2.705-4-2.705-.356 0-.74.04-1.152.13" mask="url(#cz)"/>
        </g>
        <g fill="#DB4FFF">
            <path d="M224.263 27.898s-1.511 4.807 2.472 5.906c3.846.275 6.182.412 6.182.412s3.16 14.425 4.121 14.013c.962-.413 1.1-.275 1.1-1.511 0-1.237-1.512-13.188-2.474-14.425-.96-1.236-6.593-3.571-6.593-3.571l-5.358-.412"/>
            <path d="M228.792 27.226s-1.032 4.933 3.04 5.636c3.856-.103 6.193-.196 6.193-.196s4.559 14.045 5.476 13.54c.916-.505 1.066-.38.945-1.612-.121-1.23-2.797-12.975-3.876-14.111-1.078-1.137-6.912-2.908-6.912-2.908l-5.372.115"/>
        </g>
        <g transform="translate(223.256 12.928)">
            <mask id="cC" fill="#fff">
                <use xlink:href="#cA"/>
            </mask>
            <path fill="url(#cB)" d="M2.522.805C.69 1.502-.094 2.722.167 5.25.43 7.78 1.755 10.887 1.32 12.37c-.436 1.482-1.744 1.918-.175 3.836 1.57 1.918 7.045 1.339 8.44.467 1.395-.872 2.528-1.657 1.395-3.4-1.132-1.744-.872-1.831-1.481-3.749-.611-1.919.697-3.053-.175-4.36-.872-1.308-.872-2.354-1.657-3.4C6.882.718 4.353.456 4.353.456s0-.088-.229-.088-.687.088-1.602.437" mask="url(#cC)"/>
        </g>
        <g>
            <path fill="#FFCC80" d="M229.066 4.339s1.716 3.433.592 6.038c-1.1 2.101-2.079 1.97-1.17 3.888 0 0-1.54 1.17-3.185-.477 0 0 1.277-.792-.018-2.233-.977-1.087-2.124-4.03-1.723-6.126.403-2.097 1.682-2.609 3.134-2.509 1.46.101 2.156.793 2.37 1.419"/>
            <path fill="#FF8A65" d="M228.7 6.61s.518 2.047.165 2.28c-.354.233-1.612.034-1.593-.24.02-.271 1.169-.385 1.169-.385s-.31-2.258.26-1.655"/>
        </g>
        <g transform="translate(220.155 15.253)">
            <mask id="cF" fill="#fff">
                <use xlink:href="#cD"/>
            </mask>
            <path fill="url(#cE)" d="M3.755.062c-.402.167-1.279.837-1.844 3.516C1.155 7.15.33 8.797.88 9.965c.549 1.168 7.418 4.464 8.654 4.121 1.237-.343.893-1.03.068-1.717-.824-.687-5.15-2.473-5.22-3.64C4.314 7.56 7.336 3.92 6.374 2.204L3.971.006s-.082 0-.216.056" mask="url(#cF)"/>
        </g>
        <g>
            <path fill="#312E34" d="M239.631 28.413s.465.566-.308.979c-.774.411-9.892 1.905-10.201 1.802-.309-.102-.463-.72-.463-.72l10.972-2.061z"/>
            <path fill="#424242" d="M226.934 24.073a2.043 2.043 0 0 1 1.603-2.352c3.686-.751 11.373-2.205 11.764-1.345.431.949-.148 6.23-.349 7.925a.722.722 0 0 1-.583.624l-10.497 2.026a.727.727 0 0 1-.855-.591l-1.083-6.287z"/>
        </g>
        <g transform="translate(220.93 1.3)">
            <mask id="cI" fill="#fff">
                <use xlink:href="#cG"/>
            </mask>
            <path fill="url(#cH)" d="M4.638.703C2.233 1.116 2.302 1.94.722 4.62c-1.58 2.678.206 5.357 1.306 4.12 1.098-1.237 1.648-1.374 2.815-2.404 1.17-1.03.962-1.992 2.611-2.541 1.648-.55.962-1.786.962-1.786S7.32.638 5.374.638c-.233 0-.479.02-.736.065" mask="url(#cI)"/>
        </g>
        <g transform="translate(0 .525)">
            <path fill="#FFF" d="M235.047 25.21a1.133 1.133 0 1 1-2.267 0 1.133 1.133 0 0 1 2.267 0"/>
            <path fill="#FFA000" d="M267.655 75.693s1.34.412 1.34 2.833v6.389h-2.318.051-2.319v-6.389c0-2.42 1.34-2.833 1.34-2.833h1.906z"/>
            <mask id="cK" fill="#fff">
                <use xlink:href="#cJ"/>
            </mask>
            <path fill="#FFEF80" d="M264.203 75.9h5.049v-2.061h-5.049z" mask="url(#cK)"/>
            <path fill="#FFA000" d="M266.71 75.453a1.236 1.236 0 0 1-1.236-1.237V32.73a1.236 1.236 0 1 1 2.473 0v41.486c0 .683-.553 1.237-1.236 1.237" mask="url(#cK)"/>
        </g>
    </g>
</svg>
