<?xml version="1.0" encoding="UTF-8"?>
<svg width="58px" height="52px" viewBox="0 0 58 52" version="1.1" xmlns="http://www.w3.org/2000/svg" xmlns:xlink="http://www.w3.org/1999/xlink">
    <!-- Generator: Sketch 52.2 (67145) - http://www.bohemiancoding.com/sketch -->
    <title>three</title>
    <desc>Created with Sketch.</desc>
    <g id="Page-1" stroke="none" stroke-width="1" fill="none" fill-rule="evenodd">
        <g id="Badges" transform="translate(-471.000000, -654.000000)">
            <g id="three" transform="translate(471.000000, 653.000000)">
                <path d="M29.392,53 C40.638,53.156 46.912,48.619 50.4,43.811 C54.003,38.845 55.164,32.528 54.047,26.488 C50.004,4.642 29.392,4.827 29.392,4.827 C29.392,4.827 8.781,4.642 4.738,26.488 C3.62,32.528 4.782,38.844 8.385,43.811 C11.872,48.618 18.146,53.156 29.392,53 Z" id="Path" fill="#FDC794"></path>
                <path d="M18.694,20.02 C19.213,18.833 20.397,18.004 21.774,18.004 C23.63,18.004 24.966,19.537 25.134,21.364 C25.134,21.364 25.225,21.818 25.025,22.634 C24.753,23.746 24.114,24.734 23.253,25.488 L18.693,29.416 L14.21,25.487 C13.349,24.733 12.71,23.745 12.438,22.633 C12.238,21.816 12.329,21.363 12.329,21.363 C12.497,19.536 13.833,18.003 15.689,18.003 C17.068,18.003 18.175,18.833 18.694,20.02 Z" id="Path" fill="#E64C3C"></path>
                <path d="M39.539,20.02 C40.058,18.833 41.242,18.004 42.619,18.004 C44.475,18.004 45.811,19.537 45.979,21.364 C45.979,21.364 46.07,21.818 45.87,22.634 C45.598,23.746 44.959,24.734 44.098,25.488 L39.538,29.416 L35.055,25.487 C34.194,24.733 33.555,23.745 33.283,22.633 C33.083,21.816 33.174,21.363 33.174,21.363 C33.342,19.536 34.678,18.003 36.534,18.003 C37.913,18.003 39.02,18.833 39.539,20.02 Z" id="Path" fill="#E64C3C"></path>
                <path d="M4.499,28.125 C4.046,27.696 3.514,27.438 2.94,27.438 C1.316,27.438 0,29.419 0,31.862 C0,34.305 1.316,36.286 2.939,36.286 C3.626,36.286 4.25,35.916 4.75,35.322 C4.297,32.97 4.218,30.538 4.499,28.125 Z" id="Path" fill="#F9A671"></path>
                <path d="M57.823,24.298 C57.26,21.921 55.523,20.299 53.944,20.676 C53.453,20.793 53.046,21.106 52.719,21.531 C53.257,23.046 53.713,24.685 54.047,26.488 C54.202,27.325 54.308,28.167 54.375,29.01 C54.895,29.294 55.447,29.412 55.983,29.284 C57.562,28.908 58.386,26.675 57.823,24.298 Z" id="Path" fill="#F9A671"></path>
                <path d="M13.9,14.999 C13.644,14.999 13.388,14.901 13.193,14.706 L8.193,9.706 C7.802,9.315 7.802,8.683 8.193,8.292 C8.584,7.901 9.216,7.901 9.607,8.292 L14.607,13.292 C14.998,13.683 14.998,14.315 14.607,14.706 C14.412,14.901 14.156,14.999 13.9,14.999 Z" id="Path" fill="#5E5F62"></path>
                <path d="M16.901,11.999 C16.534,11.999 16.181,11.797 16.005,11.446 L13.005,5.446 C12.758,4.952 12.958,4.351 13.452,4.104 C13.947,3.859 14.547,4.058 14.794,4.551 L17.794,10.551 C18.041,11.045 17.841,11.646 17.347,11.893 C17.204,11.964 17.051,11.999 16.901,11.999 Z" id="Path" fill="#5E5F62"></path>
                <path d="M20.9,9.999 C20.481,9.999 20.091,9.734 19.951,9.315 L17.951,3.315 C17.776,2.791 18.059,2.224 18.583,2.05 C19.108,1.874 19.673,2.158 19.848,2.682 L21.848,8.682 C22.023,9.206 21.74,9.773 21.216,9.947 C21.112,9.982 21.005,9.999 20.9,9.999 Z" id="Path" fill="#5E5F62"></path>
                <path d="M25.899,8.999 C25.419,8.999 24.995,8.652 24.914,8.163 L23.914,2.163 C23.823,1.619 24.191,1.103 24.736,1.013 C25.282,0.914 25.796,1.29 25.887,1.835 L26.887,7.835 C26.978,8.379 26.61,8.895 26.065,8.985 C26.009,8.995 25.954,8.999 25.899,8.999 Z" id="Path" fill="#5E5F62"></path>
                <path d="M29.9,8.999 C29.348,8.999 28.9,8.552 28.9,7.999 L28.9,1.999 C28.9,1.446 29.348,0.999 29.9,0.999 C30.452,0.999 30.9,1.446 30.9,1.999 L30.9,7.999 C30.9,8.551 30.453,8.999 29.9,8.999 Z" id="Path" fill="#5E5F62"></path>
                <path d="M33.9,8.999 C33.796,8.999 33.689,8.982 33.584,8.947 C33.06,8.773 32.777,8.207 32.952,7.682 L34.952,1.682 C35.127,1.159 35.69,0.873 36.217,1.05 C36.741,1.224 37.024,1.79 36.849,2.315 L34.849,8.315 C34.709,8.734 34.319,8.999 33.9,8.999 Z" id="Path" fill="#5E5F62"></path>
                <path d="M37.9,9.999 C37.796,9.999 37.689,9.982 37.584,9.947 C37.06,9.773 36.777,9.207 36.952,8.682 L38.952,2.682 C39.126,2.159 39.692,1.874 40.217,2.05 C40.741,2.224 41.024,2.79 40.849,3.315 L38.849,9.315 C38.709,9.734 38.319,9.999 37.9,9.999 Z" id="Path" fill="#5E5F62"></path>
                <path d="M40.899,11.999 C40.749,11.999 40.596,11.965 40.453,11.894 C39.959,11.647 39.759,11.046 40.006,10.552 L43.006,4.552 C43.254,4.059 43.852,3.86 44.348,4.105 C44.842,4.352 45.042,4.953 44.795,5.447 L41.795,11.447 C41.62,11.796 41.267,11.999 40.899,11.999 Z" id="Path" fill="#5E5F62"></path>
                <path d="M44.6,36.204 L40.6,33.204 C40.157,32.874 39.531,32.963 39.2,33.404 C38.868,33.845 38.958,34.472 39.4,34.803 L40.811,35.861 C39.543,37.46 35.486,42.031 29.924,42.869 C26.407,43.404 22.877,42.321 19.42,39.688 L20.6,38.803 C21.042,38.472 21.131,37.845 20.8,37.404 C20.47,36.962 19.844,36.873 19.4,37.204 L15.4,40.204 C14.958,40.535 14.869,41.162 15.2,41.603 C15.396,41.866 15.697,42.003 16.001,42.003 C16.209,42.003 16.42,41.938 16.6,41.803 L17.776,40.921 C17.81,40.957 17.831,41.002 17.872,41.034 C21.216,43.674 24.664,45.005 28.149,45.005 C28.838,45.005 29.529,44.952 30.221,44.849 C36.572,43.891 41.017,38.848 42.413,37.064 L43.4,37.804 C43.58,37.939 43.791,38.004 43.999,38.004 C44.303,38.004 44.603,37.866 44.8,37.604 C45.131,37.162 45.042,36.535 44.6,36.204 Z" id="Path" fill="#F9A671"></path>
            </g>
        </g>
    </g>
</svg>