<?xml version="1.0" encoding="UTF-8"?>
<svg width="58px" height="52px" viewBox="0 0 58 52" version="1.1" xmlns="http://www.w3.org/2000/svg" xmlns:xlink="http://www.w3.org/1999/xlink">
    <!-- Generator: Sketch 52.2 (67145) - http://www.bohemiancoding.com/sketch -->
    <title>two</title>
    <desc>Created with Sketch.</desc>
    <g id="Page-1" stroke="none" stroke-width="1" fill="none" fill-rule="evenodd">
        <g id="Badges" transform="translate(-361.000000, -654.000000)">
            <g id="two" transform="translate(361.000000, 653.000000)">
                <path d="M29.392,52.999 C40.638,53.155 46.912,48.618 50.4,43.81 C54.003,38.844 55.164,32.527 54.047,26.487 C50.004,4.642 29.392,4.827 29.392,4.827 C29.392,4.827 8.781,4.642 4.738,26.488 C3.62,32.528 4.782,38.844 8.385,43.811 C11.872,48.618 18.146,53.155 29.392,52.999 Z" id="Path" fill="#FDC794"></path>
                <path d="M4.499,28.125 C4.046,27.696 3.514,27.438 2.94,27.438 C1.316,27.438 0,29.419 0,31.862 C0,34.305 1.316,36.286 2.939,36.286 C3.626,36.286 4.25,35.916 4.75,35.322 C4.297,32.97 4.218,30.538 4.499,28.125 Z" id="Path" fill="#F9A671"></path>
                <path d="M57.823,24.298 C57.26,21.921 55.523,20.299 53.944,20.676 C53.453,20.793 53.046,21.106 52.719,21.531 C53.257,23.046 53.713,24.685 54.047,26.488 C54.202,27.325 54.308,28.167 54.375,29.01 C54.895,29.294 55.447,29.412 55.983,29.284 C57.562,28.907 58.386,26.675 57.823,24.298 Z" id="Path" fill="#F9A671"></path>
                <path d="M13.9,14.999 C13.644,14.999 13.388,14.901 13.193,14.706 L8.193,9.706 C7.802,9.315 7.802,8.683 8.193,8.292 C8.584,7.901 9.216,7.901 9.607,8.292 L14.607,13.292 C14.998,13.683 14.998,14.315 14.607,14.706 C14.412,14.901 14.156,14.999 13.9,14.999 Z" id="Path" fill="#5E5F62"></path>
                <path d="M16.901,11.999 C16.534,11.999 16.181,11.797 16.005,11.446 L13.005,5.446 C12.758,4.952 12.958,4.351 13.452,4.104 C13.947,3.858 14.546,4.057 14.794,4.551 L17.794,10.551 C18.041,11.045 17.841,11.646 17.347,11.893 C17.204,11.965 17.052,11.999 16.901,11.999 Z" id="Path" fill="#5E5F62"></path>
                <path d="M20.9,9.999 C20.481,9.999 20.091,9.734 19.952,9.315 L17.952,3.315 C17.777,2.791 18.06,2.224 18.584,2.05 C19.111,1.873 19.675,2.158 19.849,2.682 L21.849,8.682 C22.024,9.206 21.741,9.773 21.217,9.947 C21.111,9.982 21.005,9.999 20.9,9.999 Z" id="Path" fill="#5E5F62"></path>
                <path d="M25.899,8.999 C25.419,8.999 24.995,8.652 24.914,8.163 L23.914,2.163 C23.823,1.619 24.191,1.103 24.736,1.013 C25.279,0.914 25.797,1.29 25.886,1.835 L26.886,7.835 C26.977,8.379 26.609,8.895 26.064,8.985 C26.009,8.995 25.954,8.999 25.899,8.999 Z" id="Path" fill="#5E5F62"></path>
                <path d="M29.9,8.999 C29.347,8.999 28.9,8.552 28.9,7.999 L28.9,1.999 C28.9,1.446 29.347,0.999 29.9,0.999 C30.453,0.999 30.9,1.446 30.9,1.999 L30.9,7.999 C30.9,8.552 30.453,8.999 29.9,8.999 Z" id="Path" fill="#5E5F62"></path>
                <path d="M33.9,8.999 C33.796,8.999 33.689,8.982 33.584,8.947 C33.061,8.773 32.777,8.207 32.952,7.682 L34.952,1.682 C35.127,1.159 35.688,0.873 36.217,1.05 C36.74,1.224 37.024,1.79 36.849,2.315 L34.849,8.315 C34.709,8.734 34.319,8.999 33.9,8.999 Z" id="Path" fill="#5E5F62"></path>
                <path d="M37.9,9.999 C37.796,9.999 37.689,9.982 37.584,9.947 C37.061,9.773 36.777,9.207 36.952,8.682 L38.952,2.682 C39.127,2.159 39.689,1.873 40.217,2.05 C40.74,2.224 41.024,2.79 40.849,3.315 L38.849,9.315 C38.709,9.734 38.319,9.999 37.9,9.999 Z" id="Path" fill="#5E5F62"></path>
                <path d="M40.899,11.999 C40.749,11.999 40.596,11.965 40.453,11.894 C39.959,11.647 39.759,11.046 40.006,10.552 L43.006,4.552 C43.254,4.058 43.854,3.859 44.348,4.105 C44.842,4.352 45.042,4.953 44.795,5.447 L41.795,11.447 C41.619,11.797 41.267,11.999 40.899,11.999 Z" id="Path" fill="#5E5F62"></path>
                <ellipse id="Oval" fill="#FFFFFF" cx="20" cy="22.499" rx="6" ry="7.5"></ellipse>
                <ellipse id="Oval" fill="#7F5B53" cx="20" cy="22.499" rx="3" ry="4.5"></ellipse>
                <ellipse id="Oval" fill="#FFFFFF" cx="38" cy="22.499" rx="6" ry="7.5"></ellipse>
                <ellipse id="Oval" fill="#7F5B53" cx="38" cy="22.499" rx="3" ry="4.5"></ellipse>
                <path d="M16,36.999 L16,37.03 C16,40.851 18.109,44.413 21.543,46.089 C23.682,47.133 26.235,47.774 28.985,47.774 C31.732,47.774 34.289,47.134 36.434,46.092 C39.884,44.416 42,40.835 41.989085,36.999 L16,36.999 Z" id="Path" fill="#802D40"></path>
                <path d="M38.029,45.085 L38,44.999 C38,42.537 33.716,41.457 28.996,41.457 C24.276,41.457 20,42.536 20,44.999 L19.986,45.11 C20.472,45.477 20.983,45.816 21.543,46.089 C23.682,47.133 26.235,47.774 28.985,47.774 C31.732,47.774 34.289,47.134 36.434,46.092 C37.009,45.812 37.532,45.463 38.029,45.085 Z" id="Path" fill="#E64C3C"></path>
            </g>
        </g>
    </g>
</svg>