<?xml version="1.0" encoding="UTF-8"?>
<svg width="56px" height="56px" viewBox="0 0 56 56" version="1.1" xmlns="http://www.w3.org/2000/svg" xmlns:xlink="http://www.w3.org/1999/xlink">
    <!-- Generator: sketchtool 51.2 (57519) - http://www.bohemiancoding.com/sketch -->
    <title>4498C9D8-3FA7-4CD4-9745-246F8900C27B</title>
    <desc>Created with sketchtool.</desc>
    <defs>
        <filter x="-3.5%" y="-7.5%" width="107.0%" height="125.0%" filterUnits="objectBoundingBox" id="filter-1">
            <feOffset dx="0" dy="6" in="SourceAlpha" result="shadowOffsetOuter1"></feOffset>
            <feGaussianBlur stdDeviation="4" in="shadowOffsetOuter1" result="shadowBlurOuter1"></feGaussianBlur>
            <feColorMatrix values="0 0 0 0 0.741176471   0 0 0 0 0.815686275   0 0 0 0 0.874509804  0 0 0 0.6 0" type="matrix" in="shadowBlurOuter1" result="shadowMatrixOuter1"></feColorMatrix>
            <feMerge>
                <feMergeNode in="shadowMatrixOuter1"></feMergeNode>
                <feMergeNode in="SourceGraphic"></feMergeNode>
            </feMerge>
        </filter>
    </defs>
    <g id="Learner" stroke="none" stroke-width="1" fill="none" fill-rule="evenodd">
        <g id="Onboarding/Categories" transform="translate(-256.000000, -443.000000)" fill="#1F9AFF" fill-rule="nonzero">
            <g id="Completed-Programs" filter="url(#filter-1)" transform="translate(224.000000, 405.000000)">
                <g id="Card-Copy-2">
                    <g id="Icon" transform="translate(20.000000, 20.000000)">
                        <g id="blockchain" transform="translate(20.000000, 20.000000)">
                            <path d="M20,7.30765625 C13.0014844,7.30765625 7.30765625,13.0014063 7.30765625,20 C7.30765625,26.9985937 13.0014844,32.6923437 20,32.6923437 C26.9985156,32.6923437 32.6923437,26.9985156 32.6923437,20 C32.6923437,13.0014844 26.9985156,7.30765625 20,7.30765625 Z M25,17.8365625 C25,18.6627344 24.6957031,19.41875 24.1942969,20 C24.6957812,20.5813281 25,21.3373438 25,22.1634375 L25,22.6442188 C25,24.4733594 23.511875,25.9615625 21.6826563,25.9615625 L21.1538281,25.9615625 L21.1538281,27.6923437 C21.1538281,28.3296094 20.6371875,28.8461719 20,28.8461719 C19.3628125,28.8461719 18.8461719,28.3295312 18.8461719,27.6923437 L18.8461719,25.9615625 L16.1538281,25.9615625 C15.5165625,25.9615625 15,25.4449219 15,24.8077344 L15,15.1923437 C15,14.5550781 15.5166406,14.0385156 16.1538281,14.0385156 L18.8461719,14.0385156 L18.8461719,12.3077344 C18.8461719,11.6704687 19.3628125,11.1539062 20,11.1539062 C20.6371875,11.1539062 21.1538281,11.6705469 21.1538281,12.3077344 L21.1538281,14.0385156 L21.6826563,14.0385156 C23.5117969,14.0385156 25,15.5266406 25,17.3558594 L25,17.8365625 Z" id="Shape"></path>
                            <path d="M21.6826562,21.1538281 L17.3076563,21.1538281 L17.3076563,23.6538281 L21.6826562,23.6538281 C22.239375,23.6538281 22.6922656,23.2009375 22.6922656,22.6442188 L22.6922656,22.1634375 C22.6923437,21.6067969 22.239375,21.1538281 21.6826562,21.1538281 Z" id="Shape"></path>
                            <path d="M21.6826562,16.3461719 L17.3076563,16.3461719 L17.3076563,18.8461719 L21.6826562,18.8461719 C22.239375,18.8461719 22.6922656,18.3932813 22.6922656,17.8365625 L22.6922656,17.3557812 C22.6923437,16.7990625 22.239375,16.3461719 21.6826562,16.3461719 Z" id="Shape"></path>
                            <path d="M34.1421875,5.8578125 C30.3646094,2.08039063 25.3421875,0 20,0 C14.6578125,0 9.63539062,2.08039063 5.8578125,5.8578125 C2.0803125,9.6353125 0,14.6578125 0,20 C0,25.3421875 2.08039063,30.3646094 5.8578125,34.1421875 C9.6353125,37.9196875 14.6578125,40 20,40 C25.3421875,40 30.3646094,37.9196094 34.1421875,34.1421875 C37.9196875,30.3646875 40,25.3421875 40,20 C40,14.6578125 37.9196094,9.63539062 34.1421875,5.8578125 Z M20,35 C11.7289844,35 5,28.2710156 5,20 C5,11.7289844 11.7289844,5 20,5 C28.2710156,5 35,11.7289844 35,20 C35,28.2710156 28.2710156,35 20,35 Z" id="Shape"></path>
                        </g>
                    </g>
                </g>
            </g>
        </g>
    </g>
</svg>