<svg xmlns="http://www.w3.org/2000/svg" width="20" height="17" viewBox="0 0 20 17">
    <g fill="#717C93" fill-rule="nonzero" opacity=".6">
        <path d="M.728 3.573A2.378 2.378 0 0 0 0 5.316v9.177c0 .677.243 1.258.728 1.743a2.378 2.378 0 0 0 1.743.728h.706V2.845H2.47c-.677 0-1.258.243-1.743.728zM14.12 1.08c0-.294-.103-.544-.31-.75a1.02 1.02 0 0 0-.75-.309H6.708c-.294 0-.544.103-.75.309a1.02 1.02 0 0 0-.31.75v1.765H4.237v14.12h11.296V2.844H14.12V1.08zm-1.412 1.765H7.06V1.433h5.648v1.412zM19.04 3.573a2.378 2.378 0 0 0-1.744-.728h-.706v14.12h.706c.677 0 1.258-.243 1.743-.729a2.378 2.378 0 0 0 .728-1.743V5.316c0-.677-.242-1.258-.728-1.743z"/>
    </g>
</svg>
