<svg xmlns="http://www.w3.org/2000/svg" width="80" height="80" viewBox="0 0 80 80">
    <g fill="#1F9AFF" fill-rule="nonzero">
        <circle cx="40" cy="40" r="40" fill-opacity=".1"/>
        <path d="M23.516 34.14h-2.344a1.171 1.171 0 1 0 0 2.343h2.344a1.171 1.171 0 1 0 0-2.344zM24.079 28.28l-1.657-1.657a1.172 1.172 0 1 0-1.657 1.657l1.657 1.657a1.171 1.171 0 1 0 1.657-1.657zM24.079 40.686a1.171 1.171 0 0 0-1.657 0l-1.657 1.657A1.172 1.172 0 1 0 22.422 44l1.657-1.657c.458-.458.458-1.2 0-1.657zM58.828 34.14h-2.344a1.171 1.171 0 1 0 0 2.343h2.344a1.171 1.171 0 1 0 0-2.344zM59.235 26.623a1.172 1.172 0 0 0-1.657 0l-1.657 1.657a1.172 1.172 0 1 0 1.657 1.657l1.657-1.657c.458-.458.458-1.2 0-1.657zM59.235 42.343l-1.657-1.657a1.172 1.172 0 1 0-1.657 1.657L57.578 44a1.171 1.171 0 1 0 1.657-1.657zM48.863 23.144c-3.305-2.687-7.64-3.722-11.883-2.83-5.29 1.105-9.597 5.477-10.719 10.764-.953 4.499.224 9.015 3.227 12.39a9.013 9.013 0 0 1 2.197 4.734h3.628V37.655c0-.454 3.436-7.15 3.639-7.555.398-.794 1.698-.794 2.096 0 .213.425 3.64 7.124 3.64 7.555v10.547h3.631c.251-1.71 1.014-3.385 2.262-4.81a14.027 14.027 0 0 0 3.481-9.253c0-4.253-1.895-8.31-5.199-10.995z"/>
        <path d="M40 39.896a7.469 7.469 0 0 1-2.344-.39v8.696h4.688v-8.696a7.469 7.469 0 0 1-2.344.39zM31.797 50.546v1.172a3.52 3.52 0 0 0 3.515 3.515h9.376a3.52 3.52 0 0 0 3.515-3.515v-1.172H31.797zM40 33.245l-1.937 3.873a5.069 5.069 0 0 0 3.874 0L40 33.245zM34.356 57.577c.486 1.361 1.774 2.422 3.3 2.422h4.688c1.526 0 2.814-1.06 3.3-2.422H34.356z"/>
    </g>
</svg>
