<?xml version="1.0" encoding="UTF-8"?>
<svg width="20px" height="20px" viewBox="0 0 20 20" version="1.1" xmlns="http://www.w3.org/2000/svg" xmlns:xlink="http://www.w3.org/1999/xlink">
    <!-- Generator: Sketch 52.3 (67297) - http://www.bohemiancoding.com/sketch -->
    <title>close</title>
    <desc>Created with Sketch.</desc>
    <g id="New-Flow" stroke="none" stroke-width="1" fill="none" fill-rule="evenodd">
        <g id="Learner/Learning-Paths/Path/Section/Assesment/End" transform="translate(-1236.000000, -776.000000)" fill="#FF4948" fill-rule="nonzero">
            <g id="close" transform="translate(1236.000000, 776.000000)">
                <path d="M17.0742137,2.92554588 C13.1736141,-0.975053668 6.82653022,-0.975438457 2.92554588,2.92554588 C-0.975438457,6.82653022 -0.975053668,13.1732293 2.92554588,17.0742137 C6.82614543,20.975198 13.1732293,20.975198 17.0742137,17.0742137 C20.9748132,13.1732293 20.9748132,6.82614543 17.0742137,2.92554588 Z M13.9451148,13.9451148 C13.6445951,14.2456345 13.157453,14.2456345 12.8569333,13.9451148 L9.99987977,11.0880612 L7.00699595,14.0809451 C6.70647625,14.3814648 6.21933419,14.3814648 5.91881449,14.0809451 C5.61829478,13.7804254 5.61829478,13.2932833 5.91881449,12.9927636 L8.91169831,9.99987977 L6.05464478,7.14282624 C5.75412507,6.84230654 5.75412507,6.35477969 6.05464478,6.05464478 C6.35516448,5.75412507 6.84230654,5.75412507 7.14282624,6.05464478 L9.99987977,8.91169831 L12.7207182,6.19085985 C13.0212379,5.89034015 13.50838,5.89034015 13.8088997,6.19085985 C14.1094194,6.49137956 14.1094194,6.97852162 13.8088997,7.27904132 L11.0880612,9.99987977 L13.9451148,12.8569333 C14.2456345,13.157453 14.2456345,13.6445951 13.9451148,13.9451148 Z" id="Shape"></path>
            </g>
        </g>
    </g>
</svg>