<?xml version="1.0" encoding="UTF-8"?>
<svg width="17px" height="17px" viewBox="0 0 17 17" version="1.1" xmlns="http://www.w3.org/2000/svg" xmlns:xlink="http://www.w3.org/1999/xlink">
    <!-- Generator: Sketch 52.2 (67145) - http://www.bohemiancoding.com/sketch -->
    <title>done-white</title>
    <desc>Created with Sketch.</desc>
    <g id="New-Flow" stroke="none" stroke-width="1" fill="none" fill-rule="evenodd">
        <g id="Artboard" transform="translate(-461.000000, -517.000000)" fill="#FFFFFF" fill-rule="nonzero">
            <path d="M469.5,517 C464.813231,517 461,520.812904 461,525.5 C461,530.187096 464.813231,534 469.5,534 C474.186769,534 478,530.187096 478,525.5 C478,520.812904 474.186769,517 469.5,517 Z M474.23875,522.66525 L469.007981,528.549865 C468.879173,528.694692 468.699692,528.769231 468.518904,528.769231 C468.375385,528.769231 468.231212,528.722154 468.110577,528.626039 L464.841346,526.010654 C464.559538,525.785404 464.513769,525.373808 464.739346,525.091673 C464.964596,524.809538 465.376519,524.763769 465.658327,524.989346 L468.442731,527.216673 L473.26125,521.795962 C473.500558,521.525923 473.914442,521.501731 474.184154,521.741692 C474.454192,521.981981 474.478711,522.395212 474.23875,522.66525 Z" id="done-white"></path>
        </g>
    </g>
</svg>