<?xml version="1.0" encoding="UTF-8"?>
<svg width="17px" height="17px" viewBox="0 0 17 17" version="1.1" xmlns="http://www.w3.org/2000/svg" xmlns:xlink="http://www.w3.org/1999/xlink">
    <!-- Generator: Sketch 52.2 (67145) - http://www.bohemiancoding.com/sketch -->
    <title>done-blue</title>
    <desc>Created with Sketch.</desc>
    <g id="New-Flow" stroke="none" stroke-width="1" fill="none" fill-rule="evenodd">
        <g id="Artboard" transform="translate(-461.000000, -588.000000)" fill="#0064DC" fill-rule="nonzero">
            <path d="M469.5,588 C464.813231,588 461,591.812904 461,596.5 C461,601.187096 464.813231,605 469.5,605 C474.186769,605 478,601.187096 478,596.5 C478,591.812904 474.186769,588 469.5,588 Z M474.23875,593.66525 L469.007981,599.549865 C468.879173,599.694692 468.699692,599.769231 468.518904,599.769231 C468.375385,599.769231 468.231212,599.722154 468.110577,599.626039 L464.841346,597.010654 C464.559538,596.785404 464.513769,596.373808 464.739346,596.091673 C464.964596,595.809538 465.376519,595.763769 465.658327,595.989346 L468.442731,598.216673 L473.26125,592.795962 C473.500558,592.525923 473.914442,592.501731 474.184154,592.741692 C474.454192,592.981981 474.478711,593.395212 474.23875,593.66525 Z" id="done-blue"></path>
        </g>
    </g>
</svg>