<svg xmlns="http://www.w3.org/2000/svg" width="23" height="23" viewBox="0 0 23 23">
    <g fill="#717C93" fill-rule="nonzero" opacity=".6">
        <path d="M8.597 7.8l-1.4-1.323a2.05 2.05 0 0 0 .264-.993A2.075 2.075 0 1 0 5.386 7.56c.405 0 .778-.12 1.098-.32L7.88 8.56c.211-.279.45-.535.716-.76zM14.514 7.634l1.86-3.128c.183.052.372.09.572.09a2.075 2.075 0 1 0-1.474-.617l-1.854 3.12c.319.144.62.324.896.535zM20.926 10.253c-.893 0-1.649.567-1.942 1.358l-2.583-.255c0 .02.003.038.003.057 0 .337-.037.666-.104.984l2.582.254A2.071 2.071 0 0 0 23 12.328a2.074 2.074 0 0 0-2.074-2.075zM13.799 18.412l-.578-2.523a4.728 4.728 0 0 1-1.019.235l.579 2.524a2.068 2.068 0 0 0 .955 3.906 2.073 2.073 0 0 0 .063-4.142zM7.026 12.415L3.81 13.492A2.073 2.073 0 0 0 0 14.624a2.076 2.076 0 0 0 4.15 0c0-.048-.01-.092-.014-.139l3.225-1.08a4.738 4.738 0 0 1-.335-.99z"/>
        <circle cx="11.661" cy="11.413" r="3.558"/>
    </g>
</svg>
