<?xml version="1.0" encoding="UTF-8"?>
<svg width="49px" height="56px" viewBox="0 0 49 56" version="1.1" xmlns="http://www.w3.org/2000/svg" xmlns:xlink="http://www.w3.org/1999/xlink">
    <!-- Generator: sketchtool 51.2 (57519) - http://www.bohemiancoding.com/sketch -->
    <title>EF4C91A6-633B-401D-989C-E8C51523D731</title>
    <desc>Created with sketchtool.</desc>
    <defs>
        <filter x="-3.5%" y="-7.5%" width="107.0%" height="125.0%" filterUnits="objectBoundingBox" id="filter-1">
            <feOffset dx="0" dy="6" in="SourceAlpha" result="shadowOffsetOuter1"></feOffset>
            <feGaussianBlur stdDeviation="4" in="shadowOffsetOuter1" result="shadowBlurOuter1"></feGaussianBlur>
            <feColorMatrix values="0 0 0 0 0.741176471   0 0 0 0 0.815686275   0 0 0 0 0.874509804  0 0 0 0.6 0" type="matrix" in="shadowBlurOuter1" result="shadowMatrixOuter1"></feColorMatrix>
            <feMerge>
                <feMergeNode in="shadowMatrixOuter1"></feMergeNode>
                <feMergeNode in="SourceGraphic"></feMergeNode>
            </feMerge>
        </filter>
    </defs>
    <g id="Learner" stroke="none" stroke-width="1" fill="none" fill-rule="evenodd">
        <g id="Onboarding/Categories" transform="translate(-260.000000, -593.000000)" fill="#1F9AFF" fill-rule="nonzero">
            <g id="Completed-Programs-Copy-2" filter="url(#filter-1)" transform="translate(224.000000, 555.000000)">
                <g id="Card-Copy-2">
                    <g id="Icon" transform="translate(20.000000, 20.000000)">
                        <g id="data-science" transform="translate(24.000000, 20.000000)">
                            <path d="M15.3124219,14.06125 C14.6658594,14.06125 14.1404688,14.5865625 14.1404688,15.2332031 C14.1404688,15.8798438 14.6657812,16.4051562 15.3124219,16.4051562 C15.9590625,16.4051562 16.484375,15.8797656 16.484375,15.2332031 C16.484375,14.5866406 15.9590625,14.06125 15.3124219,14.06125 Z" id="Shape"></path>
                            <path d="M32.7677344,24.0833594 C32.6282813,23.71 30.5392188,20.4300781 30.5475,15.2332812 C30.5475,6.20265625 22.6913281,-0.968125 13.4710156,0.106953125 C6.84570313,0.88515625 1.2928125,6.21835937 0.268515625,12.7875781 C-0.4959375,17.6892969 1.05015625,22.4971875 4.51101563,25.9775 C6.18648438,27.6610156 7.10890625,29.7850781 7.10890625,31.9560937 L7.10890625,38.8280469 C7.10890625,39.4757812 7.63304688,40 8.28085938,40 L22.3439844,40 C22.9917188,40 23.5159375,39.4758594 23.5159375,38.8280469 L23.5159375,35.1560156 L27.0317188,35.1560156 C27.6794531,35.1560156 28.2036719,34.631875 28.2036719,33.9840625 L28.2036719,25.7805469 L31.719375,25.7805469 C32.125625,25.7805469 32.5032813,25.57 32.71625,25.224375 C32.9302344,24.87875 32.9496875,24.4472656 32.7677344,24.0833594 Z M24.6878125,16.4051562 L23.3974219,16.4051562 C23.196875,17.788125 22.6617188,19.0524219 21.8595313,20.1232031 L22.7707813,21.0345313 C23.2285156,21.4922656 23.2285156,22.2339844 22.7707813,22.6917187 C22.3130469,23.1494531 21.5713281,23.1494531 21.1135938,22.6917187 L20.2022656,21.7804687 C19.1314844,22.5825781 17.8671875,23.1178125 16.4842188,23.3183594 L16.4842188,24.60875 C16.4842188,25.2564844 15.9600781,25.7807031 15.3122656,25.7807031 C14.6644531,25.7807031 14.1403125,25.2565625 14.1403125,24.60875 L14.1403125,23.3183594 C12.7573438,23.1178125 11.4929688,22.5826562 10.4222656,21.7804687 L9.51101563,22.6917187 C9.05328125,23.1494531 8.3115625,23.1494531 7.85382813,22.6917187 C7.39609375,22.2339844 7.39609375,21.4922656 7.85382813,21.0345313 L8.76515625,20.1232031 C7.96304688,19.0524219 7.4278125,17.788125 7.22726563,16.4051562 L5.936875,16.4051562 C5.28914062,16.4051562 4.76492188,15.8810156 4.76492188,15.2332031 C4.76492188,14.5853906 5.2890625,14.06125 5.936875,14.06125 L7.22726563,14.06125 C7.4278125,12.6782812 7.96296875,11.4139062 8.76515625,10.3432031 L7.85382813,9.43195312 C7.39609375,8.97421875 7.39609375,8.2325 7.85382813,7.77476562 C8.3115625,7.31703125 9.05328125,7.31703125 9.51101563,7.77476562 L10.4222656,8.68609375 C11.4930469,7.88398437 12.7573438,7.34875 14.1403125,7.14820312 L14.1403125,5.8578125 C14.1403125,5.21007813 14.6644531,4.68585938 15.3122656,4.68585938 C15.9600781,4.68585938 16.484375,5.21 16.484375,5.8578125 L16.484375,7.14820312 C17.8673438,7.34875 19.1316406,7.88390625 20.2024219,8.68609375 L21.11375,7.77476562 C21.5714844,7.31703125 22.3132031,7.31703125 22.7709375,7.77476562 C23.2286719,8.2325 23.2286719,8.97421875 22.7709375,9.43195312 L21.8596875,10.3432031 C22.6617969,11.4139844 23.1970313,12.6782813 23.3975781,14.06125 L24.6879688,14.06125 C25.3357031,14.06125 25.8599219,14.5853906 25.8599219,15.2332031 C25.8597656,15.8809375 25.335625,16.4051562 24.6878125,16.4051562 Z" id="Shape"></path>
                            <path d="M15.3124219,9.37359375 C12.0815625,9.37359375 9.4528125,12.0024219 9.4528125,15.2332031 C9.4528125,18.4639844 12.0815625,21.0928125 15.3124219,21.0928125 C18.5432812,21.0928125 21.1720312,18.4640625 21.1720312,15.2332031 C21.1720312,12.0023438 18.5432812,9.37359375 15.3124219,9.37359375 Z M15.3124219,18.7489844 C13.37375,18.7489844 11.7966406,17.171875 11.7966406,15.2332031 C11.7966406,13.2945312 13.37375,11.7174219 15.3124219,11.7174219 C17.2510937,11.7174219 18.8282031,13.2945312 18.8282031,15.2332031 C18.8282031,17.171875 17.2511719,18.7489844 15.3124219,18.7489844 Z" id="Shape"></path>
                        </g>
                    </g>
                </g>
            </g>
        </g>
    </g>
</svg>