<svg width="18" height="20" xmlns="http://www.w3.org/2000/svg">
 <g>
  <title>background</title>
  <rect x="-1" y="-1" width="3.124999" height="3.249999" id="canvas_background" fill="none"/>
 </g>

 <g>
  <title>Layer 1</title>
  <g fill="none" fill-rule="evenodd" stroke="#FFFF" stroke-linecap="round" stroke-linejoin="round" stroke-width="1.5" id="svg_1">
   <path d="m1,4.6l16.2,0m-1.8,0l0,12.6a1.8,1.8 0 0 1 -1.8,1.8l-9,0a1.8,1.8 0 0 1 -1.8,-1.8l0,-12.6m2.7,0l0,-1.8a1.8,1.8 0 0 1 1.8,-1.8l3.6,0a1.8,1.8 0 0 1 1.8,1.8l0,1.8m-5.4,4.5l0,5.4m3.6,-5.4l0,5.4" id="svg_2"/>
  </g>
 </g>
</svg>