<svg xmlns="http://www.w3.org/2000/svg" width="18" height="18" viewBox="0 0 18 18">
    <path fill="#6F7E99" fill-opacity=".8" fill-rule="evenodd" d="M15.566 0H2.424A2.424 2.424 0 0 0 0 2.424v13.142a2.424 2.424 0 0 0 2.424 2.425h6.482l.011-6.43h-1.67a.394.394 0 0 1-.394-.392l-.008-2.072c-.001-.218.176-.396.394-.396h1.667V6.7c0-2.324 1.42-3.59 3.492-3.59h1.701c.218 0 .394.177.394.395v1.747a.394.394 0 0 1-.394.394l-1.044.001c-1.127 0-1.345.536-1.345 1.322V8.7h2.477c.236 0 .419.206.391.44l-.245 2.073a.394.394 0 0 1-.392.348h-2.22l-.011 6.429h3.856a2.424 2.424 0 0 0 2.425-2.425V2.424A2.424 2.424 0 0 0 15.566 0z"/>
</svg>
