<svg xmlns="http://www.w3.org/2000/svg" width="80" height="23" viewBox="0 0 80 23">
    <path fill="#253858" fill-rule="nonzero" d="M79.11 10.357a.316.316 0 0 0 .294-.293V8.667a.316.316 0 0 0-.294-.294h-2.94V3.964a.316.316 0 0 0-.293-.294H74.48a.316.316 0 0 0-.294.294v4.41h-1.47a.316.316 0 0 0-.294.293v1.397c0 .147.147.293.294.293h1.47v6.688c0 2.057 1.396 3.38 3.38 3.38h1.47a.316.316 0 0 0 .294-.294v-1.396a.316.316 0 0 0-.294-.294h-1.323c-.955 0-1.617-.661-1.617-1.69v-6.467h3.013v.073h.001zm-11.096-1.91a.316.316 0 0 0-.294.294v11.537c0 .147.147.294.294.294h1.396a.316.316 0 0 0 .294-.294V8.741a.316.316 0 0 0-.294-.294h-1.396zm.661-4.85c-.735 0-1.322.588-1.322 1.323 0 .734.587 1.322 1.322 1.322.735 0 1.323-.588 1.323-1.322 0-.735-.588-1.323-1.323-1.323zM63.31 9.843a5.836 5.836 0 0 0-4.261-1.837c-1.544 0-3.087.661-4.042 1.617V2.274a.316.316 0 0 0-.294-.294h-1.396a.316.316 0 0 0-.294.294V14.4c0 4.483 3.013 6.467 5.952 6.467 2.94 0 5.953-1.984 5.953-6.467.073-1.763-.515-3.38-1.617-4.556l-.001-.001zm-4.26 9.187c-2.94 0-4.042-2.352-4.042-4.556 0-2.72 1.617-4.483 4.042-4.483s4.041 1.837 4.041 4.483c-.073 2.204-1.102 4.556-4.041 4.556zm-9.187-8.673a.316.316 0 0 0 .294-.293V8.667a.316.316 0 0 0-.294-.294h-2.94V3.964a.316.316 0 0 0-.293-.294h-1.397a.316.316 0 0 0-.294.294v4.41h-1.47a.316.316 0 0 0-.293.293v1.397c0 .147.147.293.294.293h1.47v6.688c0 2.057 1.396 3.38 3.38 3.38h1.47a.316.316 0 0 0 .293-.294v-1.396a.316.316 0 0 0-.294-.294H48.54c-.955 0-1.616-.661-1.616-1.69v-6.467h2.939v.073zM38.4 8.447a.316.316 0 0 0-.295.294v11.537c0 .147.147.294.294.294h1.396a.316.316 0 0 0 .294-.294V8.741a.316.316 0 0 0-.294-.294H38.4zm.734-4.85c-.735 0-1.323.588-1.323 1.323 0 .734.588 1.322 1.323 1.322s1.323-.588 1.323-1.322c0-.735-.588-1.323-1.323-1.323zm-9.48 6.76v9.848c0 .147.147.294.294.294h1.397a.316.316 0 0 0 .294-.294v-9.848h3.233a.316.316 0 0 0 .294-.293V8.667a.316.316 0 0 0-.294-.294h-3.233V5.801c0-1.028.734-1.763 1.616-1.763h1.617a.316.316 0 0 0 .294-.294V2.348a.316.316 0 0 0-.294-.294h-1.543c-2.058 0-3.675 1.69-3.675 3.674v2.645h-1.47a.316.316 0 0 0-.293.294v1.397c0 .147.147.293.294.293h1.47-.001zM12.091 2.054a1.63 1.63 0 0 1-1.616 1.616 1.631 1.631 0 0 1-1.617-1.616c0-.882.735-1.617 1.617-1.617a1.63 1.63 0 0 1 1.616 1.617zm-1.616 2.939c-.956 0-1.69.735-1.69 1.69 0 .956.734 1.69 1.69 1.69.955 0 1.69-.734 1.69-1.69 0-.955-.735-1.69-1.69-1.69zm0 4.556c-.956 0-1.764.808-1.764 1.764 0 .955.808 1.763 1.764 1.763.955 0 1.763-.808 1.763-1.763 0-.956-.808-1.764-1.763-1.764zm0 4.63c-.956 0-1.69.735-1.69 1.69s.734 1.69 1.69 1.69c.955 0 1.69-.735 1.69-1.69 0-.882-.735-1.69-1.69-1.69zm0 4.703c-.882 0-1.617.735-1.617 1.617 0 .881.735 1.616 1.617 1.616a1.63 1.63 0 0 0 1.616-1.616 1.63 1.63 0 0 0-1.616-1.617zm4.482-14.11c-1.028 0-1.91.882-1.91 1.911s.882 1.91 1.91 1.91c1.03 0 1.91-.881 1.91-1.91s-.88-1.91-1.91-1.91v-.001zm0 4.557a1.976 1.976 0 0 0-1.984 1.984c0 1.102.882 1.984 1.984 1.984a1.976 1.976 0 0 0 1.984-1.984 1.976 1.976 0 0 0-1.984-1.984zm0 4.63c-1.028 0-1.91.881-1.91 1.91s.882 1.91 1.91 1.91c1.03 0 1.91-.881 1.91-1.91s-.88-1.91-1.91-1.91zm4.63-4.85a2.21 2.21 0 0 0-2.205 2.204 2.21 2.21 0 0 0 2.205 2.204c1.25 0 2.204-.955 2.204-2.204-.073-1.25-1.028-2.205-2.204-2.205v.001zM5.919 5.213c-.809 0-1.47.66-1.47 1.47 0 .808.661 1.469 1.47 1.469.808 0 1.47-.661 1.47-1.47 0-.808-.662-1.47-1.47-1.47v.001zm0 4.556c-.882 0-1.544.661-1.544 1.543 0 .882.662 1.543 1.544 1.543.881 0 1.543-.661 1.543-1.543 0-.882-.662-1.543-1.543-1.543zm0 4.63c-.809 0-1.47.66-1.47 1.469 0 .808.661 1.47 1.47 1.47.808 0 1.47-.662 1.47-1.47 0-.808-.662-1.47-1.47-1.47v.001zm-4.557-4.41c-.734 0-1.322.588-1.322 1.323s.588 1.323 1.322 1.323c.735 0 1.323-.588 1.323-1.323s-.588-1.323-1.323-1.323z"/>
</svg>
