<svg xmlns="http://www.w3.org/2000/svg" width="80" height="27" viewBox="0 0 80 27">
    <path fill="#253858" fill-rule="nonzero" d="M34.296 13.98c0 3.783-2.96 6.571-6.592 6.571-3.633 0-6.593-2.788-6.593-6.572 0-3.81 2.96-6.572 6.593-6.572 3.632 0 6.592 2.762 6.592 6.572v.001zm-2.886 0c0-2.365-1.715-3.983-3.706-3.983-1.991 0-3.707 1.618-3.707 3.982 0 2.341 1.716 3.982 3.707 3.982 1.99 0 3.706-1.644 3.706-3.982v.001zm17.109 0c0 3.783-2.96 6.571-6.593 6.571s-6.593-2.788-6.593-6.572c0-3.807 2.96-6.572 6.593-6.572s6.593 2.762 6.593 6.572v.001zm-2.886 0c0-2.365-1.716-3.983-3.707-3.983-1.991 0-3.707 1.618-3.707 3.982 0 2.341 1.716 3.982 3.707 3.982 1.991 0 3.707-1.644 3.707-3.982v.001zm16.515-6.176v11.799c0 4.853-2.862 6.836-6.246 6.836-3.185 0-5.102-2.13-5.825-3.873l2.513-1.046c.447 1.07 1.543 2.332 3.31 2.332 2.165 0 3.507-1.336 3.507-3.852v-.945h-.1c-.646.797-1.89 1.493-3.461 1.493-3.286 0-6.296-2.862-6.296-6.545 0-3.71 3.01-6.596 6.296-6.596 1.567 0 2.812.697 3.46 1.47h.101v-1.07h2.741v-.003zm-2.536 6.199c0-2.314-1.544-4.006-3.508-4.006-1.991 0-3.66 1.692-3.66 4.006 0 2.29 1.669 3.958 3.66 3.958 1.964 0 3.508-1.668 3.508-3.958zM66.667.889v19.26h-2.815V.889h2.815zm10.969 15.253l2.24 1.494c-.723 1.07-2.466 2.912-5.476 2.912-3.733 0-6.521-2.886-6.521-6.572 0-3.908 2.811-6.572 6.198-6.572 3.41 0 5.079 2.715 5.624 4.181l.299.747-8.785 3.638c.672 1.319 1.718 1.991 3.185 1.991 1.47 0 2.489-.722 3.236-1.819zm-6.895-2.364l5.872-2.439c-.323-.82-1.294-1.392-2.438-1.392-1.467 0-3.508 1.294-3.434 3.83v.001zM10.456 12.27V9.48h9.396c.092.486.14 1.061.14 1.683 0 2.092-.573 4.679-2.416 6.522-1.792 1.867-4.083 2.862-7.117 2.862-5.623 0-10.352-4.58-10.352-10.204C.107 4.719 4.836.138 10.459.138c3.111 0 5.328 1.221 6.993 2.812l-1.968 1.968c-1.194-1.12-2.811-1.992-5.028-1.992-4.106 0-7.318 3.31-7.318 7.417 0 4.106 3.212 7.416 7.318 7.416 2.664 0 4.181-1.07 5.153-2.041.788-.789 1.307-1.915 1.511-3.452l-6.664.003v.001z"/>
</svg>
