<svg xmlns="http://www.w3.org/2000/svg" width="22" height="18" viewBox="0 0 22 18">
    <g fill="#717C93" fill-rule="nonzero" opacity=".6">
        <path d="M12.39 13.243c-.39.24-.891.372-1.41.372-.517 0-1.018-.132-1.409-.372L3.19 9.33s-.576-.353-.576.447v3.908c0 2.06 3.746 4.279 8.367 4.279 4.62 0 8.367-2.22 8.367-4.279v-.275-3.853c0-.642-.41-.328-.41-.328l-6.548 4.015z"/>
        <path d="M21.594 6.216c.49-.3.49-.793 0-1.093L11.872.26c-.49-.3-1.292-.3-1.783 0L.368 5.123c-.49.3-.49.792 0 1.093l9.721 5.962c.49.301 1.293.301 1.783 0M21.192 15.054V8.469s.004-.312-.18-.21c-.15.084-.513.286-.641.398-.148.129-.115.417-.115.417v5.98c0 .085-.073.125-.108.146a1.136 1.136 0 0 0 .576 2.117 1.138 1.138 0 0 0 .572-2.12c-.034-.02-.104-.059-.104-.143z"/>
    </g>
</svg>
