<?xml version="1.0"?>
<svg xmlns="http://www.w3.org/2000/svg" xmlns:xlink="http://www.w3.org/1999/xlink" version="1.1" id="Capa_1" x="0px" y="0px" viewBox="0 0 512.001 512.001" style="enable-background:new 0 0 512.001 512.001;" xml:space="preserve" width="512px" height="512px" class=""><g><g>
	<g>
		<path d="M508.334,237.279L263.001,23.946c-4.021-3.479-9.979-3.479-14,0L3.667,237.279c-3.354,2.927-4.552,7.625-2.99,11.792    s5.542,6.927,9.99,6.927h53.333v224c0,5.896,4.771,10.667,10.667,10.667h362.667c5.896,0,10.667-4.771,10.667-10.667v-224h53.333    c4.448,0,8.427-2.76,9.99-6.927S511.688,240.206,508.334,237.279z M298.667,372.311v33.021c0,5.896-4.771,10.667-10.667,10.667    c0,5.896-4.771,10.667-10.667,10.667h-42.667c-5.896,0-10.667-4.771-10.667-10.667c-5.896,0-10.667-4.771-10.667-10.667v-33.021    c-26.49-15.25-42.667-42.885-42.667-73.646c0-47.052,38.281-85.333,85.333-85.333s85.333,38.281,85.333,85.333    C341.334,329.425,325.157,357.061,298.667,372.311z" data-original="#000000" class="active-path" data-old_color="#D7DEE8" fill="#9FA8B6"/>
	</g>
</g></g> </svg>
