<svg xmlns="http://www.w3.org/2000/svg" width="80" height="80" viewBox="0 0 80 80">
    <g fill="#1F9AFF" fill-rule="nonzero">
        <circle cx="40" cy="40" r="40" fill-opacity=".1"/>
        <path d="M40 20c-3.877 0-7.031 3.232-7.031 7.11A7.039 7.039 0 0 0 40 34.14a7.039 7.039 0 0 0 7.031-7.03c0-3.878-3.154-7.11-7.031-7.11zM42.344 34.14h-4.688c-1.653 0-3.25.428-4.702 1.155A29.405 29.405 0 0 1 40 38.215a29.407 29.407 0 0 1 7.046-2.92c-1.452-.727-3.05-1.154-4.702-1.154zM57.656 41.172a2.344 2.344 0 0 0-2.343 2.344v4.687a2.344 2.344 0 0 0 4.687 0v-4.687a2.344 2.344 0 0 0-2.344-2.344zM22.344 41.172A2.344 2.344 0 0 0 20 43.516v4.687a2.344 2.344 0 0 0 4.688 0v-4.687a2.344 2.344 0 0 0-2.344-2.344z"/>
        <path d="M23.516 36.484c-.648 0-1.172.525-1.172 1.172v1.172a4.692 4.692 0 0 1 4.687 4.688v4.687a4.692 4.692 0 0 1-4.687 4.688v1.172c0 .647.524 1.171 1.172 1.171 6.008 0 10.811 1.898 15.312 4.766V40.28c-4.521-2.591-9.382-3.796-15.312-3.796zM57.656 38.828v-1.172c0-.647-.524-1.172-1.172-1.172-5.93 0-10.791 1.205-15.312 3.797V60c4.5-2.868 9.304-4.766 15.312-4.766.648 0 1.172-.524 1.172-1.172v-1.171a4.692 4.692 0 0 1-4.687-4.688v-4.687a4.692 4.692 0 0 1 4.687-4.688z"/>
    </g>
</svg>
