<?xml version="1.0" encoding="UTF-8"?>
<svg width="25px" height="26px" viewBox="0 0 25 26" version="1.1" xmlns="http://www.w3.org/2000/svg" xmlns:xlink="http://www.w3.org/1999/xlink">
    <!-- Generator: Sketch 52.3 (67297) - http://www.bohemiancoding.com/sketch -->
    <title>light-bulb</title>
    <desc>Created with Sketch.</desc>
    <g id="New-Flow" stroke="none" stroke-width="1" fill="none" fill-rule="evenodd">
        <g id="Learner/Learning-Paths/Path/Section/Assesment/End" transform="translate(-930.000000, -770.000000)" fill="#80DBBA" fill-rule="nonzero">
            <g id="light-bulb" transform="translate(930.000000, 770.000000)">
                <path d="M15.4823045,22.7205761 L15.4823045,23.4802469 C15.4823045,24.0847737 15.0382716,24.5876543 14.4604938,24.673251 L14.273251,25.3633745 C14.1716049,25.7378601 13.8345679,26 13.4440329,26 L11.5876543,26 C11.1971193,26 10.8600823,25.7378601 10.7584362,25.3633745 L10.5765432,24.673251 C9.99341564,24.5823045 9.54938272,24.0847737 9.54938272,23.4748971 L9.54938272,22.7152263 C9.54938272,22.308642 9.87572016,21.9823045 10.2823045,21.9823045 L14.7493827,21.9823045 C15.1559671,21.9876543 15.4823045,22.3139918 15.4823045,22.7205761 Z M18.9222222,12.48107 C18.9222222,14.2090535 18.2374486,15.7765432 17.1246914,16.926749 C16.2794239,17.8041152 15.7337449,18.9222222 15.5518519,20.1152263 C15.4716049,20.6288066 15.027572,21.008642 14.5032922,21.008642 L10.5283951,21.008642 C10.009465,21.008642 9.5600823,20.6341564 9.48518519,20.1205761 C9.29794239,18.927572 8.74691358,17.7934156 7.90164609,16.9213992 C6.81028807,15.7872428 6.1308642,14.2465021 6.11481481,12.5506173 C6.07736626,8.98765432 8.9127572,6.10411523 12.4757202,6.07736626 C16.0333333,6.05061728 18.9222222,8.92880658 18.9222222,12.48107 Z M13.2407407,8.60246914 C13.2407407,8.20658436 12.9197531,7.88024691 12.5185185,7.88024691 C9.97201646,7.88024691 7.8962963,9.95061728 7.8962963,12.5024691 C7.8962963,12.8983539 8.21728395,13.2246914 8.61851852,13.2246914 C9.01440329,13.2246914 9.34074074,12.9037037 9.34074074,12.5024691 C9.34074074,10.7477366 10.7691358,9.32469136 12.5185185,9.32469136 C12.9197531,9.32469136 13.2407407,9.0037037 13.2407407,8.60246914 Z M12.5185185,3.97489712 C12.9144033,3.97489712 13.2407407,3.65390947 13.2407407,3.2526749 L13.2407407,0.722222222 C13.2407407,0.326337449 12.9197531,0 12.5185185,0 C12.117284,0 11.7962963,0.320987654 11.7962963,0.722222222 L11.7962963,3.2526749 C11.7962963,3.65390947 12.1226337,3.97489712 12.5185185,3.97489712 Z M4.01769547,12.4757202 C4.01769547,12.0798354 3.69670782,11.7534979 3.29547325,11.7534979 L0.765020576,11.7534979 C0.369135802,11.7534979 0.0427983539,12.0744856 0.0427983539,12.4757202 C0.0427983539,12.8716049 0.363786008,13.1979424 0.765020576,13.1979424 L3.29547325,13.1979424 C3.69670782,13.1979424 4.01769547,12.8769547 4.01769547,12.4757202 Z M24.2720165,11.7534979 L21.7415638,11.7534979 C21.345679,11.7534979 21.0193416,12.0744856 21.0193416,12.4757202 C21.0193416,12.8716049 21.3403292,13.1979424 21.7415638,13.1979424 L24.2720165,13.1979424 C24.6679012,13.1979424 24.9942387,12.8769547 24.9942387,12.4757202 C24.9942387,12.0798354 24.673251,11.7534979 24.2720165,11.7534979 Z M5.48888889,18.4888889 L3.69670782,20.28107 C3.41316872,20.5646091 3.41316872,21.0193416 3.69670782,21.3028807 C3.83580247,21.4419753 4.02304527,21.5115226 4.20493827,21.5115226 C4.38683128,21.5115226 4.57407407,21.4419753 4.71316872,21.3028807 L6.50534979,19.5106996 C6.78888889,19.2271605 6.78888889,18.772428 6.50534979,18.4888889 C6.22716049,18.2053498 5.76707819,18.2053498 5.48888889,18.4888889 Z M19.0399177,6.67654321 C19.2218107,6.67654321 19.4090535,6.60699588 19.5481481,6.46790123 L21.3403292,4.67572016 C21.6238683,4.39218107 21.6238683,3.93744856 21.3403292,3.65390947 C21.0567901,3.37037037 20.6020576,3.37037037 20.3185185,3.65390947 L18.5263374,5.44609053 C18.2427984,5.72962963 18.2427984,6.18436214 18.5263374,6.46790123 C18.6707819,6.60699588 18.8526749,6.67654321 19.0399177,6.67654321 Z M5.48888889,6.46255144 C5.62798354,6.60164609 5.81522634,6.67119342 5.99711934,6.67119342 C6.17901235,6.67119342 6.36625514,6.60164609 6.50534979,6.46255144 C6.78888889,6.17901235 6.78888889,5.72427984 6.50534979,5.44074074 L4.71316872,3.64855967 C4.42962963,3.36502058 3.97489712,3.36502058 3.69135802,3.64855967 C3.40781893,3.93209877 3.40781893,4.38683128 3.69135802,4.67037037 L5.48888889,6.46255144 Z M19.5481481,18.4888889 C19.2646091,18.2053498 18.8098765,18.2053498 18.5263374,18.4888889 C18.2427984,18.772428 18.2427984,19.2271605 18.5263374,19.5106996 L20.3185185,21.3028807 C20.4576132,21.4419753 20.644856,21.5115226 20.826749,21.5115226 C21.008642,21.5115226 21.1958848,21.4419753 21.3349794,21.3028807 C21.6185185,21.0193416 21.6185185,20.5646091 21.3349794,20.28107 L19.5481481,18.4888889 Z" id="XMLID_49_"></path>
            </g>
        </g>
    </g>
</svg>