<svg xmlns="http://www.w3.org/2000/svg" width="19" height="19" viewBox="0 0 19 19">
    <path fill="#6F7E99" fill-opacity=".8" fill-rule="nonzero" d="M17.281 0H1.72C.769 0 0 .77 0 1.719V17.28C0 18.231.77 19 1.719 19H17.28c.95 0 1.719-.77 1.719-1.719V1.72C19 .769 18.23 0 17.281 0zM5.88 16.406a.5.5 0 0 1-.5.5H3.25a.5.5 0 0 1-.5-.5V7.48a.5.5 0 0 1 .5-.5h2.13a.5.5 0 0 1 .5.5v8.925zM4.315 6.139a2.023 2.023 0 1 1 0-4.045 2.023 2.023 0 0 1 0 4.045zm12.691 10.307a.46.46 0 0 1-.46.46h-2.285a.46.46 0 0 1-.46-.46V12.26c0-.625.184-2.737-1.632-2.737-1.408 0-1.693 1.446-1.75 2.095v4.828a.46.46 0 0 1-.46.46h-2.21a.46.46 0 0 1-.46-.46V7.44a.46.46 0 0 1 .46-.46h2.21a.46.46 0 0 1 .46.46v.78c.522-.784 1.298-1.39 2.95-1.39 3.658 0 3.637 3.419 3.637 5.297v4.32z"/>
</svg>
