<svg xmlns="http://www.w3.org/2000/svg" width="18" height="18" viewBox="0 0 18 18">
    <g fill="#6F7E99" fill-opacity=".8" fill-rule="evenodd">
        <path d="M10.963 7.004a4.192 4.192 0 0 0-5.928 0l-3.809 3.811a4.192 4.192 0 0 0 5.926 5.931l3.144-3.143a.3.3 0 0 0-.213-.512h-.12a5.04 5.04 0 0 1-1.916-.372.3.3 0 0 0-.326.066L5.46 15.05a1.797 1.797 0 1 1-2.542-2.542l3.824-3.82c.7-.701 1.837-.701 2.539 0 .472.444 1.21.444 1.682 0 .204-.204.327-.474.348-.761a1.198 1.198 0 0 0-.348-.922z"/>
        <path d="M16.739 1.228a4.192 4.192 0 0 0-5.928 0L7.67 4.366a.3.3 0 0 0 .218.512H8a5.03 5.03 0 0 1 1.913.374.3.3 0 0 0 .327-.066l2.254-2.252a1.797 1.797 0 1 1 2.542 2.543l-2.808 2.805-.024.027-.982.976c-.702.7-1.838.7-2.54 0a1.228 1.228 0 0 0-1.682 0 1.198 1.198 0 0 0 0 1.689c.347.348.752.632 1.198.838.062.03.125.054.188.081.063.027.129.048.192.072.063.024.129.045.191.063l.177.048c.12.03.24.054.362.074.148.022.297.036.447.042H9.98l.18-.02c.066-.004.134-.019.212-.019h.102l.207-.03.096-.017.173-.036h.033a4.191 4.191 0 0 0 1.943-1.102l3.812-3.812a4.192 4.192 0 0 0 0-5.928z"/>
    </g>
</svg>
