<svg xmlns="http://www.w3.org/2000/svg" width="80" height="80" viewBox="0 0 80 80">
    <g fill="#1F9AFF" fill-rule="nonzero">
        <circle cx="40" cy="40" r="40" fill-opacity=".1"/>
        <path d="M56.124 49l-1.574 1.58-1.425-1.418 1.574-1.58-1.425-1.419-2.813 2.823-1.424-1.419 2.812-2.822-1.425-1.418-1.577 1.583-1.425-1.418L49 41.909l-1.426-1.419-2.783 2.793-1.424-1.419 2.782-2.792-1.425-1.418-1.547 1.553-1.424-1.418 1.546-1.553-1.425-1.419-2.786 2.796-1.424-1.42 2.785-2.794-1.425-1.418-1.55 1.556-1.424-1.419 1.549-1.555-1.425-1.419-2.789 2.799-1.424-1.42 2.788-2.797-1.425-1.418-1.553 1.558-1.424-1.418 1.552-1.558L27 20.015v33.97h34.133L56.124 49zm-22.557-1.583V36.273l11.199 11.144H33.567z"/>
    </g>
</svg>
