<svg xmlns="http://www.w3.org/2000/svg" width="80" height="80" viewBox="0 0 80 80">
    <g fill="#1F9AFF" fill-rule="nonzero">
        <circle cx="40" cy="40" r="40" fill-opacity=".1"/>
        <g transform="translate(18 20)">
            <circle cx="39.159" cy="14.019" r="4.583"/>
            <path d="M34.98 18.069c-.014-.028-.032-.05-.045-.075L28.675 5.56a2.317 2.317 0 0 0-4.137 2.083l3.231 6.42H17.584c-.532 0-1.014.078-1.448.22C12.55 9.524 8.596 5.068 4.394.839 2.053-1.52-1.586 2.12.754 4.477c4.423 4.453 8.617 9.14 12.292 14.232.099.136.205.255.314.364.028.236.072.469.134.697-.016.124-.028.25-.028.386v16.81c0 3.319 5.146 3.319 5.146 0v-14.15h11.67a4.51 4.51 0 0 0 1.649-.297l1.305 2.83-1.228-.376a2.315 2.315 0 1 0-1.353 4.43l6.175 1.886a2.315 2.315 0 0 0 2.78-3.185l-4.63-10.035z"/>
        </g>
    </g>
</svg>
