<svg xmlns="http://www.w3.org/2000/svg" width="36" height="30" viewBox="0 0 36 30">
    <g fill="#5E6C84" fill-opacity=".3" fill-rule="nonzero">
        <path d="M12.242 13.643h-4.76a1.968 1.968 0 0 1-1.446-.595 1.969 1.969 0 0 1-.595-1.446v-.68c0-1.501.531-2.784 1.594-3.846 1.063-1.063 2.345-1.594 3.847-1.594h1.36c.368 0 .687-.135.956-.404.27-.27.404-.588.404-.956V1.4c0-.368-.135-.687-.404-.957a1.308 1.308 0 0 0-.956-.403h-1.36c-1.474 0-2.88.287-4.219.86A10.966 10.966 0 0 0 3.188 3.23 10.958 10.958 0 0 0 .861 6.704 10.6 10.6 0 0 0 0 10.923v14.962c0 1.134.397 2.097 1.19 2.89.794.794 1.757 1.19 2.89 1.19h8.162c1.134 0 2.097-.396 2.89-1.19.794-.793 1.191-1.756 1.191-2.89v-8.161c0-1.134-.397-2.097-1.19-2.891-.794-.793-1.758-1.19-2.891-1.19zM34.176 14.833c-.793-.793-1.756-1.19-2.89-1.19h-4.76a1.966 1.966 0 0 1-1.446-.595 1.967 1.967 0 0 1-.595-1.446v-.68c0-1.501.532-2.784 1.594-3.846 1.062-1.063 2.345-1.594 3.847-1.594h1.36c.368 0 .687-.135.956-.404.27-.27.405-.588.405-.956V1.4c0-.368-.135-.687-.405-.957a1.308 1.308 0 0 0-.956-.403h-1.36c-1.474 0-2.88.287-4.22.86a10.966 10.966 0 0 0-3.474 2.328 10.953 10.953 0 0 0-2.327 3.475 10.602 10.602 0 0 0-.861 4.219v14.962c0 1.134.397 2.097 1.19 2.89.793.794 1.757 1.19 2.89 1.19h8.162c1.133 0 2.097-.396 2.89-1.19.794-.793 1.19-1.756 1.19-2.89v-8.161c0-1.134-.396-2.097-1.19-2.891z"/>
    </g>
</svg>
