<svg xmlns="http://www.w3.org/2000/svg" xmlns:xlink="http://www.w3.org/1999/xlink" width="520" height="410" viewBox="0 0 520 410">
    <defs>
        <path id="a" d="M0 .588h576.525v497.45H0z"/>
        <linearGradient id="c" x1="50%" x2="50%" y1="0%" y2="100%">
            <stop offset="0%" stop-color="#4E3AD8"/>
            <stop offset="100%" stop-color="#1974DA"/>
        </linearGradient>
        <path id="d" d="M.424 22.818c-.006 12.38 10.027 22.421 22.41 22.43 12.38.005 22.42-10.03 22.427-22.41C45.267 10.456 35.233.413 22.853.41 10.47.402.429 10.437.423 22.818"/>
    </defs>
    <g fill="none" fill-rule="evenodd">
        <g transform="translate(-57 .373)">
            <mask id="b" fill="#fff">
                <use xlink:href="#a"/>
            </mask>
            <path fill="#02B875" fill-opacity=".2" d="M0 498.038s122.511-18.4 72.066-165.6c-50.447-147.2 36.032-154.1 109.3-135.7 73.267 18.4 123.712 25.3 138.126-29.9 14.413-55.2 33.63-194.602 257.035-161.125v492.325H0z" mask="url(#b)"/>
        </g>
        <path fill="#FFF" d="M284.686 246.148V141.975h155.377v77.479a7.22 7.22 0 0 1-7.22 7.221H306.812l-22.126 19.473z"/>
        <path fill="#253858" d="M433.361 122.952H291.39c-3.702 0-6.702 3-6.702 6.702v12.322h155.376v-12.322c0-3.702-3-6.702-6.702-6.702"/>
        <path fill="#FFF" d="M323.042 132.908a4.268 4.268 0 1 0 8.535.002 4.268 4.268 0 0 0-8.535-.002M309.432 132.908a4.27 4.27 0 0 0 8.537 0 4.268 4.268 0 0 0-4.269-4.266 4.268 4.268 0 0 0-4.268 4.266M295.821 132.908a4.27 4.27 0 0 0 8.537 0 4.268 4.268 0 0 0-4.268-4.266 4.268 4.268 0 0 0-4.269 4.266"/>
        <path fill="url(#c)" d="M335.39 332.724c1.918 0 3.857-.51 5.608-1.583 5.083-3.102 6.688-9.737 3.585-14.82l-32.255-52.825c-3.108-5.086-9.742-6.684-14.82-3.584-5.084 3.102-6.688 9.739-3.584 14.821l32.253 52.824a10.778 10.778 0 0 0 9.213 5.167" transform="translate(-57 .373)"/>
        <path fill="#FFBDA1" d="M234.409 242.226l-2.224 28.543-19.931-2.139 8.34-40.451z"/>
        <path fill="#FFBDA1" d="M210.167 223.086c1.02 12.338 11.85 21.516 24.188 20.497 12.341-1.022 21.518-11.85 20.496-24.19-1.02-12.34-11.849-21.516-24.19-20.497-12.339 1.02-21.516 11.851-20.494 24.19"/>
        <g transform="translate(209.667 198.412)">
            <mask id="e" fill="#fff">
                <use xlink:href="#d"/>
            </mask>
            <path fill="#FF7F7F" d="M44.384 10.027s2.03 10.798-30.533 3.877l-2.959 14.964s-3.925 22.66-4.155 19.877C6.506 45.96-17.965 6.109 15.573-3.483c31.356-8.968 28.811 13.51 28.811 13.51" mask="url(#e)"/>
        </g>
        <g>
            <path fill="#FFBDA1" d="M226.095 224.545a5.82 5.82 0 0 1-11.6-.922 5.819 5.819 0 0 1 11.6.922"/>
            <path fill="url(#c)" d="M175.241 131.548H137.62c-11.38 0-16.496 10.993-16.108 17.957l8.643 70.96a6.533 6.533 0 0 0 6.535 5.795l45.975-.33a6.535 6.535 0 0 0 6.468-6.08l4.742-68.327c.75-10.8-7.808-19.975-18.634-19.975" transform="translate(65 124.373)"/>
            <path fill="#FFBDA1" d="M207.883 255.921l32.572.027s-1.635 12.147-16.376 12.147c-14.744 0-16.196-12.174-16.196-12.174"/>
            <path fill="#FF7F7F" d="M192.506 216.256c-10.727-4.6-15.696-17.023-11.096-27.75 4.6-10.728 17.022-15.697 27.75-11.097 10.729 4.598 15.695 17.024 11.097 27.751-4.598 10.728-17.023 15.694-27.75 11.096"/>
            <path fill="#F5A623" d="M73.479 356.974h331.343a4.272 4.272 0 0 0 0-8.541H73.479a4.27 4.27 0 1 0 0 8.541"/>
            <path fill="#FFBDA1" d="M242.66 332.537c-2.62-5.359-9.087-7.58-14.447-4.963-1.761.86-3.171 2.14-4.195 3.651l-16.1.63-5.674 10.678 22.645 1.918c3.141 3.533 8.353 4.71 12.808 2.531 5.359-2.617 7.58-9.086 4.963-14.445"/>
            <path fill="#253858" d="M212.863 348.443h48.639V342.2h-48.64z"/>
            <path fill="#253858" d="M254.22 348.444h73.32a9.409 9.409 0 0 0 9.062-6.885l14.296-51.364c1.263-4.542-2.15-9.036-6.865-9.036h-67.34a6.202 6.202 0 0 0-6.003 4.626l-16.47 62.659z"/>
            <path fill="#FFF" d="M297.573 318.963a6.937 6.937 0 1 0 13.875 0 6.937 6.937 0 0 0-13.875 0"/>
            <path fill="url(#c)" d="M148.817 224.071l-45.004-.226c-2.683-.03-5.351-.896-7.345-2.69a10.656 10.656 0 0 1-2.72-12.115l29.273-67.744a10.358 10.358 0 0 1 13.286-5.51c5.43 2.132 8.027 8.32 5.75 13.687l-22.505 53.255 29.496.33-.231 21.013z" transform="translate(65 124.373)"/>
            <path fill="#FFF" d="M227.071 152.774h-42.817a5.674 5.674 0 0 1-5.673-5.675v-16.58a5.674 5.674 0 0 1 5.673-5.674h42.817a5.676 5.676 0 0 1 5.677 5.674v16.58a5.676 5.676 0 0 1-5.677 5.675"/>
            <path fill="#FFF" d="M189.207 149.016v10.351l11.798-10.35zM154.208 297.475V193.612H65.722v77.249a7.2 7.2 0 0 0 7.198 7.2h59.23l22.058 19.414z"/>
            <path fill="#253858" d="M72.403 174.647h75.123a6.683 6.683 0 0 1 6.683 6.682v12.283H65.72v-12.283a6.682 6.682 0 0 1 6.683-6.682"/>
            <path fill="#FFF" d="M88.947 184.574a4.255 4.255 0 1 1-8.51 0 4.255 4.255 0 0 1 8.51 0M102.517 184.574a4.256 4.256 0 0 1-8.51 0 4.255 4.255 0 1 1 8.51 0M116.088 184.574a4.256 4.256 0 1 1-8.512-.003 4.256 4.256 0 0 1 8.512.003"/>
            <path fill="#1F9AFF" fill-opacity=".1" d="M131.393 231.532c0 13.835-11.216 25.049-25.047 25.049-13.835 0-25.051-11.214-25.051-25.05 0-13.833 11.216-25.046 25.05-25.046 13.832 0 25.048 11.213 25.048 25.047"/>
            <path fill="#FFF" d="M113.671 317.772h25.745c.455 0 .826.366.826.823v19.536c0 5.684-4.61 10.292-10.292 10.292h-6.812c-5.683 0-10.292-4.608-10.292-10.292v-19.536c0-.457.37-.823.825-.823"/>
            <path fill="#FFF" d="M116.758 345.054c-5.81-3.28-15.779-12.96-14.116-19.774.441-1.822 1.557-3.192 3.218-3.963 3.85-1.79 9.363.37 9.978.624l-1.833 3.823c-1.331-.54-4.58-1.423-6.112-.71-.31.143-.65.394-.831 1.143-.969 3.97 6.831 12.338 12.059 15.289l-2.363 3.568z"/>
            <path fill="#1F9AFF" d="M122.357 240.83h-2.884v-7.312a2.892 2.892 0 0 0-2.889-2.89 2.893 2.893 0 0 0-2.89 2.89v7.314h-3.876v-10.745a2.889 2.889 0 0 0-5.777 0v10.745h-3.872v-20.776a2.89 2.89 0 0 0-5.778 0v20.774h-2.883a.77.77 0 0 0 0 1.54h30.849a.77.77 0 0 0 0-1.54"/>
            <path fill="#253858" d="M359.776 182.793c-.004-.018.004-.036.002-.051-.006-.043-.013-.085-.015-.126 0-.02-.008-.035-.008-.055v-32.898c-17.592.675-31.65 15.142-31.65 32.898 0 18.189 14.744 32.932 32.932 32.932 1.588 0 3.151-.12 4.68-.338a18903.977 18903.977 0 0 1-5.941-32.363"/>
            <path fill="#1F9AFF" d="M362.315 177.982l14.693-24.218a32.735 32.735 0 0 0-14.693-4.1v28.318z"/>
            <path fill="#02B875" d="M379.198 155.096l-16.88 27.482c1.394 7.627 4.027 21.886 5.92 32.116 14.32-3.196 25.115-15.71 25.696-30.851v-2.563c-.418-10.94-6.17-20.51-14.736-26.184"/>
            <path fill="#D7DEE8" d="M196.18 138.941a2.869 2.869 0 1 1-5.738 0 2.869 2.869 0 0 1 5.737 0M208.093 138.941a2.869 2.869 0 1 1-5.737 0 2.869 2.869 0 0 1 5.737 0M220.007 138.941a2.869 2.869 0 1 1-5.737 0 2.869 2.869 0 0 1 5.737 0"/>
        </g>
    </g>
</svg>
