<svg xmlns="http://www.w3.org/2000/svg" width="15" height="19" viewBox="0 0 15 19">
    <g fill="#717C93" fill-rule="nonzero" opacity=".6">
        <path d="M7.274 9.292c2.113 0 3.825-2.08 3.825-4.646S10.537 0 7.274 0 3.45 2.08 3.45 4.646s1.713 4.646 3.825 4.646zM.056 16.806c-.006-.973-.012-.274 0 0zM14.499 16.866c.019-.15.006-1.045 0 0z"/>
        <path d="M14.49 16.199c-.07-4.47-.654-5.744-5.121-6.55 0 0-.63.801-2.095.801-1.465 0-2.094-.801-2.094-.801C.76 10.446.142 11.7.06 16.053c-.006.356-.01.375-.01.333v.47S1.113 19 7.274 19c6.16 0 7.225-2.144 7.225-2.144v-.347c-.001.025-.004-.024-.008-.31z"/>
    </g>
</svg>
