<svg xmlns="http://www.w3.org/2000/svg" width="80" height="80" viewBox="0 0 80 80">
    <g fill="#1F9AFF" fill-rule="nonzero">
        <circle cx="40" cy="40" r="40" fill-opacity=".1"/>
        <path d="M21 55.965v2.028h9.625v-2.028c0-1.383-.584-2.63-1.519-3.508a4.836 4.836 0 0 1-3.294 1.283 4.836 4.836 0 0 1-3.294-1.283A4.799 4.799 0 0 0 21 55.965zM35.46 55.965v2.028h9.624v-2.028c0-1.383-.584-2.63-1.519-3.508a4.836 4.836 0 0 1-3.294 1.283 4.836 4.836 0 0 1-3.293-1.283 4.799 4.799 0 0 0-1.519 3.508zM58.025 52.457a4.836 4.836 0 0 1-3.294 1.283 4.836 4.836 0 0 1-3.294-1.283 4.799 4.799 0 0 0-1.519 3.508v2.028h9.625v-2.028c0-1.383-.584-2.63-1.518-3.508zM21 22.026v22.586c3.728-.825 10.94-1.384 19.228-1.384 8.352 0 15.614.568 19.315 1.404V22.006c-3.701.836-10.963 1.404-19.315 1.404-8.288 0-15.5-.559-19.228-1.384zM23.853 51.569c.55.4 1.227.636 1.96.636a3.32 3.32 0 0 0 1.959-.636 3.337 3.337 0 1 0-3.919 0zM38.312 51.569c.55.4 1.227.636 1.96.636a3.32 3.32 0 0 0 1.959-.636 3.337 3.337 0 1 0-3.919 0zM52.771 51.569c.55.4 1.227.636 1.96.636a3.32 3.32 0 0 0 1.959-.636 3.337 3.337 0 1 0-3.919 0z"/>
    </g>
</svg>
