<?xml version="1.0"?>
<svg xmlns="http://www.w3.org/2000/svg" xmlns:xlink="http://www.w3.org/1999/xlink" version="1.1" id="Layer_1" x="0px" y="0px" viewBox="0 0 473.961 473.961" style="enable-background:new 0 0 473.961 473.961;" xml:space="preserve" width="512px" height="512px" class=""><g><path style="fill:#F04D63" d="M0,236.988C0,106.101,106.105,0,236.981,0c130.883,0,236.981,106.098,236.981,236.988  c0,130.876-106.098,236.973-236.981,236.973C106.105,473.961,0,367.864,0,236.988z" data-original="#008593" class="active-path" data-old_color="#E55165"/><g>
	<polygon style="fill:#FFC50B" points="236.636,60.957 259.094,106.442 309.294,113.742 272.965,149.15 281.545,199.155    236.636,175.541 191.735,199.155 200.315,149.15 163.986,113.742 214.186,106.442  " data-original="#FFC50B" class=""/>
	<polygon style="fill:#FFC50B" points="340.74,211.724 363.198,257.216 413.397,264.509 377.068,299.917 385.648,349.922    340.74,326.315 295.839,349.922 304.418,299.917 268.09,264.509 318.289,257.216  " data-original="#FFC50B" class=""/>
	<polygon style="fill:#FFC50B" points="132.533,211.724 154.991,257.216 205.191,264.509 168.862,299.917 177.442,349.922    132.533,326.315 87.632,349.922 96.212,299.917 59.883,264.509 110.083,257.216  " data-original="#FFC50B" class=""/>
</g></g> </svg>
