<svg xmlns="http://www.w3.org/2000/svg" width="23" height="18" viewBox="0 0 23 18">
    <path fill="#6F7E99" fill-opacity=".8" fill-rule="evenodd" d="M22.12 2.142a9.062 9.062 0 0 1-2.605.715 4.557 4.557 0 0 0 1.994-2.51c-.879.52-1.849.898-2.883 1.102a4.538 4.538 0 0 0-7.732 4.137A12.883 12.883 0 0 1 1.54.847a4.503 4.503 0 0 0-.613 2.28c0 1.574.801 2.964 2.018 3.776a4.538 4.538 0 0 1-2.056-.57v.058a4.542 4.542 0 0 0 3.64 4.45c-.38.101-.781.158-1.196.158-.293 0-.576-.029-.854-.084a4.54 4.54 0 0 0 4.238 3.151 9.104 9.104 0 0 1-5.636 1.94c-.366 0-.727-.022-1.082-.063a12.827 12.827 0 0 0 6.956 2.042c8.347 0 12.91-6.914 12.91-12.91l-.015-.588a9.062 9.062 0 0 0 2.27-2.344z"/>
</svg>
