<svg xmlns="http://www.w3.org/2000/svg" width="300" height="250" viewBox="0 0 300 250">
    <defs>
        <linearGradient id="a" x1="49.995%" x2="49.995%" y1="99.994%" y2="0%">
            <stop offset="0%" stop-color="gray" stop-opacity=".25"/>
            <stop offset="54%" stop-color="gray" stop-opacity=".12"/>
            <stop offset="100%" stop-color="gray" stop-opacity=".1"/>
        </linearGradient>
        <linearGradient id="b" x1="34.606%" x2="0%" y1="100%" y2="0%">
            <stop offset="0%" stop-color="#4E3AD8"/>
            <stop offset="100%" stop-color="#1974DA"/>
        </linearGradient>
    </defs>
    <g fill="none" fill-rule="evenodd">
        <path fill="#1F9AFF" fill-rule="nonzero" d="M96.955 9.18c8.746-7.785 22.473-9.38 34.97-8.76C171.174 2.37 206.602 21.316 237.25 42.75c11.095 7.758 22.017 16.12 29.218 26.806 14.67 21.751 10.311 51.883-10.072 69.802-6.937 6.096-15.344 10.779-23.976 14.913-15.347 7.366-31.907 13.279-49.326 14.97-12.42 1.198-24.994.225-37.344-1.449-34.5-4.688-68.36-15.036-96.752-32.736-12.45-7.764-24.183-17.416-29.314-29.97-5.132-12.554-1.848-28.482 10.865-35.928 5.257-3.075 11.545-4.464 17.698-5.77 9.06-1.919 18.263-3.811 26.437-7.712 8.446-4.03 18.443-11.824 16.766-20.746-1.784-9.56-3.227-17.967 5.506-25.751z" opacity=".1"/>
        <path stroke="#535461" stroke-width="2" d="M205.075 200.566s7.503-13.29 18.8-17.12a23.126 23.126 0 0 0 11.712-8.76 38.778 38.778 0 0 0 3.455-6.216"/>
        <path fill="#1F9AFF" fill-rule="nonzero" d="M246.15 166.012c-1.288 1.251-7.285 2.542-7.285 2.542s1.47-5.955 2.758-7.204a3.249 3.249 0 0 1 4.527 4.662zM242.757 176.787c-1.76.35-7.485-1.823-7.485-1.823s4.474-4.192 6.231-4.55a3.25 3.25 0 1 1 1.266 6.373h-.012zM230.407 188.446c-1.697-.599-5.55-5.36-5.55-5.36s5.987-1.364 7.676-.778a3.249 3.249 0 1 1-2.126 6.138zM219.075 195.165c-1.77-.3-6.374-4.345-6.374-4.345s5.661-2.359 7.43-2.066a3.249 3.249 0 1 1-1.056 6.41zM230.26 170.311c0 1.797 3.246 6.997 3.246 6.997s3.251-5.2 3.251-6.994a3.249 3.249 0 0 0-6.497 0v-.003zM217.108 178.335c.539 1.713 5.191 5.707 5.191 5.707s1.545-5.937 1.01-7.65a3.249 3.249 0 0 0-6.201 1.943zM205.395 187.886c.24 1.779 4.153 6.503 4.153 6.503s2.527-5.59 2.287-7.368a3.249 3.249 0 1 0-6.44.865z"/>
        <path fill="#000" fill-rule="nonzero" d="M246.15 166.012c-1.288 1.251-7.285 2.542-7.285 2.542s1.47-5.955 2.758-7.204a3.249 3.249 0 0 1 4.527 4.662zM242.757 176.787c-1.76.35-7.485-1.823-7.485-1.823s4.474-4.192 6.231-4.55a3.25 3.25 0 1 1 1.266 6.373h-.012zM230.407 188.446c-1.697-.599-5.55-5.36-5.55-5.36s5.987-1.364 7.676-.778a3.249 3.249 0 1 1-2.126 6.138zM219.075 195.165c-1.77-.3-6.374-4.345-6.374-4.345s5.661-2.359 7.43-2.066a3.249 3.249 0 1 1-1.056 6.41zM230.26 170.311c0 1.797 3.246 6.997 3.246 6.997s3.251-5.2 3.251-6.994a3.249 3.249 0 0 0-6.497 0v-.003zM217.108 178.335c.539 1.713 5.191 5.707 5.191 5.707s1.545-5.937 1.01-7.65a3.249 3.249 0 0 0-6.201 1.943zM205.395 187.886c.24 1.779 4.153 6.503 4.153 6.503s2.527-5.59 2.287-7.368a3.249 3.249 0 1 0-6.44.865z" opacity=".25"/>
        <path stroke="#535461" stroke-width="2" d="M205.506 200.296s1.473-15.191 10.251-23.27a23.126 23.126 0 0 0 7.156-12.757c.431-2.337.646-4.71.641-7.086"/>
        <path fill="#1F9AFF" fill-rule="nonzero" d="M229.054 152.069c-.67 1.665-5.629 5.275-5.629 5.275s-1.066-6.042-.395-7.703a3.249 3.249 0 1 1 6.024 2.428zM230.32 163.293c-1.467 1.033-7.592 1.369-7.592 1.369s2.395-5.65 3.853-6.683a3.25 3.25 0 0 1 3.74 5.314zM223.754 178.958c-1.796.15-7.245-2.653-7.245-2.653s4.913-3.67 6.689-3.823a3.25 3.25 0 0 1 .545 6.476h.011zM216.117 189.692c-1.737.449-7.587-1.39-7.587-1.39s4.219-4.452 5.955-4.9a3.249 3.249 0 1 1 1.632 6.287v.003zM216.272 162.434c.725 1.64 5.803 5.09 5.803 5.09s.865-6.072.138-7.713a3.249 3.249 0 0 0-5.94 2.63v-.007zM207.5 175.102c1.183 1.347 7.057 3.114 7.057 3.114s-.991-6.054-2.177-7.402a3.249 3.249 0 1 0-4.88 4.288zM200.662 188.58c.94 1.53 6.43 4.261 6.43 4.261s.046-6.131-.897-7.661a3.249 3.249 0 1 0-5.536 3.4h.003z"/>
        <ellipse cx="112.027" cy="244.027" fill="#1F9AFF" fill-rule="nonzero" opacity=".1" rx="35.593" ry="5.967"/>
        <ellipse cx="182.084" cy="198.222" fill="#1F9AFF" fill-rule="nonzero" opacity=".1" rx="35.593" ry="5.967"/>
        <path fill="#B77B7F" fill-rule="nonzero" d="M184.446 119.47l-.033 1.165-2.024 71.413h-3.401l1.668-71.413.033-1.345z"/>
        <path fill="#DDA2A6" fill-rule="nonzero" d="M204.138 179.967l-2.548-.006-37.856-.08-2.018-.004 1.074-3.311h41.078z"/>
        <path fill="#000" fill-rule="nonzero" d="M184.446 119.47l-.033 1.165h-3.757l.033-1.345z" opacity=".1"/>
        <path fill="#B77B7F" fill-rule="nonzero" d="M179.572 117.725h6.308v2.374h-6.308z"/>
        <path fill="#000" fill-rule="nonzero" d="M164.069 176.566l-.335 3.314-2.018-.003 1.074-3.311z" opacity=".1"/>
        <path fill="#DDA2A6" fill-rule="nonzero" d="M169.503 117.68l-.105 1.03L161 201.536l-3.847-.183 8.85-82.643.099-.94z"/>
        <path fill="#000" fill-rule="nonzero" d="M204.138 179.967l-2.548-.006-.344-3.395h2.622z" opacity=".1"/>
        <path fill="#DDA2A6" fill-rule="nonzero" d="M208.165 201.353l-3.85.183-8.396-82.826-.105-1.03 3.399.09.098.94z"/>
        <path fill="#FFF" fill-rule="nonzero" d="M139.701 36.018h84.838v81.347h-84.838z"/>
        <path fill="#DDA2A6" fill-rule="nonzero" d="M183.775 8.811v19.644h-3.308V8.811a1.656 1.656 0 1 1 3.308 0z"/>
        <path fill="#000" fill-rule="nonzero" d="M180.464 26.668h3.311v1.787h-3.311z" opacity=".1"/>
        <path fill="#DDA2A6" fill-rule="nonzero" d="M185.075 28.009v6.485h-5.89v-6.485a.802.802 0 0 1 .806-.805h4.284c.443.003.8.363.8.805z"/>
        <circle cx="182.12" cy="31.32" r="1.251" fill="#000" fill-rule="nonzero" opacity=".1"/>
        <circle cx="182.12" cy="31.051" r="1.251" fill="#B77B7F" fill-rule="nonzero"/>
        <path fill="#000" fill-rule="nonzero" d="M179.168 33.692h5.907v1h-5.907zM176.751 34.766h10.74v1.79h-10.74z" opacity=".1"/>
        <path fill="#DDA2A6" fill-rule="nonzero" d="M176.751 34.228h10.74v1.79h-10.74z"/>
        <path fill="#000" fill-rule="nonzero" d="M160.395 115.27H205.5c1.075 0 1.946.87 1.946 1.946v.425H158.45v-.425c0-1.075.871-1.947 1.946-1.947zM166.102 117.77l3.401-.09-.105 1.03h-3.395zM179.572 117.725h6.308v1h-6.308zM199.311 118.71h-3.392l-.105-1.03 3.399.09z" opacity=".1"/>
        <path fill="#DDA2A6" fill-rule="nonzero" d="M160.395 115.8H205.5c1.075 0 1.946.87 1.946 1.946v.425H158.45v-.425a1.946 1.946 0 0 1 1.946-1.947z"/>
        <path fill="url(#a)" fill-rule="nonzero" d="M150.506 78.033c-.68-.36-8.084-5.952-8.084-5.952l-11.949-7.578s-.063-.18-.177-.488c3.279-3.722 2.563-9.123-.772-12.92-4.042-4.604-22.305-14.517-27.808-6.038-.77 1.197-.797 2.557-.997 3.874-.47 3.075-1.985 6.054-4.363 8.563-1.832 1.937-4.236 3.722-5.29 5.913 0-.027-.021-.054-.03-.084-.254.47-.44.974-.548 1.497-.524 2.674 1.272 5.237 2.228 7.839.32.88.553 1.791.694 2.718.024-.185.045-.368.066-.554.233 1.32.312 2.662.237 4-6.632 1.35-6.635 12.695-6.635 12.695s-.818 4.509-.68 6.135c.138 1.625.135 5.14.135 5.988 0 .847-.817 6.131-.898 6.766v.027c-.12.695-1.363 4.042 1.64 4.79.21.054.432.1.662.141.129 2.71.362 8.384.156 9.647 0 0 1.093 7.623 2 9.56a21.988 21.988 0 0 0 2.006 3.24c-.066.464-.223.91-.461 1.314-.464.667-.225 1.215.55 1.452l-.09.784c-.332 2.94-.829 8.785.016 11.746 1.158 4.06 1.227 5.413 1.227 5.413s0 1.216.48 1.892c.478.677 1.362 6.97 1.362 7.985 0 1.015 2.317 10.147 1.634 12.312-.682 2.164-.134 5.21-.134 5.21s-.41 5.343-.899 6.493c-.488 1.15-.682 19.686.066 24.488a282.497 282.497 0 0 1 1.228 8.794s-.476 4.398-.069 5.006c.407.607 1.159 4.263.614 4.464-.545.2-.818 1.691-.818 1.691.289.438.6.861.932 1.267a5.09 5.09 0 0 1-.614-.26c.215.299.539.724.937 1.197l-.374 4.865c-.033.392.22.75.598.853a6.847 6.847 0 0 0 6.773-1.904c3.407-3.449 4.566-2.976 5.18-5.072.065-.224.122-.446.17-.655.44-1.869-1.55-3.258-3.135-2.461.219-1.48.39-3.16.225-4.108-.341-1.961-.272-7.102-.272-7.102l-.476-24.626s.883-4.871 1.907-6.763c1.024-1.892.898-8.524.898-8.524l1.159-21.785 1.09-10.62s1.09-3.652 2.451.408c0 0-.748 8.183-.407 10.147.342 1.964.818 11.5.476 13.595-.341 2.096-1.838 13.6-.898 16.506.94 2.908 1.988 6.432 1.779 7.584-.21 1.153-.899 26.111-.899 26.111s1.842 4.79.48 6.36c-1.363 1.568-.07 7.784-.07 7.784s.165.116.447.278l-.04.518-.427 5.596a.82.82 0 0 0 .598.856 6.844 6.844 0 0 0 6.773-1.904c3.407-3.452 4.566-2.976 5.18-5.075.065-.224.122-.443.173-.656.48-2.038-1.946-3.517-3.569-2.185l-.08.069c-.085.072-.174.139-.267.2-.043.032-.088.061-.135.087.342-1.545.839-4.191.6-5.431-.342-1.826.337-7.371.337-7.371s1.976-6.632 2.045-9.282l.545-21.104s-.066-8.593.207-10.69c.272-2.095 2.452-20.227 4.632-25.64 1.673-4.144 2.422-14.718 1.979-20.08a21.974 21.974 0 0 0-.078-.755c2.673-1.973 2.94-5.255 2.94-5.255s-2.455-4.688-4.818-6.673c-2.362-1.985-2.87-5.399-2.787-6.85a3.557 3.557 0 0 0-.817-2.435s-1.09-3.518-1.818-3.877a.569.569 0 0 1-.158-.12c-.494-.53-.114-2.045-.114-2.045v-.048c.087-.35.599-2.62.446-3.2-.183-.629.09-3.608.09-3.608s1.727-5.14 1.455-9.2c-.273-4.06 3.545-3.698 3.545-3.698l11.787-.123h1.342a9.44 9.44 0 0 0 1.29-1.335c2.245-.267 6.787-1.114 7.296-3.593.692-3.29-2.125-6.629-2.808-6.991zm-54.61 37.533l.08-2.063c.278.24.464.392.464.392.15.54.158 1.11.021 1.653a1.763 1.763 0 0 1-1.02 1.144 1.24 1.24 0 0 0-.166.086l-.113-1.164.733-.048zm42.754-36.228c-.5-.224-2.183-.18-3.048-.18-.865 0-2.27-.72-2.27-.72-.3-.585-1.955-.932-3.428-1.13-1.12-2.76-2.694-5.452-2.907-8.329 0-.105 0-.21-.015-.314l.17.3s6.863 4.376 7.635 5.688c.6 1 3.482 3.233 4.818 4.233-.184.24-.442.413-.734.491a.404.404 0 0 1-.221-.039z"/>
        <path fill="#67647E" fill-rule="nonzero" d="M127.317 239.284c-.05.21-.104.429-.17.65-.6 2.096-1.746 1.61-5.09 5.033a6.7 6.7 0 0 1-6.668 1.892.808.808 0 0 1-.599-.85l.423-5.55.2-2.672s5.341 1.497 8.06-.404c.091-.062.18-.129.264-.2a.823.823 0 0 0 .06-.06 2.183 2.183 0 0 1 3.52 2.161zM110.55 237.189c-.05.21-.104.428-.17.65-.599 2.095-1.745 1.61-5.09 5.032a6.7 6.7 0 0 1-6.667 1.892.808.808 0 0 1-.599-.85l.422-5.55.2-2.671s5.342 1.497 8.06-.405c.092-.062.18-.129.264-.2a.823.823 0 0 0 .06-.06 2.183 2.183 0 0 1 3.52 2.162z"/>
        <path fill="#000" fill-rule="nonzero" d="M105.033 238.021l.216 2.886c-3.066 3.063-6.716-1.497-7.785-2.994 2.811 1.45 7.569.108 7.569.108zM123.054 239.195l.401-.267c-2.8 4.258-6.958 2.294-8.254 1.53l.2-2.67s5.342 1.496 8.06-.405a44.385 44.385 0 0 1-.407 1.812z" opacity=".1"/>
        <path fill="#253858" fill-rule="nonzero" d="M131.58 158.587c-2.149 5.368-4.296 23.353-4.565 25.449-.27 2.096-.2 10.605-.2 10.605l-.54 20.925c-.068 2.62-2.015 9.197-2.015 9.197s-.67 5.503-.335 7.315c.335 1.811-.871 6.587-.871 6.587l.401-.27c-3.356 5.09-8.659 1.276-8.659 1.276s-1.275-6.174.07-7.719c1.344-1.545-.47-6.308-.47-6.308s.67-24.767.87-25.907c.201-1.141-.805-4.632-1.745-7.518-.94-2.887.539-14.297.874-16.378.336-2.08-.135-11.545-.47-13.49-.335-1.947.401-10.07.401-10.07-1.341-4.027-2.416-.4-2.416-.4l-1.075 10.535-1.14 21.614s.134 6.587-.872 8.458c-1.006 1.871-1.88 6.71-1.88 6.71l.47 24.434s-.066 5.09.27 7.045c.335 1.955-.74 6.982-.74 6.982-3.757 8.853-9.793-.746-9.793-.746s.27-1.476.805-1.676c.536-.201-.2-3.827-.599-4.432-.398-.604.066-4.967.066-4.967s-.47-3.958-1.197-8.724c-.728-4.767-.536-23.156-.066-24.297.47-1.14.87-6.443.87-6.443s-.535-3.02.136-5.17c.67-2.15-1.611-11.207-1.611-12.216 0-1.009-.871-7.248-1.341-7.92-.47-.67-.47-1.88-.47-1.88s-.066-1.34-1.198-5.368c-.832-2.94-.341-8.736-.015-11.655.117-1.081.219-1.77.219-1.77s38.494-6.242 40.03-4.832c.359.332.598 1.473.739 3.099.458 5.317-.296 15.826-1.937 19.925z"/>
        <path fill="#000" fill-rule="nonzero" d="M117.012 188.838c.18 0 4.431.6 5.988.075 1.557-.525-5.988-.075-5.988-.075zM117.326 191.272s5.872 1.03 6.171.494c.3-.535-6.17-.494-6.17-.494zM99.383 190.198s3.042.134 4.698.898c1.656.763-4.698-.898-4.698-.898z" opacity=".1"/>
        <path fill="#EFB7B9" fill-rule="nonzero" d="M88.33 114.937s.49 9.35.224 11.006c0 0 1.072 7.563 1.967 9.485.895 1.922 2.82 4.341 2.82 4.341l2.641-18.562-.629-6.36-7.024.09z"/>
        <circle cx="116.072" cy="62.003" r="10.335" fill="#EFB7B9" fill-rule="nonzero"/>
        <path fill="#EFB7B9" fill-rule="nonzero" d="M110.704 66.832s-3.222 6.312-6.444 9.264c-3.221 2.952 19.33 6.308 19.866 6.308.536 0-4.027-13.422-3.222-15.042.806-1.62-10.2-.53-10.2-.53z"/>
        <path fill="#000" fill-rule="nonzero" d="M133.524 138.662a6.716 6.716 0 0 1-1.659.928c-4.114 1.61-8.59 3.847-11.631 2.955-3.042-.892-9.485 0-9.485 0s-12.98-1.075-15.57-.45c-1.179.285-2.095.273-2.694.07.117-1.081.219-1.77.219-1.77s38.539-6.242 40.074-4.832c.366.332.6 1.473.746 3.099z" opacity=".1"/>
        <path fill="url(#b)" d="M136.341 132.698s-.356 4.476-4.476 6.086c-4.12 1.611-8.59 3.848-11.631 2.956-3.042-.893-9.485 0-9.485 0s-12.98-1.075-15.57-.45c-2.59.626-3.94-.176-3.134-1.34.805-1.166.718-5.013.718-6.624 0-1.61-.898-8.143-.092-9.308.805-1.165 1.52-5.638 3.131-6.356.49-.207.86-.624 1.006-1.135a3.246 3.246 0 0 0-.02-1.638s-.273-.224-.647-.557c-.95-.847-2.554-2.419-2.04-2.934.716-.718 0-5.371 0-5.371s-1.7-3.578-1.071-4.92c.629-1.34-5.461-8.412-5.461-8.412s0-12.168 7.338-12.707c0 0 5.192.18 5.818-2.147.625-2.326 4.742-3.67 4.742-3.67l9.398 2.06s8.32 1.796 9.845.715c1.524-1.08 2.694 1.431 2.694 1.431s5.189.27 5.725 1.345c.536 1.074-1.698 11.541-1.698 11.541s-3.76-.356-3.49 3.671c.269 4.027-1.45 9.129-1.45 9.129s-.27 2.952-.09 3.578c.168.578-.353 2.83-.437 3.176v.045s-.374 1.497.11 2.03a.599.599 0 0 0 .157.12c.718.356 1.796 3.847 1.796 3.847.559.678.846 1.54.805 2.416-.086 1.435.45 4.833 2.776 6.803 2.326 1.97 4.733 6.62 4.733 6.62z"/>
        <path fill="url(#b)" d="M96.428 111.973v.38l-.162 4.192s-5.506.446-8.503-.3c-2.997-.745-1.736-4.071-1.616-4.76a.11.11 0 0 0 0-.027c.087-.629.898-5.862.898-6.712 0-.85 0-4.342-.135-5.953-.135-1.61.659-6.098.659-6.098l.58-.713 6.306 2.416 1.973 17.575z"/>
        <path fill="#000" fill-rule="nonzero" d="M96.413 112.362l-.162 4.192s-5.505.446-8.502-.3c-2.998-.745-1.737-4.071-1.617-4.76l10.281.868z" opacity=".1"/>
        <path fill="#000" fill-rule="nonzero" d="M96.808 116.53a3.246 3.246 0 0 0-.02-1.638s-.273-.224-.647-.557c4.74-.661 23.509-3.236 29.83-3.518v.045s-.375 1.497.11 2.03l-29.273 3.638zM126.677 119.757s1.164 6.587-3.177 8.905c-.003.012 2.461-3.255 3.177-8.905zM98.263 128.85s10.48-1.796 12.53-.4c2.051 1.394-12.53.4-12.53.4zM123.054 88.087s-1.61 6.623-.404 8.144c1.206 1.52.404-8.144.404-8.144zM92.716 82.674s1.476 2.46.58 5.012c-.895 2.55-.58-5.012-.58-5.012zM89.665 104.243s1.88 1.116 1.254 2.862c-.626 1.745-1.254-2.862-1.254-2.862zM89.494 99.14s1.743.94 1.967 2.327c.225 1.386-1.967-2.326-1.967-2.326zM115.356 152.656s10.964 1.12 13.156-1.476c0 .015-9.89 1.97-13.156 1.476zM96.428 152.03s11.77 2.775 14.096.58c0 0-10.114.761-14.096-.58zM116.207 156.284s4.922 0 7.203.225c2.282.225-7.203-.225-7.203-.225zM97.234 158.38s2.416 2.73 5.146 2.24c2.73-.491-5.146-2.24-5.146-2.24z" opacity=".1"/>
        <path fill="#253858" fill-rule="nonzero" d="M101.979 46.599c-.757 1.176-.784 2.539-.982 3.844-.461 3.051-1.955 6.006-4.293 8.497-2.147 2.282-5.09 4.35-5.647 7.138-.527 2.647 1.26 5.194 2.197 7.784 2.47 6.794-.979 13.92-1.985 20.931-.278 1.938.057 4.414 2.444 5.057.745.204 1.598.177 2.269.5.898.431 1.174 1.327 1.338 2.132.6 2.88.808 5.83.617 8.767-.108 1.646-.227 3.541 1.33 4.673.706.518 1.658.782 2.577 1.03 2.452.662 5.623 1.198 7.276-.356.694-.65.955-1.566 1.82-2.081 1.297-.77 3.135-.249 4.767-.168 3.35.168 6.428-1.796 7.748-4.164 1.32-2.369 1.198-5.09.719-7.644-.48-2.554-1.336-5.09-1.396-7.683-.02-.898.06-1.811.575-2.607.997-1.542 3.318-2.243 4.904-3.456 2.974-2.275 2.965-6.003 1.884-9.122-1.081-3.12-3.021-6.111-3.26-9.336a3.554 3.554 0 0 1 .44-2.254c.425-.656 1.167-1.147 1.796-1.689 4.338-3.664 3.826-9.682.24-13.802-3.97-4.566-21.959-14.401-27.378-5.991z"/>
        <g fill="#000" fill-rule="nonzero" opacity=".1">
            <path d="M93.805 76.683c.339-2.722.276-5.42-.685-8.07-.473-1.299-1.159-2.589-1.659-3.891-.25.47-.431.975-.539 1.497-.527 2.646 1.26 5.194 2.198 7.784.315.869.545 1.766.685 2.68zM97.802 106a32.7 32.7 0 0 0-.613-8.766c-.168-.806-.443-1.698-1.342-2.13-.67-.323-1.524-.299-2.27-.5a3.093 3.093 0 0 1-2.095-1.73 37.462 37.462 0 0 0-.356 2.045c-.279 1.937.057 4.413 2.443 5.057.745.2 1.599.174 2.27.497.898.431 1.173 1.326 1.34 2.132.275 1.336.467 2.688.575 4.048.021-.222.033-.437.048-.653zM123.323 104.937c-1.323 2.377-4.4 4.332-7.751 4.165-1.632-.084-3.47-.599-4.764.167-.865.512-1.128 1.432-1.823 2.081-1.653 1.542-4.823 1.018-7.275.357-.92-.252-1.869-.512-2.578-1.03a3.234 3.234 0 0 1-1.273-2.066c.018.919 0 1.841-.057 2.76-.107 1.647-.227 3.542 1.33 4.677.71.515 1.658.778 2.578 1.027 2.452.662 5.622 1.197 7.275-.356.695-.65.958-1.566 1.823-2.096 1.294-.77 3.132-.249 4.764-.168 3.35.168 6.428-1.796 7.751-4.165 1.27-2.287 1.213-4.874.77-7.344a8.045 8.045 0 0 1-.77 1.991zM128.994 61.159c-.64.539-1.383 1.033-1.796 1.688a3.554 3.554 0 0 0-.44 2.255c.086.98.294 1.945.616 2.874a11.958 11.958 0 0 1 1.632-1.45c2.934-2.475 3.647-6.029 2.695-9.346a8.545 8.545 0 0 1-2.707 3.979zM128.123 83.545c-1.584 1.212-3.907 1.916-4.901 3.458-.518.796-.6 1.716-.578 2.605.037 1.047.165 2.089.383 3.114a2.88 2.88 0 0 1 .195-.35c.994-1.543 3.317-2.243 4.9-3.456 2.716-2.078 2.944-5.365 2.141-8.296a6.216 6.216 0 0 1-2.14 2.925z"/>
        </g>
        <path fill="#EFB7B9" fill-rule="nonzero" d="M144.395 89.922s7.743-.401 8.413-3.668c.671-3.266-2.095-6.586-2.772-6.937-.677-.35-7.976-5.907-7.976-5.907l-11.767-7.515s-5.637-16.167-6.886-9.979c-1.248 6.189 3.626 14.407 3.626 14.407s6.754 4.342 7.515 5.638c.76 1.296 5.416 4.698 5.416 4.698l4.431 9.263z"/>
        <path fill="url(#b)" d="M148.557 84.64c-1.832 4.656-4.207 6.492-4.207 6.492h-1.32l-11.608.12-1.338-3.656 1.88-7.922 1.162.048s1.389.715 2.236.715c.848 0 2.51-.045 2.994.177a.368.368 0 0 0 .219.033c.44-.045.898-.704.898-.704s10.92.045 9.084 4.698z"/>
        <path fill="#000" fill-rule="nonzero" d="M148.557 84.64c-1.832 4.656-4.207 6.492-4.207 6.492h-1.32c.689-1.845 2.14-5.629 2.695-6.503.541-.827-4.32-2.883-7.165-3.994.44-.045.898-.704.898-.704s10.934.057 9.099 4.71z" opacity=".1"/>
        <ellipse cx="27.192" cy="228.784" fill="#1F9AFF" fill-rule="nonzero" opacity=".1" rx="13.228" ry="2.587"/>
        <ellipse cx="247.689" cy="211.722" fill="#1F9AFF" fill-rule="nonzero" opacity=".1" rx="9.635" ry="1.883"/>
        <ellipse cx="289.452" cy="219.353" fill="#1F9AFF" fill-rule="nonzero" opacity=".1" rx="9.635" ry="1.883"/>
        <ellipse cx="224.784" cy="235.072" fill="#1F9AFF" fill-rule="nonzero" opacity=".1" rx="9.635" ry="1.883"/>
        <path fill="#02B875" fill-rule="nonzero" d="M39.692 156.976s2.167 2.835-1 7.11c-3.168 4.276-5.776 7.887-4.716 10.555 0 0 4.775-7.943 8.665-8.054 3.889-.111 1.33-4.833-2.95-9.611z"/>
        <path fill="#000" fill-rule="nonzero" d="M39.692 156.976c.19.277.338.58.443.898 3.793 4.458 5.814 8.617 2.167 8.722-3.395.096-7.47 6.17-8.446 7.703.032.12.07.237.117.35 0 0 4.776-7.942 8.665-8.053 3.889-.111 1.332-4.842-2.946-9.62z" opacity=".1"/>
        <path fill="#FFD037" fill-rule="nonzero" d="M43.719 160.587c0 .997-.111 1.796-.249 1.796s-.251-.808-.251-1.796.14-.527.278-.527.222-.482.222.527z"/>
        <path fill="#FFD037" fill-rule="nonzero" d="M45.102 161.778c-.874.476-1.638.767-1.704.644-.066-.123.599-.599 1.464-1.084.866-.485.53-.128.6 0 .068.13.514-.039-.36.44z"/>
        <path fill="#02B875" fill-rule="nonzero" d="M28.251 156.976s-2.167 2.835 1 7.11c3.168 4.276 5.776 7.887 4.725 10.555 0 0-4.79-7.943-8.683-8.054-3.892-.111-1.32-4.833 2.958-9.611z"/>
        <path fill="#000" fill-rule="nonzero" d="M28.251 156.976a3.53 3.53 0 0 0-.443.898c-3.793 4.458-5.814 8.617-2.167 8.722 3.395.096 7.485 6.17 8.446 7.703-.032.12-.07.236-.114.35 0 0-4.79-7.942-8.683-8.053-3.892-.111-1.317-4.842 2.961-9.62z" opacity=".1"/>
        <path fill="#FFD037" fill-rule="nonzero" d="M24.225 160.587c0 .997.11 1.796.248 1.796s.252-.808.252-1.796-.141-.527-.279-.527c-.138 0-.221-.482-.221.527z"/>
        <path fill="#FFD037" fill-rule="nonzero" d="M22.841 161.778c.878.476 1.638.767 1.707.644.069-.123-.599-.599-1.467-1.084-.868-.485-.53-.128-.599 0-.069.13-.515-.039.36.44z"/>
        <ellipse cx="33.97" cy="192.835" fill="#1F9AFF" fill-rule="nonzero" opacity=".1" rx="22.65" ry="3.476"/>
        <path fill="#65617D" fill-rule="nonzero" d="M45.629 170.823l-.108.899-.153 1.248-.063.521-.152 1.252-.066.52-.153 1.249-1.73 14.204c-.156 1.269-2.228 2.257-4.73 2.257h-8.989c-2.503 0-4.572-.988-4.728-2.257l-1.733-14.207-.153-1.249-.063-.52-.155-1.252-.063-.52-.153-1.25-.108-.898c-.086-.718 1.033-1.323 2.45-1.323h18.419c1.398.003 2.52.608 2.43 1.326z"/>
        <path fill="#9D9CB5" fill-rule="nonzero" d="M45.518 171.707l-.15 1.251H22.572l-.15-1.251zM45.302 173.479l-.15 1.249H22.79l-.152-1.249zM45.087 175.249l-.153 1.248H23.006l-.153-1.248z"/>
        <circle cx="53.889" cy="37.581" r="9.431" fill="#1F9AFF" fill-rule="nonzero" opacity=".1"/>
        <circle cx="34.129" cy="15.126" r="5.838" fill="#1F9AFF" fill-rule="nonzero" opacity=".1"/>
        <circle cx="3.593" cy="28.15" r="3.593" fill="#1F9AFF" fill-rule="nonzero" opacity=".1"/>
    </g>
</svg>
