<svg xmlns="http://www.w3.org/2000/svg" width="22" height="16" viewBox="0 0 22 16">
    <g fill="none" fill-rule="evenodd" stroke="#FFF" stroke-linecap="round" stroke-linejoin="round" stroke-width="1.5">
        <path d="M19.945 3.118a2.432 2.432 0 0 0-1.698-1.75C16.742 1 10.722 1 10.722 1s-6.02 0-7.525.403A2.433 2.433 0 0 0 1.5 3.152a25.375 25.375 0 0 0-.403 4.628c-.01 1.564.125 3.125.403 4.664a2.432 2.432 0 0 0 1.697 1.68c1.505.402 7.525.402 7.525.402s6.02 0 7.525-.402a2.432 2.432 0 0 0 1.698-1.75c.273-1.516.408-3.053.402-4.594a25.375 25.375 0 0 0-.402-4.663z"/>
        <path d="M8.753 10.643l5.032-2.862L8.753 4.92z"/>
    </g>
</svg>
