<?xml version="1.0"?>
<svg xmlns="http://www.w3.org/2000/svg" xmlns:xlink="http://www.w3.org/1999/xlink" version="1.1" id="Capa_1" x="0px" y="0px" viewBox="0 0 509.889 509.889" style="enable-background:new 0 0 509.889 509.889;" xml:space="preserve" width="512px" height="512px" class=""><g><g>
	<g>
		<path d="M254.945,509.889c-140.032,0-254.41-114.378-254.41-255.479S114.912,0,254.945,0    s254.41,114.378,254.41,254.41S396.046,509.889,254.945,509.889z M254.945,32.068c-122.929,0-222.342,99.412-222.342,222.342    s99.412,222.342,222.342,222.342s222.342-99.412,222.342-222.342C478.355,131.481,377.874,32.069,254.945,32.068z" data-original="#231F20" class="active-path" data-old_color="#dd3646" fill="#dd3646"/>
		<g>
			<path d="M329.771,345.271c-4.276,0-8.552-1.069-11.758-4.276l-74.826-74.826     c-6.414-6.414-6.414-16.034,0-22.448l74.826-74.826c6.414-6.414,16.034-6.414,22.448,0c6.414,6.414,6.414,16.034,0,22.448     l-63.068,63.068l63.068,63.068c6.414,6.414,6.414,16.034,0,22.448C338.323,344.202,334.047,345.271,329.771,345.271z" data-original="#231F20" class="active-path" data-old_color="#dd3646" fill="#dd3646"/>
			<path d="M180.118,345.271c-4.276,0-8.552-1.069-11.758-4.276c-6.414-6.414-6.414-16.034,0-22.448     l63.068-63.068l-63.068-63.068c-6.414-6.414-6.414-16.034,0-22.448c6.414-6.414,16.034-6.414,22.448,0l74.826,74.826     c6.414,6.414,6.414,16.034,0,22.448l-74.826,74.826C188.67,344.202,184.394,345.271,180.118,345.271z" data-original="#231F20" class="active-path" data-old_color="#dd3646" fill="#dd3646"/>
		</g>
	</g>
</g></g> </svg>
