<svg xmlns="http://www.w3.org/2000/svg" width="494" height="350" viewBox="0 0 494 350">
    <defs>
        <linearGradient id="a" x1="50%" x2="50%" y1="100%" y2="0%">
            <stop offset="0%" stop-color="gray" stop-opacity=".25"/>
            <stop offset="54%" stop-color="gray" stop-opacity=".12"/>
            <stop offset="100%" stop-color="gray" stop-opacity=".1"/>
        </linearGradient>
        <linearGradient id="b" x1="50%" x2="50%" y1="100.008%" y2=".008%">
            <stop offset="0%" stop-color="gray" stop-opacity=".25"/>
            <stop offset="54%" stop-color="gray" stop-opacity=".12"/>
            <stop offset="100%" stop-color="gray" stop-opacity=".1"/>
        </linearGradient>
        <linearGradient id="c" x1="50.015%" x2="50.015%" y1="99.995%" y2=".004%">
            <stop offset="0%" stop-color="gray" stop-opacity=".25"/>
            <stop offset="54%" stop-color="gray" stop-opacity=".12"/>
            <stop offset="100%" stop-color="gray" stop-opacity=".1"/>
        </linearGradient>
    </defs>
    <g fill="none" fill-rule="evenodd">
        <path fill="#6C63FF" fill-rule="nonzero" d="M61.281 258.406c-2.011 4.08.886 8.485-.128 12.698-1.259 5.316-8.476 9.454-16.251 12.095-7.775 2.64-16.459 4.244-24.04 7.088-3.278 1.228-6.694 3.491-4.988 5.574.59.722 1.697 1.227 2.773 1.701 22.073 9.64 49.36 14.877 76.646 14.709 28.833-.182 57.072-6.203 85.883-5.512 37.162.887 73.101 12.875 109.842 9.42 15.6-1.467 30.091-5.65 45.274-8.259 22.338-3.84 45.833-4.226 68.964-5.489 17.371-.948 37.215-3.407 45.522-12.649 5.999-6.68 3.482-15.506-4.971-21.164-8.453-5.657-21.957-8.076-34.437-6.977-6.708.589-13.376 2.117-20.079 1.51-3.894-.354-7.5-1.409-11.04-2.445-27.469-8.064-55.952-16.11-86.46-17.279-49.642-1.918-95.611 14.421-143.951 21.488-7.532 1.098-15.701 1.944-22.812.101-7.496-1.944-12.405-6.539-19.906-8.475-3.544-.921-7.531-1.187-11.036-2.188-9.627-2.756-5.17-6.544-18.51-3.988-7 1.334-14.049 3.487-16.295 8.041z" opacity=".1"/>
        <path stroke="#535461" stroke-width="2" d="M317.357 122.314s32.997-51.871 36.985-74.023C358.329 26.14 365.86 5.76 365.86 5.76"/>
        <path fill="#6C63FF" fill-rule="nonzero" d="M373.392 50.063l-20.822 1.772s11.076 19.051 20.822-1.772z"/>
        <path fill="#6C63FF" fill-rule="nonzero" d="M337.063 38.544l16.49 13.207s-21.363 8.502-16.49-13.207zM376.05 31.899l-18.749 2.512s16.534 13.437 18.75-2.512zM345.038 25.253l12.378 8.688s-15.036 6.375-12.378-8.688zM362.01 17.363s15.37-4.072 17.585-3.186c2.215.886.886 10.633-5.317 11.076-6.202.443-12.267-7.89-12.267-7.89zM351.684 5.76s9.746 9.303 10.19 11.518c.442 2.216-7.975 7.532-12.406 0-4.43-7.531 2.216-11.519 2.216-11.519z"/>
        <circle cx="369.848" cy="6.646" r="4.43" fill="#FFD037" fill-rule="nonzero"/>
        <circle cx="361.873" cy="4.43" r="4.43" fill="#FFD037" fill-rule="nonzero"/>
        <path stroke="#535461" stroke-width="2" d="M72.242 274.046s-14.098-37.003-3.017-65.902c4.652-12.13 5.476-25.404 1.922-37.902a100.897 100.897 0 0 0-6.68-17.186"/>
        <path fill="#6C63FF" fill-rule="nonzero" d="M71.338 134.785c.359 4.643-6.996 18.754-6.996 18.754s-9.45-12.804-9.808-17.447a8.43 8.43 0 1 1 16.808-1.307h-.004zM87.225 159.414c-2.215 4.094-16.064 11.94-16.064 11.94s-.97-15.883 1.25-19.977a8.43 8.43 0 0 1 14.819 8.037h-.005zM90.034 203.39c-3.987 2.41-19.892 2.215-19.892 2.215s7.181-14.204 11.16-16.614a8.43 8.43 0 0 1 8.732 14.421v-.022zM84.665 237.145c-3.518 3.048-19.237 5.525-19.237 5.525s4.678-15.214 8.192-18.262a8.43 8.43 0 0 1 11.045 12.737zM53.585 173.622c3.58 2.977 19.348 5.122 19.348 5.122s-4.993-15.112-8.577-18.085a8.428 8.428 0 1 0-10.775 12.963h.004zM47.808 213.177c4.307 1.772 19.995-.886 19.995-.886s-9.304-12.924-13.593-14.692a8.429 8.429 0 1 0-6.402 15.595v-.017zM47.467 252.39c3.948 2.468 19.861 2.49 19.861 2.49s-6.973-14.31-10.916-16.76a8.428 8.428 0 0 0-8.945 14.288v-.018z"/>
        <path fill="#6C63FF" fill-rule="nonzero" d="M71.338 134.785c.359 4.643-6.996 18.754-6.996 18.754s-9.45-12.804-9.808-17.447a8.43 8.43 0 1 1 16.808-1.307h-.004zM87.225 159.414c-2.215 4.094-16.064 11.94-16.064 11.94s-.97-15.883 1.25-19.977a8.43 8.43 0 0 1 14.819 8.037h-.005zM90.034 203.39c-3.987 2.41-19.892 2.215-19.892 2.215s7.181-14.204 11.16-16.614a8.43 8.43 0 0 1 8.732 14.421v-.022zM84.665 237.145c-3.518 3.048-19.237 5.525-19.237 5.525s4.678-15.214 8.192-18.262a8.43 8.43 0 0 1 11.045 12.737zM53.585 173.622c3.58 2.977 19.348 5.122 19.348 5.122s-4.993-15.112-8.577-18.085a8.428 8.428 0 1 0-10.775 12.963h.004zM47.808 213.177c4.307 1.772 19.995-.886 19.995-.886s-9.304-12.924-13.593-14.692a8.429 8.429 0 1 0-6.402 15.595v-.017zM47.467 252.39c3.948 2.468 19.861 2.49 19.861 2.49s-6.973-14.31-10.916-16.76a8.428 8.428 0 0 0-8.945 14.288v-.018z"/>
        <path fill="#A8A8A8" fill-rule="nonzero" d="M100.038 267.382s-10.695-1.289-13.734-3.876c-3.04-2.588-16.043-6.522-17.177-2.902-1.134 3.62-17.752 16.915-5.657 18.098 12.095 1.183 28.314.62 31.695-1.055 3.38-1.674 4.873-10.265 4.873-10.265z"/>
        <path fill="#000" fill-rule="nonzero" d="M63.385 277.395c12.1 1.178 28.297.625 31.7-1.05 2.592-1.276 4.05-6.557 4.599-9.007l.358.044s-1.453 8.586-4.873 10.265c-3.42 1.68-19.6 2.216-31.7 1.05-3.49-.34-4.59-1.692-4.359-3.544.403 1.174 1.675 1.99 4.275 2.242z" opacity=".2"/>
        <path fill="#6C63FF" fill-rule="nonzero" d="M463.86 204.573c-17.366 23.8-11.607 57.772-1.594 84.837 3.358 9.06 7.173 18.643 5.431 28.5-2.126 12.051-12.121 21.08-22.51 25.998-18.94 8.963-41.314 7.532-58.255-3.761-14.62-9.747-24.912-25.944-39.816-35.226-24.943-15.529-57.325-8.59-85.086 3.265-19.64 8.387-41.153 19.188-60.293 11.444-13.468-5.45-22.537-19.321-27.309-34.15-2.303-7.16-3.916-14.93-8.506-20.534-2.729-3.332-6.335-5.654-10.044-7.594-33.843-17.722-77.376-6.646-110.187-26.418-22.152-13.354-35.94-39.267-41.668-66.51-5.729-27.242-4.311-56-2.03-84.265C3.616 60.072 6.18 38.606 18.259 22.82 31.03 6.127 52.438-.51 71.582 2.109c19.143 2.618 36.302 13.264 51.321 25.935 18.78 15.843 36.059 35.722 59.416 41.721 15.91 4.094 32.811 1.196 49.35-.084 27.646-2.135 55.194.323 82.573 3.101 26.21 2.659 52.602 5.627 77.426 14.341 17.566 6.168 31.49 17.824 48.03 25.79 10.779 5.192 22.639 6.397 32.784 13.105 12.52 8.262 23.836 22.9 20.163 40.467-3.47 16.698-19.57 25.457-28.784 38.088z" opacity=".1"/>
        <path fill="url(#a)" fill-rule="nonzero" d="M381.566 36.094H92.307c-6.245-.005-11.312 5.053-11.32 11.298v168.576c.008 6.245 5.075 11.302 11.32 11.297h116.484v41.544H197.83c-1.491 0-2.7 1.207-2.703 2.698v5.6h85.01v-5.609a2.703 2.703 0 0 0-2.702-2.698h-13.996v-41.548h118.127c6.24.005 11.305-5.044 11.32-11.284V47.392c-.007-6.245-5.075-11.303-11.32-11.298z"/>
        <path fill="#474059" fill-rule="nonzero" d="M209.504 219.384h53.727v51.844h-53.727z"/>
        <path fill="#000" fill-rule="nonzero" d="M209.504 266.629h53.727v4.599h-53.727z" opacity=".1"/>
        <path fill="#474059" fill-rule="nonzero" d="M198.73 267.152h78.262a2.658 2.658 0 0 1 2.658 2.658v5.53h-83.58v-5.53a2.658 2.658 0 0 1 2.66-2.658z"/>
        <rect width="306.649" height="188.335" x="83.854" y="37.866" fill="#474059" fill-rule="nonzero" rx="25.12"/>
        <path fill="#FFF" fill-rule="nonzero" d="M90.309 59.863h293.092v153.858H90.309z"/>
        <ellipse cx="236.857" cy="51.915" fill="#FFF" fill-rule="nonzero" rx="2.583" ry="2.552"/>
        <path fill="#000" fill-rule="nonzero" d="M209.619 226.33h53.559v1.01h-53.559z" opacity=".1"/>
        <path fill="#D6D6E3" fill-rule="nonzero" d="M254.632 95.794a61.14 61.14 0 0 0 21.93 105.793l17.084-58.72-39.014-47.073zM294.975 81.727a60.887 60.887 0 0 0-39.014 14.067l39.014 47.072 32.306-51.91a60.847 60.847 0 0 0-32.306-9.229z"/>
        <path fill="#8499F0" fill-rule="nonzero" d="M294.975 142.866l-17.084 58.716a61.175 61.175 0 0 0 78.223-57.639l-61.14-1.077zM116.43 113.183h22.152v13.291H116.43z"/>
        <path fill="#FC6681" fill-rule="nonzero" d="M116.43 136.221h22.152v13.291H116.43z"/>
        <path fill="#6C63FF" fill-rule="nonzero" d="M116.43 159.259h22.152v13.291H116.43z"/>
        <path fill="#D6D6E3" fill-rule="nonzero" d="M150.544 117.17h41.646v5.316h-41.646zM150.544 140.208h41.646v5.316h-41.646zM150.544 163.246h41.646v5.316h-41.646zM90.291 59.575h293.291v5.316H90.291z"/>
        <circle cx="93.835" cy="62.234" r="1.329" fill="#FC6681" fill-rule="nonzero"/>
        <circle cx="97.38" cy="62.234" r="1.329" fill="#FFC74C" fill-rule="nonzero"/>
        <circle cx="100.924" cy="62.234" r="1.329" fill="#85D459" fill-rule="nonzero"/>
        <path fill="#6C63FF" fill-rule="nonzero" d="M403.931 239.692s2.113 2.765-.975 6.938c-3.088 4.174-5.635 7.696-4.607 10.301 0 0 4.66-7.753 8.457-7.86 3.797-.106 1.303-4.718-2.875-9.379z"/>
        <path fill="#000" fill-rule="nonzero" d="M403.931 239.692c.19.273.34.571.443.886 3.704 4.351 5.675 8.418 2.118 8.511-3.314.093-7.293 6.021-8.245 7.532.03.116.067.23.11.341 0 0 4.661-7.753 8.458-7.86 3.797-.106 1.294-4.749-2.884-9.41z" opacity=".1"/>
        <path fill="#FFD037" fill-rule="nonzero" d="M407.873 243.215c0 .974-.113 1.772-.25 1.772-.136 0-.25-.789-.25-1.772 0-.984.141-.514.278-.514.136 0 .222-.461.222.514z"/>
        <path fill="#FFD037" fill-rule="nonzero" d="M409.212 244.375c-.855.466-1.6.75-1.661.63-.062-.12.576-.594 1.43-1.06.856-.465.519-.128.581 0 .062.13.505-.035-.35.43z"/>
        <path fill="#6C63FF" fill-rule="nonzero" d="M392.766 239.692s-2.113 2.765.975 6.938c3.088 4.174 5.636 7.696 4.608 10.301 0 0-4.661-7.753-8.458-7.86-3.797-.106-1.298-4.718 2.875-9.379z"/>
        <path fill="#000" fill-rule="nonzero" d="M392.766 239.692c-.19.273-.339.571-.443.886-3.703 4.351-5.675 8.418-2.117 8.511 3.314.093 7.292 6.021 8.245 7.532-.03.116-.068.23-.111.341 0 0-4.66-7.753-8.458-7.86-3.797-.106-1.289-4.749 2.884-9.41z" opacity=".1"/>
        <path fill="#FFD037" fill-rule="nonzero" d="M388.837 243.215c0 .974.113 1.772.25 1.772.136 0 .25-.789.25-1.772 0-.984-.141-.514-.278-.514-.136 0-.222-.461-.222.514z"/>
        <path fill="#FFD037" fill-rule="nonzero" d="M387.49 244.375c.855.466 1.6.75 1.661.63.062-.12-.576-.594-1.43-1.06-.856-.465-.52-.128-.581 0-.062.13-.505-.035.35.43z"/>
        <path fill="#A8A8A8" fill-rule="nonzero" d="M412.823 257.56s-5.813-1.16-7.364-2.711c-1.55-1.55-8.528-4.262-9.303-2.326-.776 1.936-10.465 8.528-3.877 9.689 6.588 1.16 15.506 1.55 17.443.775 1.936-.775 3.1-5.427 3.1-5.427z"/>
        <path fill="#000" fill-rule="nonzero" d="M392.28 261.49c6.587 1.16 15.505 1.55 17.442.775 1.475-.59 2.503-3.424 2.906-4.745l.195.04s-1.161 4.652-3.101 5.427c-1.941.776-10.855.386-17.443-.775-1.9-.337-2.445-1.125-2.242-2.122.164.647.829 1.152 2.242 1.4z" opacity=".2"/>
        <path fill="url(#b)" fill-rule="nonzero" d="M371.177 182.08a66.407 66.407 0 0 0-31.34-56.426l-35.115 56.426 66.455 1.17v-1.17z"/>
        <path fill="#6C63FF" fill-rule="nonzero" d="M368.519 179.873a61.095 61.095 0 0 0-28.833-51.91l-32.306 51.91 61.139 1.095v-1.095z"/>
        <path fill="url(#c)" fill-rule="nonzero" d="M457.57 115.69c0-.17-.017-.335-.05-.491a7.396 7.396 0 0 1-.088-.54 19.027 19.027 0 0 0-.217-1.029 19.41 19.41 0 0 0-.128-.487 13.185 13.185 0 0 0-2.565-4.997l-.209-.24a33.069 33.069 0 0 0-.407-.443 5.222 5.222 0 0 0-.395-.38 9.492 9.492 0 0 0-1.458-1.112 2.264 2.264 0 0 0-.956-.32l-2.109-.212-2.853-.284-10.305-4.067-.408.146c-.3-.843-.555-1.703-.762-2.574.313-.137.592-.343.815-.602.244-.194.436-.445.559-.731.257-.607-.24-1.91-.138-2.659.164-1.191.776-2.343 1.267-3.424 1.06-2.322 1.83-4.838 1.706-7.386-.124-2.547-1.267-5.135-3.385-6.557-1.094-.735-2.383-1.13-3.518-1.803-.886-.523-1.665-1.205-2.512-1.794a14.213 14.213 0 0 0-14.177-1.032c-2.14 1.072-3.965 2.658-5.985 3.96-2.02 1.303-4.4 2.273-6.761 1.896a1.56 1.56 0 0 0-.07.297l-.2-.026c-.408 1.13.589 2.242 1.51 3.012 1.746 1.462 3.722 2.92 6 2.973.885 0 1.807-.168 2.609.2.174.082.338.186.487.31a11.656 11.656 0 0 0 3.527 11.497l-5.26-1.923s-.22.115-.557.332l-7.306-4.94s-14.643-5.432-18.71 2.986c-4.067 8.418 17.629 4.054 17.629 4.054l4.643 2.592a4.368 4.368 0 0 0 .51 2.826L420 110.671c-2.556.802-6.76 2.082-7.505 2.082-1.086 0-4.067 1.086-5.968 5.423-1.9 4.337-8.679 25.492-14.642 29.015-5.963 3.522-21.71 27.118-21.71 27.118l.072.186c-.28.074-.555.156-.824.248-3.934 1.303-6.584 4.045-8.174 6.269a2.658 2.658 0 0 0 1.834 4.191c6.202.798 9.6-2.109 11.23-4.306.107-.142.205-.284.298-.417.485.212 1.03.237 1.533.071l7.602-6.229s-5.923 5.937-2.459 11.355l-.265.377a86.982 86.982 0 0 0-12.733 28.142s-3.257 2.44-3.545 12.2c-.288 9.761-3.544 25.493-3.544 25.493s-2.17 18.71-.815 24.407c0 0 .155.226.443.572a10.94 10.94 0 0 1-.337.39c-1.183 1.298-3.318 3.1-5.804 2.56-3.796-.815-3.796 5.968 1.626 6.509 3.491.35 10.359 1.936 14.802 3.021a3.137 3.137 0 0 0 3.868-3.38c-.266-2.428-.749-5.37-1.626-7.461a9.9 9.9 0 0 0-.168-.381c.16-.15.319-.306.478-.474 0 0 0-11.931 1.896-15.187 0 0 5.153-24.678 4.874-30.916-.213-4.873 13.366-23.884 19.276-31.898l-.048-.306c1.563-2.073 2.525-3.314 2.525-3.314l4.612 29.56s2.17 6.508 4.873 10.034c0 0 11.661 22.507 13.017 29.56 1.028 5.347 3.145 8.506 4.111 9.724-.11.116-.23.23-.354.346-1.232 1.152-3.057 2.304-5.113 1.865-3.797-.815-3.797 5.968 1.626 6.508 3.491.35 10.358 1.937 14.802 3.022a3.137 3.137 0 0 0 3.868-3.38c-.306-2.823-.913-6.331-2.083-8.418a7.031 7.031 0 0 0-.31-.492c.414-.17.783-.433 1.077-.77 0 0-7.049-17.084-7.049-21.71 0 0-2.982-17.628-13.016-24.136 0 0 .948-22.046 3.805-34.314.071-.295.144-.59.217-.886a79.454 79.454 0 0 0 7.913-1.674l.27-8.135 1.356 6.509 15.187-9.49s-.133-1.71-.39-4.333a266.343 266.343 0 0 0-1.138-9.809c-.2-1.462-.417-2.942-.651-4.386-.089-.544-.18-1.081-.275-1.613a98.084 98.084 0 0 0-.59-3.074 60.504 60.504 0 0 0-.425-1.892l-.11-.443c-.074-.296-.15-.582-.226-.86a15.768 15.768 0 0 1-.55-3.544 19.265 19.265 0 0 1 0-1.431c.018-.476.062-.951.133-1.427a16.335 16.335 0 0 1 1.453-4.807 242.835 242.835 0 0 0 2.384-5.099c.278-.605.555-1.226.833-1.86 2.658-5.977 5.245-12.64 5.941-17.018.075-.443.124-.886.155-1.302a8.86 8.86 0 0 0 .027-1.165z"/>
        <path fill="#F7BBC3" fill-rule="nonzero" d="M412.26 99.006l-8.945-6.052s-14.204-5.26-18.164 2.893c-3.961 8.152 17.096 3.947 17.096 3.947l8.945 4.998 1.068-5.786z"/>
        <path fill="#B77983" fill-rule="nonzero" d="M438.718 283.43c-4.315-1.05-10.97-2.593-14.359-2.93-5.258-.527-5.258-7.088-1.577-6.313 1.998.443 3.766-.69 4.962-1.807.373-.349.722-.722 1.046-1.117a3.04 3.04 0 0 1 1.701-1.04c1.972-.444 6.079-1.082 8.604.278.583.363 1.053.88 1.36 1.493 1.134 2.012 1.723 5.414 2.02 8.152a3.044 3.044 0 0 1-3.757 3.283zM372.174 286.06c-4.315-1.05-10.97-2.591-14.359-2.928-5.259-.527-5.259-7.088-1.577-6.313 2.41.518 4.484-1.223 5.631-2.481.137-.155.266-.301.377-.443a3.04 3.04 0 0 1 1.7-1.041c1.972-.443 6.08-1.081 8.605.279.74.399 1.329 1.276 1.803 2.406.85 2.029 1.329 4.873 1.577 7.239a3.044 3.044 0 0 1-3.757 3.283z"/>
        <path fill="#000" fill-rule="nonzero" d="M374.345 275.539c-6.282 6.472-11.665-.12-12.48-1.21.137-.155.265-.301.376-.443a3.04 3.04 0 0 1 1.701-1.041c1.972-.443 6.079-1.081 8.604.28.736.407 1.33 1.284 1.799 2.414zM440.45 271.994c-2.72 1.861-11.882 1.4-11.882 1.4-.299-.319-.574-.66-.824-1.019.373-.348.722-.721 1.046-1.116a3.04 3.04 0 0 1 1.701-1.041c1.972-.443 6.079-1.081 8.604.279.582.364 1.05.882 1.356 1.497z" opacity=".1"/>
        <path fill="#605D82" fill-rule="nonzero" d="M440.93 270.767c-1.844 2.366-12.362 1.843-12.362 1.843s-3.154-3.154-4.47-9.995c-1.316-6.84-12.604-28.673-12.604-28.673-2.632-3.42-4.736-9.747-4.736-9.747l-4.47-28.67s-21.59 28.417-21.329 34.474c.262 6.056-4.736 29.985-4.736 29.985-1.843 3.154-1.843 14.73-1.843 14.73-6.84 7.09-12.626-1.329-12.626-1.329-1.33-5.524.788-23.671.788-23.671s3.155-15.254 3.42-24.726c.266-9.472 3.443-11.825 3.443-11.825a84.368 84.368 0 0 1 12.352-27.282c1.59-2.277 2.658-3.491 2.658-3.491L427 187.387a26.906 26.906 0 0 0-1.834 5.645c-2.77 11.9-3.69 33.285-3.69 33.285 9.746 6.313 12.626 23.41 12.626 23.41-.013 4.47 6.827 21.04 6.827 21.04z"/>
        <g fill="#000" fill-rule="nonzero" opacity=".05">
            <path d="M399.917 199.044l-.545-3.505s-21.55 28.403-21.306 34.46c.244 6.056-4.736 29.985-4.736 29.985-1.843 3.154-1.843 14.73-1.843 14.73a9.025 9.025 0 0 1-4.115 2.659c2.073.545 4.59.146 7.274-2.658 0 0 0-11.573 1.843-14.731 0 0 4.998-23.925 4.736-29.985-.208-4.727 12.964-23.171 18.692-30.955z"/>
            <path d="M434.354 249.723s-2.893-17.097-12.626-23.41c0 0 .921-21.381 3.69-33.286a26.906 26.906 0 0 1 1.835-5.644l-42.612-4.998-.279.337 39.736 4.66a26.906 26.906 0 0 0-1.834 5.645c-2.77 11.9-3.69 33.286-3.69 33.286 9.746 6.313 12.626 23.41 12.626 23.41 0 4.47 6.84 21.044 6.84 21.044-1.085 1.396-5.187 1.772-8.368 1.87 2.525.066 10.003.088 11.519-1.87-.014 0-6.837-16.57-6.837-21.044z"/>
        </g>
        <path fill="#F7BBC3" fill-rule="nonzero" d="M376.494 178.704a9.525 9.525 0 0 1-1.245 2.18c-1.582 2.13-4.874 4.948-10.895 4.177a2.587 2.587 0 0 1-1.772-4.067c1.546-2.153 4.116-4.816 7.93-6.078a14.288 14.288 0 0 1 3.359-.682l2.623 4.47z"/>
        <path fill="#D9D9EA" fill-rule="nonzero" d="M432.037 105.146l-21.093-7.713s-6.052 3.154-3.681 7.629l20.517 12.888 4.257-12.804z"/>
        <path fill="#000" fill-rule="nonzero" d="M432.037 105.146l-21.093-7.713s-6.052 3.154-3.681 7.629l20.517 12.888 4.257-12.804z" opacity=".1"/>
        <path fill="#F7BBC3" fill-rule="nonzero" d="M432.76 92.431s-.262 12.36 5.258 16.57c5.52 4.208-16.046 6.574-16.046 6.574s3.42-12.626 0-19.2c-3.42-6.576 10.787-3.944 10.787-3.944z"/>
        <path fill="#000" fill-rule="nonzero" d="M427 187.387a26.906 26.906 0 0 0-1.834 5.645c-25.44 3.885-43.143-6.7-43.143-6.7-.098-.15-.19-.305-.275-.442 1.59-2.277 2.658-3.491 2.658-3.491L427 187.387zM376.494 178.704a9.525 9.525 0 0 1-1.245 2.18c-2.437-.404-4.382-5.06-4.74-5.968a14.288 14.288 0 0 1 3.357-.682l2.628 4.47z" opacity=".1"/>
        <path fill="#D9D9EA" fill-rule="nonzero" d="M434.882 103.48l-9.468 3.42-3.948 5.26s-8.151 2.631-9.206 2.631c-1.054 0-3.947 1.05-5.786 5.259-1.839 4.209-8.418 24.726-14.204 28.146-5.786 3.42-21.044 26.303-21.044 26.303s2.632 7.089 5.786 6.052l7.368-6.052s-5.786 5.786-2.366 11.05c0 0 21.567 12.888 51.29 4.997l.262-7.89 1.329 6.313 14.7-9.21s-1.33-16.978-3.695-25.622a15.613 15.613 0 0 1 1.015-10.885c3.819-7.975 9.71-21.266 8.993-26.1-.846-5.71-4.076-8.191-5.316-8.944a2.215 2.215 0 0 0-.926-.306l-4.79-.479-9.994-3.943z"/>
        <path fill="#000" fill-rule="nonzero" d="M418.706 129.912s-5.263 24.473-11.049 28.408c-5.786 3.934-21.306 16.57-21.833 18.674" opacity=".05"/>
        <path fill="#D9D9EA" fill-rule="nonzero" d="M416.336 129.132s-5.259 24.456-11.045 28.399c-5.786 3.943-21.306 16.57-21.833 18.674"/>
        <path fill="#000" fill-rule="nonzero" d="M421.334 112.027s18.164-6.052 23.41-4.47" opacity=".1"/>
        <g fill="#000" fill-rule="nonzero" opacity=".05">
            <path d="M446.937 143.256c3.819-7.974 9.711-21.265 8.993-26.099-.846-5.71-4.076-8.192-5.316-8.945a2.215 2.215 0 0 0-.926-.306l-2.047-.203c.214.05.419.135.607.248 1.232.753 4.461 3.23 5.317 8.945.717 4.846-5.175 18.138-8.994 26.099-1.64 3.388-2 7.253-1.015 10.885 2.375 8.64 3.695 25.621 3.695 25.621l-12.684 7.926.324 1.542 14.704-9.21s-1.33-16.978-3.695-25.622a15.613 15.613 0 0 1 1.037-10.88zM442.51 107.162l2.278.23-9.906-3.912-.886.32z"/>
        </g>
        <path fill="#000" fill-rule="nonzero" d="M416.336 154.638s8.152-4.47 10.784-3.42c2.631 1.05 12.36-.262 12.36-.262M431.873 95.718c-.3-2.658.922-2.215.922-2.215s-14.213-2.65-10.801 3.925a15.152 15.152 0 0 1 1.462 5.787h.133c3.943 0 6.246-4.413 8.284-7.497z" opacity=".05"/>
        <circle cx="423.571" cy="90.854" r="11.311" fill="#F7BBC3" fill-rule="nonzero"/>
        <path fill="#000" fill-rule="nonzero" d="M435.914 94.199c1.028-2.25 1.772-4.692 1.652-7.164-.12-2.472-1.231-4.98-3.282-6.362-1.064-.714-2.313-1.099-3.412-1.75-.86-.51-1.617-1.17-2.437-1.741a13.787 13.787 0 0 0-13.77-1.002c-2.077 1.042-3.845 2.592-5.803 3.842-1.958 1.249-4.266 2.215-6.561 1.838-.395 1.094.571 2.175 1.466 2.924 1.692 1.418 3.61 2.836 5.817 2.884.855 0 1.772-.164 2.53.195.523.288.968.7 1.294 1.2a23.508 23.508 0 0 1 2.68 4.55c.297.661.594 1.379 1.2 1.773 1.015.651 2.335.11 3.545.062 1.874-.07 3.544 1.108 4.944 2.366s2.707 2.702 4.457 3.367c1.33.496 3.921.478 4.586-1.081.252-.59-.23-1.852-.133-2.57.155-1.183.73-2.281 1.227-3.331z" opacity=".1"/>
        <path fill="#A1616A" fill-rule="nonzero" d="M436.175 93.937c1.028-2.25 1.772-4.691 1.653-7.164-.12-2.472-1.232-4.98-3.283-6.362-1.063-.713-2.313-1.098-3.411-1.75-.86-.51-1.618-1.17-2.437-1.74a13.787 13.787 0 0 0-13.77-1.002c-2.078 1.041-3.845 2.592-5.804 3.841-1.958 1.25-4.266 2.215-6.561 1.839-.394 1.094.572 2.175 1.466 2.924 1.693 1.418 3.611 2.835 5.818 2.884.855 0 1.772-.164 2.53.195.523.288.967.7 1.293 1.2a23.508 23.508 0 0 1 2.698 4.546c.297.66.594 1.378 1.2 1.772 1.015.652 2.336.111 3.545.062 1.874-.07 3.544 1.108 4.944 2.366s2.707 2.703 4.457 3.367c1.33.496 3.921.479 4.586-1.08.252-.59-.23-1.853-.133-2.57.137-1.166.73-2.282 1.21-3.328z"/>
    </g>
</svg>
